<?xml version="1.0" encoding="UTF-8"?>
<svg width="160px" height="588px" viewBox="0 0 160 588" version="1.1" xmlns="http://www.w3.org/2000/svg" xmlns:xlink="http://www.w3.org/1999/xlink">
    <!-- Generator: Sketch 55.2 (78181) - https://sketchapp.com -->
    <title>home_left</title>
    <desc>Created with Sketch.</desc>
    <defs>
        <linearGradient x1="47.2039151%" y1="28.4420393%" x2="100%" y2="71.5579607%" id="linearGradient-1">
            <stop stop-color="#00F1D9" offset="0%"></stop>
            <stop stop-color="#00D4F6" offset="100%"></stop>
        </linearGradient>
        <linearGradient x1="-1.11022302e-14%" y1="49.1900826%" x2="100%" y2="50.8099174%" id="linearGradient-2">
            <stop stop-color="#3677FF" offset="0%"></stop>
            <stop stop-color="#1ECFF7" offset="100%"></stop>
        </linearGradient>
        <linearGradient x1="0%" y1="9.50174125%" x2="100%" y2="90.4982587%" id="linearGradient-3">
            <stop stop-color="#C6CEFA" offset="0%"></stop>
            <stop stop-color="#EAEDFF" offset="100%"></stop>
        </linearGradient>
    </defs>
    <g id="OZ-desktop" stroke="none" stroke-width="1" fill="none" fill-rule="evenodd">
        <path d="M-23.0111455,456.540843 L-43.4683906,533.30306 C-45.1750408,539.706965 -41.3671634,546.281869 -34.9632583,547.988519 C-33.9506635,548.258377 -32.9070822,548.394433 -31.8591461,548.393215 L31.1674373,548.319955 C52.8930856,548.294701 71.8929774,533.679952 77.4909015,512.687866 L88.3996247,471.780406 C90.1072723,465.376767 86.300419,458.80127 79.8967798,457.093622 C78.8938728,456.826179 77.8605053,456.689984 76.8225525,456.68845 L-23.0111455,456.540843 Z" id="Fill-1-Copy-41" stroke="url(#linearGradient-1)" stroke-width="2" transform="translate(22.461620, 502.476116) rotate(-15.000000) translate(-22.461620, -502.476116) "></path>
        <path d="M3.5238829,87.9904462 L49.4263376,87.8673497 C50.907898,87.8633766 52.1057193,86.6591137 52.1017462,85.1775532 C52.1010665,84.9241157 52.0644761,84.6720532 51.9930663,84.4288831 C51.3964882,82.3973728 49.5297585,81.0041227 47.4124716,81.0101162 L1.56261112,81.1399065 C0.0749527439,81.1441177 -1.12761879,82.353517 -1.12340757,83.8411753 C-1.12270488,84.0894077 -1.08769263,84.3363514 -1.01936484,84.5749957 C-0.439173695,86.6013938 1.41606913,87.9960987 3.5238829,87.9904462 Z" id="Fill-1-Copy-38" fill="url(#linearGradient-2)" transform="translate(25.500000, 84.500000) scale(-1, 1) rotate(15.000000) translate(-25.500000, -84.500000) "></path>
        <path d="M140.802852,521.737264 L140.802852,555.137334 C140.802852,558.451042 138.11656,561.137334 134.802852,561.137334 C134.285086,561.137334 133.769498,561.070314 133.268939,560.937947 L64.776292,542.825763 C54.2464562,540.041255 46.9119445,530.515093 46.9119445,519.623311 L46.9119445,486.223108 C46.9119445,482.909399 49.598236,480.223108 52.9119445,480.223108 C53.4297137,480.223108 53.9453052,480.290128 54.4458681,480.422497 L122.938546,498.534823 C133.468361,501.319346 140.802852,510.845497 140.802852,521.737264 Z" id="Fill-1-Copy-9" fill-opacity="0.3" fill="url(#linearGradient-3)" transform="translate(93.857398, 520.680213) scale(-1, 1) translate(-93.857398, -520.680213) "></path>
    </g>
</svg>