<?xml version="1.0" encoding="UTF-8"?>
<svg width="160px" height="588px" viewBox="0 0 160 588" version="1.1" xmlns="http://www.w3.org/2000/svg" xmlns:xlink="http://www.w3.org/1999/xlink">
    <!-- Generator: Sketch 55.2 (78181) - https://sketchapp.com -->
    <title>home_right</title>
    <desc>Created with Sketch.</desc>
    <defs>
        <linearGradient x1="100%" y1="29.104173%" x2="0%" y2="70.895827%" id="linearGradient-1">
            <stop stop-color="#A134D1" offset="0%"></stop>
            <stop stop-color="#6746D6" offset="100%"></stop>
        </linearGradient>
        <linearGradient x1="0%" y1="15.0604248%" x2="100%" y2="58.5502258%" id="linearGradient-2">
            <stop stop-color="#DDE2FC" offset="0%"></stop>
            <stop stop-color="#ABB8F7" offset="100%"></stop>
        </linearGradient>
        <linearGradient x1="100%" y1="17.5962185%" x2="0%" y2="82.4037815%" id="linearGradient-3">
            <stop stop-color="#A134D1" offset="0%"></stop>
            <stop stop-color="#6746D6" offset="100%"></stop>
        </linearGradient>
        <linearGradient x1="0%" y1="49.1900826%" x2="100%" y2="50.8099174%" id="linearGradient-4">
            <stop stop-color="#FFB05A" offset="0%"></stop>
            <stop stop-color="#F86F14" offset="100%"></stop>
        </linearGradient>
    </defs>
    <g id="OZ-desktop" stroke="none" stroke-width="1" fill="none" fill-rule="evenodd">
        <path d="M35.0003407,-1.6092509 L35.0024029,48.2816845 C35.0026769,54.9091015 40.3754819,60.2814624 47.0028989,60.2811885 C48.071286,60.2811443 49.1348825,60.1384218 50.1654858,59.8568054 L232.943221,9.91206926 L233,-64 L42.951459,-12.0271765 C38.2562051,-10.7431593 35.0001395,-6.47691053 35.0003407,-1.6092509 Z" id="Fill-1-Copy-10" stroke="url(#linearGradient-1)" stroke-width="2" opacity="0.866001674"></path>
        <path d="M96.1150742,49.2153978 L96.2973452,84.4754528 C96.3316041,91.1027813 101.731888,96.4475202 108.359216,96.4132613 C109.379498,96.4079871 110.394941,96.2726131 111.38097,96.0104155 L224,66.0636086 L223.76942,11.6474901 C223.735721,3.69466113 217.261361,-2.72506224 209.308532,-2.69136335 C208.079697,-2.68615635 206.856583,-2.52367667 205.669007,-2.20788526 L117.513604,21.2337376 C104.843127,24.6029757 96.047301,36.1047855 96.1150742,49.2153978 Z" id="Fill-1-Copy-22" fill-opacity="0.3" fill="url(#linearGradient-2)"></path>
        <path d="M107,560.134714 L107,607.207725 C107,610.521433 109.686292,613.207725 113,613.207725 C113.517615,613.207725 114.033054,613.140745 114.533478,613.008453 L236.223187,580.838611 C253.77434,576.198796 266,560.321178 266,542.167091 L266,494.809879 C266,491.49617 263.313708,488.809879 260,488.809879 C259.478005,488.809879 258.958241,488.877997 258.453874,489.012509 L136.692495,521.485582 C119.18285,526.155306 107,542.01307 107,560.134714 Z" id="Fill-1-Copy-34" stroke="url(#linearGradient-3)" stroke-width="2" transform="translate(186.500000, 551.000000) rotate(180.000000) translate(-186.500000, -551.000000) "></path>
        <path d="M84.5238829,453.990446 L130.426338,453.86735 C131.907898,453.863377 133.105719,452.659114 133.101746,451.177553 C133.101067,450.924116 133.064476,450.672053 132.993066,450.428883 C132.396488,448.397373 130.529758,447.004123 128.412472,447.010116 L82.5626111,447.139906 C81.0749527,447.144118 79.8723812,448.353517 79.8765924,449.841175 C79.8772951,450.089408 79.9123074,450.336351 79.9806352,450.574996 C80.5608263,452.601394 82.4160691,453.996099 84.5238829,453.990446 Z" id="Fill-1-Copy-39" fill="url(#linearGradient-4)" transform="translate(106.500000, 450.500000) scale(-1, 1) rotate(15.000000) translate(-106.500000, -450.500000) "></path>
    </g>
</svg>