<?xml version="1.0" encoding="UTF-8"?>
<svg width="160px" height="531px" viewBox="0 0 160 531" version="1.1" xmlns="http://www.w3.org/2000/svg" xmlns:xlink="http://www.w3.org/1999/xlink">
    <!-- Generator: Sketch 55.2 (78181) - https://sketchapp.com -->
    <title>start_left</title>
    <desc>Created with Sketch.</desc>
    <defs>
        <linearGradient x1="100%" y1="18.5059209%" x2="16.2214949%" y2="71.2764582%" id="linearGradient-1">
            <stop stop-color="#00D4F6" stop-opacity="0.3" offset="0%"></stop>
            <stop stop-color="#00EBDF" stop-opacity="0" offset="100%"></stop>
        </linearGradient>
        <linearGradient x1="0%" y1="49.21875%" x2="95.0808759%" y2="50.78125%" id="linearGradient-2">
            <stop stop-color="#00F1D9" offset="0%"></stop>
            <stop stop-color="#00D4F6" offset="100%"></stop>
        </linearGradient>
        <linearGradient x1="-36.9725676%" y1="45.4236741%" x2="100%" y2="70.7516642%" id="linearGradient-3">
            <stop stop-color="#00F1D9" offset="0%"></stop>
            <stop stop-color="#00D4F6" offset="100%"></stop>
        </linearGradient>
    </defs>
    <g id="OZ-desktop" stroke="none" stroke-width="1" fill="none" fill-rule="evenodd">
        <path d="M-99,66.2222529 L-99,110.705092 C-99,113.356058 -96.8509668,115.505092 -94.2,115.505092 C-93.7707769,115.505092 -93.343493,115.44752 -92.9295766,115.333917 L18.1744849,84.8403938 C23.3858739,83.4100806 26.9982754,78.6727727 26.9984265,73.2686659 L26.999824,23.295091 C26.9998981,20.6441242 24.850925,18.4950309 22.1999582,18.4949568 C21.7706902,18.4949448 21.3433603,18.5525164 20.9294006,18.6661314 L-84.8816934,47.7069513 C-93.220108,49.9955052 -99,57.5754825 -99,66.2222529 Z" id="Fill-1-Copy-10" fill-opacity="0.5" fill="url(#linearGradient-1)"></path>
        <path d="M-2.013292,36.5304236 C-2.42436476,37.975885 -1.58582708,39.4809033 -0.140365696,39.891976 C0.102776262,39.9611228 0.354367608,39.9960513 0.607150526,39.9957537 L47.4900473,39.9405635 C49.6158572,39.938061 51.4787863,38.5175124 52.0438048,36.4681642 C52.4455324,35.0110796 51.5899965,33.5042146 50.1329119,33.102487 C49.8949732,33.0368857 49.6492537,33.0037738 49.4024375,33.0040517 L2.58056673,33.0567847 C0.445494174,33.0591893 -1.42925953,34.4767813 -2.013292,36.5304236 Z" id="Fill-1-Copy-20" fill="url(#linearGradient-2)" transform="translate(25.000000, 36.500000) rotate(-15.000000) translate(-25.000000, -36.500000) "></path>
        <g id="Group-19" transform="translate(-57.000000, 295.000000)">
            <path d="M0.116894656,42.9967761 L0.0307903764,60.6774843 C0.0178804366,63.3284197 2.15642258,65.4878929 4.80735794,65.5008029 C5.24337311,65.5029263 5.67764458,65.4456312 6.09818971,65.3304985 L95.0241176,40.985246 C100.218204,39.5632608 103.828897,34.85521 103.855332,29.4700562 L103.961202,7.90346325 C103.977469,4.58979468 101.304396,1.89034878 97.9907279,1.87408207 C97.4456307,1.8714062 96.9027111,1.94302488 96.3769541,2.08696138 L14.246842,24.5717233 C5.93603481,26.8469731 0.158856761,34.3802504 0.116894656,42.9967761 Z" id="Fill-1-Copy-18" fill-opacity="0.8" fill="url(#linearGradient-3)" opacity="0.866001674"></path>
            <path d="M27.0228508,60.9448522 L27.232765,129 L131,101.463866 L130.806865,38.4402092 C130.790617,33.1383005 126.479399,28.8534256 121.177491,28.8696732 C120.35614,28.8721903 119.538509,28.9801044 118.744631,29.1907713 L34.1605265,51.6363846 C29.9418911,52.7558604 27.0093882,56.5802298 27.0228508,60.9448522 Z" id="Fill-1-Copy-25" fill-opacity="0.5" fill="#FFFFFF" transform="translate(79.000000, 77.500000) scale(-1, 1) translate(-79.000000, -77.500000) "></path>
        </g>
    </g>
</svg>