<?xml version="1.0" encoding="UTF-8"?>
<svg width="160px" height="531px" viewBox="0 0 160 531" version="1.1" xmlns="http://www.w3.org/2000/svg" xmlns:xlink="http://www.w3.org/1999/xlink">
    <!-- Generator: Sketch 55.2 (78181) - https://sketchapp.com -->
    <title>sdk_left</title>
    <desc>Created with Sketch.</desc>
    <defs>
        <linearGradient x1="104.123992%" y1="26.7000983%" x2="0%" y2="70.7516642%" id="linearGradient-1">
            <stop stop-color="#3677FF" offset="0%"></stop>
            <stop stop-color="#1ECFF7" offset="100%"></stop>
        </linearGradient>
        <linearGradient x1="-1.11022302e-14%" y1="49.21875%" x2="100%" y2="50.78125%" id="linearGradient-2">
            <stop stop-color="#3677FF" offset="0%"></stop>
            <stop stop-color="#1ECFF7" offset="100%"></stop>
        </linearGradient>
    </defs>
    <g id="OZ-desktop" stroke="none" stroke-width="1" fill="none" fill-rule="evenodd">
        <g id="Group-19" transform="translate(-57.000000, 295.000000)">
            <path d="M0.116894656,42.9967761 L0.0307903764,60.6774843 C0.0178804366,63.3284197 2.15642258,65.4878929 4.80735794,65.5008029 C5.24337311,65.5029263 5.67764458,65.4456312 6.09818971,65.3304985 L95.0241176,40.985246 C100.218204,39.5632608 103.828897,34.85521 103.855332,29.4700562 L103.961202,7.90346325 C103.977469,4.58979468 101.304396,1.89034878 97.9907279,1.87408207 C97.4456307,1.8714062 96.9027111,1.94302488 96.3769541,2.08696138 L14.246842,24.5717233 C5.93603481,26.8469731 0.158856761,34.3802504 0.116894656,42.9967761 Z" id="Fill-1-Copy-18" fill-opacity="0.8" fill="url(#linearGradient-1)" opacity="0.866001674"></path>
            <path d="M27.0228508,60.9448522 L27.232765,129 L131,101.463866 L130.806865,38.4402092 C130.790617,33.1383005 126.479399,28.8534256 121.177491,28.8696732 C120.35614,28.8721903 119.538509,28.9801044 118.744631,29.1907713 L34.1605265,51.6363846 C29.9418911,52.7558604 27.0093882,56.5802298 27.0228508,60.9448522 Z" id="Fill-1-Copy-25" fill-opacity="0.5" fill="#FFFFFF" transform="translate(79.000000, 77.500000) scale(-1, 1) translate(-79.000000, -77.500000) "></path>
        </g>
        <path d="M-14.013292,36.5304236 C-14.4243648,37.975885 -13.5858271,39.4809033 -12.1403657,39.891976 C-11.8972237,39.9611228 -11.6456324,39.9960513 -11.3928495,39.9957537 L35.4900473,39.9405635 C37.6158572,39.938061 39.4787863,38.5175124 40.0438048,36.4681642 C40.4455324,35.0110796 39.5899965,33.5042146 38.1329119,33.102487 C37.8949732,33.0368857 37.6492537,33.0037738 37.4024375,33.0040517 L-9.41943327,33.0567847 C-11.5545058,33.0591893 -13.4292595,34.4767813 -14.013292,36.5304236 Z" id="Fill-1-Copy-20" fill="url(#linearGradient-2)" transform="translate(13.000000, 36.500000) rotate(-15.000000) translate(-13.000000, -36.500000) "></path>
    </g>
</svg>