<svg width="16" height="16" viewBox="0 0 16 16" fill="none" xmlns="http://www.w3.org/2000/svg">
<path fill-rule="evenodd" clip-rule="evenodd" d="M7.9423 16C12.3926 16 16.0004 12.3923 16.0004 7.94195C16.0004 5.75041 15.1255 3.76321 13.7059 2.31054C10.5569 -0.786227 5.48796 -0.770098 2.35893 2.35893C-0.764116 5.48198 -0.786154 10.5375 2.29282 13.6879C3.74705 15.1178 5.74166 16 7.9423 16ZM11.4756 10.336L9.19642 8.05684L11.4756 5.77767L10.336 4.63809L8.05684 6.91726L5.77768 4.63809L4.63809 5.77767L6.91726 8.05684L4.63809 10.336L5.77768 11.4756L8.05684 9.19642L10.336 11.4756L11.4756 10.336Z" fill="#AA0909"/>
</svg>
