<?xml version="1.0" encoding="utf-8"?>
<!-- Generator: Adobe Illustrator 25.0.0, SVG Export Plug-In . SVG Version: 6.00 Build 0)  -->
<svg version="1.1" id="Layer_1" xmlns="http://www.w3.org/2000/svg" xmlns:xlink="http://www.w3.org/1999/xlink" x="0px" y="0px"
	 viewBox="0 0 362 188" style="enable-background:new 0 0 362 188;" xml:space="preserve">
<style type="text/css">
	.st0{opacity:0.4;}
	.st1{fill:#FFFFFF;}
	.st2{fill:none;stroke:#000000;stroke-width:0.5;}
	.st3{fill-rule:evenodd;clip-rule:evenodd;fill:url(#path-2_2_);stroke:#FFFFFF;stroke-width:0.25;}
	.st4{fill-rule:evenodd;clip-rule:evenodd;fill:url(#path-4_1_);stroke:#FFFFFF;stroke-width:0.25;}
	.st5{fill-rule:evenodd;clip-rule:evenodd;fill:url(#path-4_8_);stroke:#FFFFFF;stroke-width:0.25;}
	.st6{fill-rule:evenodd;clip-rule:evenodd;fill:url(#path-4_9_);stroke:#FFFFFF;stroke-width:0.25;}
	.st7{fill-rule:evenodd;clip-rule:evenodd;fill:url(#path-6_4_);stroke:#FFFFFF;stroke-width:0.25;}
	.st8{fill-rule:evenodd;clip-rule:evenodd;fill:url(#path-6_5_);stroke:#FFFFFF;stroke-width:0.25;}
	.st9{fill-rule:evenodd;clip-rule:evenodd;fill:url(#path-8_4_);stroke:#FFFFFF;stroke-width:0.25;}
	.st10{fill-rule:evenodd;clip-rule:evenodd;fill:url(#path-8_5_);stroke:#FFFFFF;stroke-width:0.25;}
	.st11{fill-rule:evenodd;clip-rule:evenodd;fill:url(#path-10_4_);stroke:#FFFFFF;stroke-width:0.25;}
	.st12{fill-rule:evenodd;clip-rule:evenodd;fill:url(#path-10_5_);stroke:#FFFFFF;stroke-width:0.25;}
	.st13{fill-rule:evenodd;clip-rule:evenodd;fill:url(#path-12_4_);stroke:#FFFFFF;stroke-width:0.25;}
	.st14{fill-rule:evenodd;clip-rule:evenodd;fill:url(#path-12_5_);stroke:#FFFFFF;stroke-width:0.25;}
	.st15{fill-rule:evenodd;clip-rule:evenodd;fill:url(#path-4_14_);stroke:#FFFFFF;stroke-width:0.25;}
	.st16{fill-rule:evenodd;clip-rule:evenodd;fill:url(#path-4_15_);stroke:#FFFFFF;stroke-width:0.25;}
</style>
<desc>Created with Sketch.</desc>
<g id="Page-1">
	<g id="map" transform="translate(1.000000, 1.000000)">
		<g class="st0">
			<path id="Fill-1" class="st1" d="M15.3,51.6v-1c-0.7,0.5-1.4,1-2.2,1.4l0.5,1.1C14.2,52.8,14.8,52.3,15.3,51.6L15.3,51.6z
				 M19.6,47c-0.1-0.8,0.6-0.8,1.6-0.6c1.1,0.9,2.3,1.5,3.6,1.8l1-0.3l0.9,0.4h0.8c0.6,0.6,1.4,1.1,2.2,1.4l0.7,0.8
				c0.5,0.3,1,0.3,1.5,0.1l0.8,0.5l0.5,0.8l1.2,0.3L34.2,53l1.2,0.5l-0.2,0.7c0.5,0.2,1,0.3,1.5,0.4l0.1,0.8l0.6,0.8
				c0.1,0.6,0.2,1.2,0.5,1.8l0.9,0.1l0.3,1.1l1,1l0.3,0.7c0.9,0.5,1.8,0.9,2.8,1.2l0.2,0.6c0.6,0.4,1.2,0.9,1.8,1.3
				c0.3,0.8,0.5,1.6,0.4,2.4c-0.4-0.5-0.9-1-1.3-1.6L44,64.3c-0.4-0.3-0.9-0.6-1.4-0.8l-0.1-0.9h-0.7c-0.5-0.4-1-0.7-1.6-0.8
				l-0.6,0.1l0.5,0.7c0.9,0.7,1.9,1.4,2.8,2.1c0.4,0.8,0.7,1.6,1,2.4c-0.1,1.4-0.2,2.7-0.2,4.1l-0.5,0.4v1.1l0.6,1.1l-0.2,1.1
				l0.2,0.8l0.4,0.7l-0.1,1.1c0.3,0.6,0.8,1.2,1.4,1.6l0.5,1.5l0.7,0.6l0.2,0.8l0.6,0.9h0.9c0.5,0.5,1.1,0.9,1.7,1.1l0.7,0.8
				c0.3,1.2,0.7,2.3,1,3.4c0.5,0.5,0.9,1,1.4,1.4l0.2,0.6l-0.6,0.5c0.9,0.9,1.8,1.8,2.8,2.6l-0.1,0.6l0.2,0.5c0.8,0.3,1.5,0.8,2,1.6
				l0.1,0.7l0.4-0.2l0.1-0.7l-0.3-0.8l-0.7-0.3l-0.1-0.7l-0.8-0.6c-0.2-0.6-0.4-1.2-0.6-1.8l-0.7-0.7L55,89.7l-0.7-0.3
				c-0.2-0.8-0.6-1.5-1.2-2.1L53,86.1l0.6-0.1l0.9,0.4l0.5,0.7l0.1,1.1c0.9,1.5,2.2,2.8,3.5,4.1l0.2,0.9c1.4,0.9,2.1,2.2,3.3,3.5
				l0.4,1.1l0.6,0.5l-0.6,0.4l-0.2,0.7c0.7,0.6,1.5,1.2,2.2,1.8c2.5,1,5,3.1,7.7,3l0.3-0.4l0.9-0.1c1.1,0.5,2.1,1.3,2.8,2.3h1.3
				L78,106l0.6,0.8l1.2,0.4l0.1-0.6l0.6,0.3c1,0.9,1.6,2,1.7,3.2l0.4,0.4l0.5-0.2c0.3,0.3,2.1,1.9,2.5,1.5c0.8,0.4,1.6,0.8,2.4,1.2
				l-0.1-0.9l0.4-0.6l1.5,0.1l0.2,0.6l0.5-0.1l0.3-0.7l-0.5-0.7c-1.3,0-2.7,0-4-0.2c-0.6-0.4-1.2-0.9-1.6-1.6c0-1.4,0.2-2.9,0.4-4.3
				l-0.5-0.7l-0.9-0.5c-0.8,0.2-1.6,0.1-2.4-0.1l-1.1,0.4l-0.7-0.5l0.7-0.6v-1c0.2-0.5,0.4-1.1,0.6-1.6v-1.1l0.6-0.4l0.1-0.8
				l-0.5-0.3c-0.9,0-1.7,0.1-2.6,0.3c-0.5,1-0.9,2-1.3,3c-1.1,0.2-2.2,0.4-3.3,0.6l-0.6-0.8l-1-0.6c-0.3-0.7-0.6-1.4-1.1-2.1
				c-0.3-1.1-0.5-2.3-0.6-3.4c0.4-0.7,0.7-1.5,0.8-2.4L70.4,91l0.9-1.3l0.8-0.1c0.6-0.4,1.1-0.9,1.6-1.4c0.6,0.1,1.3,0.2,1.9,0.4
				l0.6-0.3l0.5,0.7c0.6,0,1.1,0,1.7-0.1l-0.2-0.6l0.3-0.9c1.1-0.1,2.3-0.1,3.4,0l0.6,0.8H83l0.3-0.4l0.4-0.1
				c0.5,0.4,0.9,0.9,1.3,1.5v0.9c0.3,0.3,0.5,0.7,0.5,1.2l0.5,0.4l0.3,0.7l0.6,0.3l0.1,0.7l0.5,0.2c0.3-0.4,0.5-0.8,0.6-1.3
				c-0.3-1.3-0.7-2.5-1.3-3.7c-0.1-1.4,0.2-2.8,0.9-4.1c1.3-0.8,2.5-1.9,3.9-2.4l0.2-0.7l0.7-0.4c-0.3-0.7-0.6-1.3-1.1-1.8l0.2-0.7
				l-0.4-0.6l0.7-0.4l0.6,0.9c0.3-0.8,0.7-1.6,1.3-2.2l0.5-1.7h1.4l0.9-0.6l1-0.1l-0.3-0.7l-0.1-1.4L98,71h0.8l0.3-0.6l1.1,0.1
				l1-0.6l0.6-0.8c1.2-0.2,2.2-0.2,2.2,0.6h-1.4c-0.7,0.3-0.9,0.8-0.7,1.5l0.6,0.3c1.1-1,2.5-1.6,3.9-1.9c0.4-0.6,0.9-1.1,1.5-1.6
				l0.1-0.8l-1,0.3l-0.7,1.2l-1.2,0.1c-0.7-0.3-1.4-0.8-1.9-1.3l-0.5-1.4l0.9-0.7l-0.1-1.2l-1.3-0.1c-2.4,0.6-3.7,2.5-5.7,3.8
				c0.4-0.8,1-1.6,1.7-2.2L97,65.2h1.5l0.4-0.8l0.8-0.7l1-0.1l0.4-0.9l0.8-0.3c2,0,3.9,0,5.8,0.1c0.7-0.5,1.3-1,1.8-1.7
				c0.8,0,1.6-0.2,2.3-0.5l0.4-0.4l-0.5-0.4l0.3-0.4l0.1-0.9l-1.1-0.2l-0.2-0.6h-1.2c-0.5,0.3-1.1,0.6-1.6,1l-0.5-0.2l0.2-0.7
				c0.8-0.3,1.6-0.5,2.4-0.7l0.6-0.6l-0.8-0.1c-0.6-0.4-1.3-0.6-1.9-0.8c-0.5-0.5-1-0.9-1.5-1.3l-0.3-0.6l0.5-0.1l0.2-0.4
				c-1.2-1.6-2.5-3.3-3.3-5.2l-0.9,1.2v1.1l-1,0.4L101,51l-0.9-0.1l-0.2-0.7l-0.6-0.5L98.2,50c0.3-1.2,0.4-2.4,0.2-3.6l-1.2-0.1
				c-1-0.9-2.1-1.7-3.2-2.4l-0.5,0.4l-1.3-0.1L91.8,44h-1.4l-0.6,0.6l0.5,0.9l-0.2,1.2c0.1,0.7,0.3,1.3,0.6,1.8H90l0.1,1L89.6,50
				c0.5,0.4,1.1,0.8,1.6,1.2c0.2,0.9,0.3,1.8,0.3,2.7c-0.4,0.7-1,1.3-1.6,1.8l-1.3,0.2l0.7,1.2v1.6l0.4,0.9
				c-0.1,0.6-0.4,1.1-0.8,1.6l-1.3,0.2c-0.4-0.9-1-1.7-1.6-2.4c0-0.8-0.1-1.5-0.3-2.3l0.2-1.1c-0.9-0.2-1.9-0.3-2.8-0.3
				c-0.7-0.4-1.4-0.7-2.2-0.8l-0.6-0.7c-0.9-0.5-1.8-1-2.7-1.5l-1.8,0.4c-0.4-0.8-0.8-1.6-1.2-2.4l-0.9-0.4l-0.6-0.7l0.2-2.1
				c0.6-1,1.1-2,1.8-2.9c0.8-0.3,1.4-0.7,2-1.2l-0.4-0.8c-1-0.2-2.1-0.5-3-0.9c1.2,0.1,2.3,0.3,3.4,0.7l0.7-0.2l0.2-0.8l1.3,0.4
				l0.7-0.2l0.1-0.7l0.5-0.3l0.3-0.9c-0.7-0.1-1.4-0.2-2-0.2l-0.4-0.5L77,38.2c1.1,0.1,2.2,0.3,3.3,0.8l0.9-0.3l0.6-0.8l-0.7-0.7
				h0.9l0.6,0.6c-0.4,0.6-0.7,1.2-0.9,1.9v1.5l-0.9,0.3l0.3,0.7l1,0.1v0.6c0.8,0.2,1.4,0,1.7-0.9c0.9-0.1,1.8,0.1,2.6,0.5h1l0.1-0.8
				l-1-0.2l-0.5-1.1l-1.2-0.1l-0.9-0.8L83,39.2v-0.6l0.8,0.2l0.4-0.4l-0.1-0.5h1l0.4-0.7l0.9-0.7l0.3-0.6c-0.5-0.5-0.8-1.1-1-1.8
				l0.9-0.2l0.3-0.8l-0.7-0.8c-0.7-0.3-1.5-0.7-2.1-1.1h1.4l0.2-0.4l1,0.1l0.8,0.5c0.7,0,1.4-0.1,2.1-0.3l-0.8-0.8l0.6-0.2l0.9,0.9
				l1,0.1l0.4,0.9l0.7,0.2l0.4,0.7l0.8,0.3l0.4,0.8l0.9,0.3l0.7,0.8l0.2,1c-0.7,0.7-1.3,1.4-1.9,2.1l0.5,1l-1.6,0.2
				c-0.6-0.2-1.1-0.3-1.7-0.2l-1.1,0.8v0.9c0.8,0.2,1.6,0.3,2.4,0.2l0.3-0.5l0.5-0.3c0.7,0.2,1.3,0.3,1.9,0.6L96,42l0.3,0.7l0.7,0.8
				h1l1.1,1.1l1.6,0.1l1,0.5l0.1-0.7c-0.8-0.7-1.7-1.3-2.5-2l-0.4-0.7c1.4,0.7,2.8,1.5,4.1,2.3v-1l0.6-0.9l-0.9-0.6l-0.2-1.4
				l-1.3-0.5L99.8,38c0.3-0.3,0.7-0.6,1-0.9c1.1,0.7,2.1,1.6,2.8,2.7l0.9,0.2l0.3-1.2l1.1-0.4l0.2-0.5h0.7l0.3-0.6l-0.1-0.8h-1.5
				v-0.4l-0.9-0.7c-0.6-0.1-1.1-0.3-1.6-0.6h-0.7c-0.1-0.4-0.3-0.8-0.5-1.2c-0.6,0-1.2,0-1.8-0.1v-0.9h0.9l0.5-0.4l-1.2-0.3l0.2-0.4
				l0.6-0.1l-0.7-0.7l-0.9-0.3l0.4-0.6l-1-0.4l-1.1,0.1l-0.2-0.5c-0.4,0-0.9,0-1.3-0.2l0.7-0.5l-1-0.3l-1.3,0.3l-0.8-0.9l-0.1-0.5
				L93,26.7l-0.1-0.6c-0.9-0.4-1.9-0.6-2.9-0.4l-0.2,0.5c-0.5,0.1-1.1,0.1-1.6-0.1L88,26.7l-0.8,0.1L87.1,26l0.5-0.7
				c-0.5-0.5-0.9-1.2-1.2-1.9H85L84.3,24l-1,0.1l-0.7,0.4l-0.2,0.9l0.6,0.9L82.7,27l0.8,1.2l-0.7,0.1l-0.9-1
				c-0.2-0.7-0.3-1.5-0.4-2.2c0.4-0.7,1-1.3,1.7-1.7c-0.9,0-1.9,0-2.8,0.2L79,24.6l-0.8,1.6l-0.1,1.9c0.7,0.2,1.4,0.2,2,0.3l0.4,0.7
				l-0.9-0.2l-1,0.3l0.8,0.9h1.2l0.6-0.2c0.7,0.5,1.4,0.9,2.3,1.1l-0.9,0.3l-0.1,0.8l0.6,0.6c-0.7,1.2-1.4,2.3-2.2,3.4l-0.7-0.3
				l-0.5-1.3l0.5-0.8l-1.3-1.2l-1,0.9l-1.5-1.7l-0.5-0.2c0.1-0.6,0.1-1.3-0.1-1.9l-0.7-0.1l-0.1-0.8L74,27.5l-1.3-0.1L72.4,28
				l-0.6,0.1L71.3,29l0.3,0.7l-0.2,0.6c0.6,0.6,1.3,1.1,2,1.6l-0.3,0.8l-1.1-0.2l0.3,0.9l0.9-0.1l1-0.7v1l-1.8,1l0.2,1.4l-1.2-0.8
				l0.3-1h-0.7l-0.1-0.9h0.7l-0.2-1.4l-1.7-0.8l-0.4,1l-0.9,0.4l1.5,1.1l-0.7,0.6L69.1,35l-2.8,0.1c-0.8-0.4-1.6-0.7-2.5-0.8
				l-1.4-0.8c-0.8,0.5-1.6,0.9-2.4,1.3l0.4,0.9l-0.2,1.4l-0.9-1.7l-1.4-0.7c-1.7,0.4-3.3,0.3-5,0l-0.1-0.5l1.2-0.4l-1.7-0.9
				c-1.4,0.1-2.8-0.3-4.2-0.9l-0.8-0.7c-0.7-0.1-1.5-0.2-2.3-0.1l-0.4,0.6l-0.8,0.2l-0.8-1.4l-0.5,1.2l-0.9-0.2L40.8,30l-1-0.3
				l-0.3,1.1l-0.7,0.7c-1.3,0.2-2.6,0.7-3.8,1.4l1.1-1.1c0.7-0.2,1.3-0.4,2-0.7l0.4-0.6l-0.5-0.1c-1,0.3-2,0.7-3,1.2
				c-0.6,0-1.2,0.1-1.7,0.1l-1.7,1l-1.6-0.2l-1.3-1.1l-2.4-0.1l-0.8-0.6l-1.2-0.2l-1.5,0.3l-0.9-0.6c-1.9-0.1-3.8-0.6-5.8-0.4
				l-0.3-0.8c-1.1-0.1-2.2-0.1-3.3,0l0.3-0.6l-1.4-0.1l-1.2,0.7H8.2l-1.4,1.1H5.7l-0.9,0.8l-0.1,1l-1.2,0.8l-1.9,0.1l-0.4,1.1l2.2,1
				l0.7,1.1l1.2,0.5l0.8,1.3c-0.8,0.2-1.5,0.2-2.3-0.1l-0.1-0.9l-1.3,0.7l-1.1,0.1L0,38.8c0.5,0.3,0.9,0.6,1.3,0.9L1.7,41l3.4-0.4
				L6,40.1l0.9,0.1c-0.2,0.7-0.3,1.5-0.2,2.3c-0.8,0-1.6,0.1-2.4,0.5l-1-0.1l-0.3,1.2l-1.3,1.2l0.3,0.8l0.6,0.1
				c0.2,0.6,0.4,1.2,0.7,1.7l1.4,0.5l0.7-0.8L6,48.7l-0.2,1.6h0.7L7.1,50l1.1-0.1l0.7,0.4l0.4-0.8l0.7,0.6l0.8-0.5
				c-0.5,2.2-2.4,2.8-3.6,4.5l-1,0.1l-1,0.8l-1.4,0.3l-1.2,1.1l0.7,0.3l1.2-0.9l0.8-0.1c1.9-1.1,3.9-1.9,5.8-2.9l0.4-0.9l3.1-1.8
				l-0.8-1.2l1.6-0.9l0.8-1.5l1.4-0.3l0.7,0.4l-1.6,0.7l-0.4,0.9l0.2,1c1.1-0.7,2.3-1.2,3.5-1.3L19.6,47z M1.9,48.3l-0.3-0.8H0.8
				l-0.4,0.3l0.2,0.7l0.9,0.1L1.9,48.3z M45.6,28.2h1.1l0.7-0.6l0.3-1.1c1.4-1.2,2.9-2.1,4.7-2.6l-0.1-0.7l-1.5-0.9L50,22.3l-1,0.4
				c-1.8-0.8-3.7-1.2-5.6-0.8c0,0.5,0.1,1.1,0.3,1.6L43.4,25L41.9,27l1.8,0.6l1,1.4L45.6,28.2z M60.3,34.2c0.5-0.3,1.1-0.5,1.7-0.6
				l0.1-0.7c-1,0.2-1.9,0.6-2.8,1.1L60.3,34.2z M51.5,32c0.8,0,1.6,0.1,2.4,0.1l0.6,1.1l0.7,0.4c0.9,0,1.8,0,2.7-0.1
				c1.1-0.5,2.2-1,3.3-1.7l0.4,0.4l0.6-0.1l1.5,0.8c0.6,0.1,1.3,0.1,1.9-0.1l0.4-0.7l-0.7-0.6c0.5,0,1-0.1,1.5-0.2l0.2-0.5
				c-0.8-0.6-1.6-0.9-2.6-1.2l-0.9-0.9l0.2-0.9l-0.8-0.6l-0.2-1.3L62,25l-1.2-0.5h-1c-0.1,0.9,0.2,1.8,0.7,2.5l-0.3,0.4l-0.4-0.1
				L59.4,27c-0.1-0.9-0.5-1.6-1.2-2.1l-0.8-0.1c0.1,0.4,0.3,0.8,0.5,1.1h-0.9l-0.1,0.4l-0.7,0.1c0.1-0.4,0.2-0.7,0.4-1.1
				c-0.5,0-1-0.1-1.4-0.3l-0.8,0.1l-0.1,0.6l-0.6-0.1l0.2-0.4l-0.2-0.8l-0.4-0.2h-0.9c-0.9,0.6-1.8,1.1-2.8,1.6l0.2,0.8l-0.9,0.6
				l0.1,0.4h0.6l0.4,0.4c0.6-0.2,1.2-0.4,1.8-0.4l0.6,0.5c-0.6,0.2-1.3,0.3-1.9,0.5L50,29.1l1.2,0.5c1.2,0,2.3-0.1,3.5-0.1
				c0.6,0.1,1,0.3,0.8,0.9c-1.2,0-2.3-0.1-3.5-0.1l-1.2,0.6L51.5,32z M50.8,17.5l0.9-0.3c0.1-0.6,0.3-1.2,0.6-1.8l-1.2-0.3l-0.6,0.6
				c-0.7,0-1.3,0-2-0.1c-0.4,0.8-0.9,1.4-1.5,2H46L45.2,18l0.4,0.7l1.1,0.4l0.4-0.6l0.6,0.4l0.6-0.3l0.1-0.4l0.7-0.1l0.2-0.7
				l0.6-0.4l0.5,0.7L50.8,17.5z M49.1,18.9l-0.5,0.7l1,0.2l0.5-1.1L49.1,18.9z M53.3,16.5l0.1,0.4l1.2,0.1l-0.1-0.6
				C54.5,16.5,53.3,16.7,53.3,16.5L53.3,16.5z M53,17.6l-1,0.3c-0.5,0.7-1,1.4-1.6,1.9l0.1,0.7c1.3,0.3,2.6,0.3,3.8-0.1
				c0.7,0.2,1.5,0.2,2.3,0.2c-0.4,0.5-1.6,0.4-2,0.3l-0.7,0.3l0.1,0.5l0.6,0.3c1.3,0.1,2.5-0.3,3.5-1.2c1.1-0.1,2.3-0.2,3.5-0.1
				l0.5-0.6l0.3-1.2l-0.4-0.4h-0.6l-0.1,0.5c-0.6-0.2-1.2-0.5-1.6-1v-0.6l-0.3-0.7h-0.8l-0.3,0.4l-0.6,0.2l0.1,0.4l0.6,0.4
				c0,0.4-0.2,0.8-0.2,0.8l0.8,0.1c-0.2,0.6-0.9,0.7-1.7,0.5c-0.6-0.3-1-0.8-1.4-1.3L55,18.1h-0.7C53.8,17.8,53.4,17.6,53,17.6
				L53,17.6z M54,14.8l-0.1-0.7l-0.8-0.3l-0.5,0.1l0.2,0.6l0.4,0.4L54,14.8z M55.9,15.8c0.6-0.2,1.1-0.3,1.7-0.3l0.3-0.4l-0.5-0.5
				l0.5-0.1l0.4-0.5c-1.2-0.2-2.4,0-3.5,0.7l0.6,1L55.9,15.8z M54.8,13.4h3.7c-0.1-0.6-0.5-0.9-1.2-0.9c-0.6,0-1.2,0.1-1.8,0.3
				L54.8,13.4z M59.9,23.5l-0.4,0.4l0.7,0.1l0.3-0.6L59.9,23.5z M63.4,24.7l0.2-0.8l-0.4-0.4l-1.6-0.3l-0.4,0.5
				c0.6,0.4,1.2,0.9,1.7,1.4L63.4,24.7z M69.2,28.2c0.2,0,0.7-0.7,0.7-0.7l1.2-0.1l0.5-0.9c-0.4-0.8-1-1.4-1.8-1.8l0.9-0.4
				c-0.2-0.6-0.6-1.2-1.2-1.7l-0.8,0.1l-0.1,0.6c-0.4,0-0.8-0.1-1.1-0.3l-0.8,0.2l0.2,0.6l0.7,0.7l-0.3,0.8
				c-0.5,0.3-0.9,0.1-1.3-0.4L65.5,25l-0.1,0.6c0.7,0.6,1.4,0.9,2.3,1.1C67.9,27.6,68.4,28.1,69.2,28.2L69.2,28.2z M73.8,26.5
				l0.7-0.5l0.1-0.8l1,0.2l0.6-0.5c0.3-0.6,0.7-1.2,1.2-1.7c-0.9-0.3-1.8-0.6-2.8-0.8c-1.1-0.1-1.7,0.4-2.1,1.3
				c-0.1,1,0.3,1.9,0.3,2.8L73.8,26.5z M90.8,35.9c0.6,0.1,1.2,0.1,1.8-0.1l0.5-0.8l-0.4-0.8c-1-0.2-1.8,0.1-2.4,1L90.8,35.9z
				 M63.5,16L62.8,15l-0.8-0.5c0,0.7,0.3,1.3,0.9,1.7L63.5,16z M63.1,20.1l0.2,0.6l0.7-0.1C64.2,19.8,63.8,19.8,63.1,20.1L63.1,20.1
				z M66.1,19.7c0.4-0.2,0.8-0.3,1.2-0.3l0.4,0.5l0.4,1l0.5-0.3c0.5,0,1-0.1,1.5-0.2c0.1-0.5,0.1-1,0.1-1.5c0.5-1.2-0.1-1.6-1.3-1.2
				l-1-0.7H67c0.8,0.6,1.6,1.3,0.7,1.6l-1-1.1h-0.8c0,0.5,0.1,0.9,0.3,1.4l-0.9-0.6l-0.5-1.1l-1.4-0.5l-0.1,0.9l0.4,0.6
				c0,0,1.2,0.8,1.3,1L66.1,19.7z M66.6,14.8l-0.7-0.5l-1,0.1l0.2,0.6l0.8,0.1L66.6,14.8z M68.6,14.7l0.3-0.5l-0.2-0.7l-0.6-0.4
				l-0.3-0.7c-0.5-0.2-1-0.4-1.4-0.7l-0.6,0.1c-0.4-0.4-0.9-0.6-1.4-0.9c-0.7,0.1-1.5,0.3-2.2,0.4l0.4,0.6l0.6-0.1l0.6,0.3l0.2,0.7
				H63l0.3,0.6l0.6-0.1l0.4,0.4l0.6-0.3c0.6,0.1,1.2,0.1,1.8,0.2l0.9,0.8L68.6,14.7z M69.3,10L69,9.2C68.6,9,68.1,8.9,67.7,9v0.7
				h0.8l0.2,0.6L69.3,10z M72.2,14.1l0.8-0.2l0.2-0.4l-0.9-0.7l-1.3-0.1l-1-0.7l-0.5,0.4c0.4,0.5,0.6,1,0.7,1.6
				C71,14.2,71.6,14.3,72.2,14.1L72.2,14.1z M72,15.5c0.9,0,1.9-0.1,2.8-0.4v-0.6h-2.2L72,15.1V15.5z M74.2,18.2l0.6-0.6l-0.1-0.5
				L74,16.5h-1l-0.6-0.3l-0.9,0.2l-0.1,0.7c0.6,0.4,1.2,0.7,1.8,1.1L74.2,18.2z M71.6,20.6l0.7,0.7h0.8l0.7,0.3l0.6-0.3l0.2-0.8
				L74,20.1l-0.4-0.6c-0.6,0.1-1.2,0.3-1.7,0.6L71.6,20.6z M70,22h0.7l-0.3-0.5L70,22z M77.3,21.7l1.4-0.1l0.7-0.4
				c1.5,1.1,3.2,1,5,0.6l0.4-0.4l0.5,0.4c1.4,0.2,2.4-0.2,3.1-1.2l-0.2-0.9c-0.9-0.3-1.9-0.5-2.8-0.7c-2.2,0.9-4.2,0.8-6.4,0.7
				l-1-0.8c0-0.6-0.2-1.1-0.5-1.6c-0.7,0-1.5,0-2.2,0.1c0.2,0.8,0.5,1.5,0.9,2.2l-0.5,0.9C76.1,21,76.6,21.4,77.3,21.7L77.3,21.7z
				 M76.4,15l-0.5,0.8l1.5,0.2l0.8-0.4c0,0-0.5-0.7-0.7-0.8L76.4,15z M79.1,13.1c0.5,0.1,0.7-0.1,0.6-0.6l0.1-0.6l0.8,0.3
				c0.6-0.3,1.2-0.6,1.9-0.9v-0.8c-0.5-0.2-1.2-0.3-1.7-0.6l-0.3-0.6V9l-0.6-0.4c-0.8-0.1-2-0.8-3.1-1.5c-0.3-0.4-3.3-2.1-3-0.7
				c0.4,0.1,0.9-0.3,1,0.4C74.8,7.1,73.2,7,73.1,7l-0.4,0.2c0.5,0.2,0.8,0.5,0.7,0.9C73,8,72.5,8,72,8.1l0.2,0.7l-0.5,0.3v0.7
				l0.7,0.1v0.7l0.8,0.4c0.8-0.2,1.6-0.3,2.5-0.4l0.5,0.6c-0.6,0.2-1.2,0.3-1.8,0.3l-0.6,0.3l0.9,0.5l0.5,0.8
				c0.9,0.3,1.8,0.4,2.7,0.2l1.1,0.3L79.1,13.1z M78.7,16.7l0.7,0.8l0.9,0.4l1-0.3c0.9,0.3,1.9,0.3,2.7-0.2c0.8,0.3,1.7,0.4,2.6,0.2
				c0.2,0.6-0.1,1.1,1,0.6h0.6l0.8-0.3c0.4-0.2,0.8-0.5,1-0.9l-0.2-0.6l-0.8,0.4L89,15.9l0.9-0.2l0.3-0.8l-0.3-0.7
				c1.1,0.3,2,0.2,2.3-0.8c0.1-0.5,0.2-0.9,0.5-1.5c-0.5-0.2-1.1-0.3-1.7-0.4c-0.4,0.2-0.8,0.5-1.2,0.7l-0.2-0.6l0.8-0.2
				c0-0.4,0.2-0.7,0.7-0.7h0.8l0.4,0.4c0.9,0.3,1.8,0.1,2.5-0.6L93.8,10l1-0.1l0.4,0.5c0.6,0,1.2-0.1,1.8-0.4l-0.4-0.8L96,9h1.9
				l0.4-0.5c1.4-0.6,2.6-1.2,3.9-2l0.9-0.1l0.5-0.3l-0.4-0.6c-1.2,0.5-2.3,0.6-3.6,0.4l0.2-0.5c1.1-0.2,2.2-0.3,3.3-0.2
				c0.7-0.2,1.4-0.4,2.2-0.6l1.2-0.1c0.4-0.5,0.4-0.9,0.1-1.4l-0.9,0.2l-0.8-0.1l-0.2-0.6l-1.1-0.6c-1,0.2-2.1,0.3-3.1,0.6l0.1-0.5
				l-0.9-0.1c-0.4,0.2-0.8,0.1-1-0.3l-0.8-0.1c-0.5-0.3-1-0.3-1-0.3c-0.5,0.5-1.3,0.8-2,0.9c-0.3,0.3-1-0.1-1-0.1
				c-1.2-1.3-2.5-0.9-2.7,0.4h-0.5l-0.6-0.4c-0.4-0.2-0.9-0.3-1.4-0.2l-0.1,0.4c-0.7,0-1.5-0.1-2.2-0.1c-0.3,0.4-1,0.4-1,0.4
				l-0.5,0.7h1.2c0.3,0.3,1.5,0.6,1.5,0.6c0.4-0.1,0.6,0.2,0.7,0.7c-1.7-0.5-3.6-0.7-5.1-1.4c-0.5-0.4-1-0.5-1.6-0.3l-0.1,0.5
				c-0.2,0.8-1.1,0.8-2.1,0.3c-0.6,0.6-1.3,0.8-2,0.7l-0.1,0.4l-1-0.1l-0.1,0.5c0.4,0,0.7,0.1,1.1,0.2l-0.1,0.7L78,6.7
				c0.8,0.7,1.9,1,3,1.1c0.3-0.4,0.6-0.7,0.8-1.1l1-0.1c-0.5,0.3-0.9,0.7-1.2,1.2l0.1,0.7c1.3,0.3,2.4,0.1,3.3-0.7
				c0.8,0.1,1.5,0.1,2.3,0.1c0.5-0.3,0.9-0.6,1.3-1.1l0.1-0.4c0.6,0,1.1-0.1,1.6-0.4l0.9,0.1l-0.6,0.1c-0.6,0.3-1.1,0.7-1.7,1.1
				c0.7-0.1,1.4,0,2.1,0.1l-0.3,0.4c-1.1-0.1-2.2,0.1-3.2,0.3C87,8.4,86,8.5,85.2,8.5v0.6l0.7,0.1l0.5,0.3l0.3,0.6l1.4,0.2
				c-0.5,0.1-1,0.1-1.5,0.1c-1.4-1.2-3.2-1.8-5-1.7l-0.1,0.6c1.4,1.4,3,2.6,5,2.6c-0.6,0.2-0.9,0.6-0.9,1.3l-1.3-0.9
				c-1.2-0.3-2.5-0.1-3.6,0.5c0,0.4,0,0.7,0.1,1.1c0.9,0.2,1.9,0.2,2.9,0.1l-0.9,0.5l0.3,0.6c0.9,0.2,1.8-0.1,2.5-0.8l-0.3,0.7
				l-0.8,0.6l-0.9,0.1c-1.2-0.7-2.5-1-3.8-1c0.6,1,0.6,1.6-0.6,1.7L78.7,16.7z M135.9,33.9c1.1-0.4,2.7,0.3,4.2-0.3
				c1.4-0.5,4.7-1.3,5.2-2.7l-0.2-0.1c-1.2,1-3,0.1-3.7-1.2c0.8-0.1,1.5,0.1,2-0.7c1.7,0.7,0.3,1.3,2.9,0.7
				c-0.2-1.2-1.3-2.8-2.3-3.3c0.1-0.2,0.2-0.3,0.4-0.3c0.7,0.5,0.5,0.6,1.4,0.6c0.2-1.9-0.2-2.3-2-1.6c0.2-0.4,0.5-0.4,0.6-0.7
				c-0.2-0.1-0.4-0.2-0.6-0.3l0.2-0.2h0.9v0.6c4.6,0.2,1.2-1.1,1.2-1.7c0-0.2,3.1-0.3,3.3-0.7c-0.8-0.9-1.2-0.6-1.2-2
				c0.3,0,0.5,0,0.9,0c-0.1-0.7-0.4-1.1-0.5-1.8c-2.4,0-0.8-2.8,0.8,0.5l0.3-0.1v-1.8c0.8-1.3-0.8-1-1.7-1v-0.7
				c0.5,0,0.8,0.1,1.3-0.2c-0.4-0.6-1.6-0.7-2.3-0.7c0.1,0.2,0,0.4-0.1,0.6c-0.8-0.2,0.1-1.9,0.2-2.6h0.6c0-0.8,0.6-0.8,1.1-1
				c-0.3-1.8,2.2-2.1,3.3-2.9l-0.1-0.3c-0.8,0.1-1.7,0-2.5-0.1c2.1-0.5,9.1-2.8,3.1-2.9c-1.4,0-3.1,0.5-4.2,0.8
				c-0.8,0.2-4.1,2.1-4.6,2c0.4-0.6,0.7-1.1,1.4-1.4c0-0.2,0-0.5,0-0.7c2.4-1.2-1.4-1.2-1.9-1.3v1.1c-0.8,0-1.5,0.3-2.3,0.4
				c0.2-1.2,1-0.7,1.8-1.1l-0.1-0.2c-2.5-0.4-5.3,1.1-7.6,0.7c0.7-2,9.1-1.9,11.3-2.2V2.7l-0.6-0.1c-0.5,0.2-2,0-2.5-0.2
				c0.2-0.1,0.3-0.2,0.1-0.4c-1.7,0-5-1.1-6.5,0h-1.8l0.1-0.2c0.5,0.2,0.9,0.1,1.1-0.4h6.3c-0.3-1.9-11.5-1.5-13-0.3
				c0.8,1.1-5.3,0.2-6.5,0.6c-0.8-0.1-1.1,0-1.8,0.3c0.3,0.7,1.1,0.4,1.1,1.4c-4-1.8,0.4,1.9,0.6,1.9c-2.2,0-3.9-1.9-6.2-1.9
				c0,0.4,1.4,1.6,1.7,2.2c-1.3-0.6-2.4-1.7-3.9-1.9c0.2,4.6-0.3,0.1-0.9-0.1c-0.4-0.1-4.9,0.6-4.9,0.9c0.5,0.7,1.9,0.8,2.6,1.5
				l-0.1,0.1c-1.7-0.3-5.6-3-4.6,0.7c-0.8-0.2-1.5-0.3-2.4-0.3c-0.8,0.8-1.9,1.2-2.9,1.6c-0.2,0.4-0.9,0.6-0.8,1.1
				c0.5-0.1,1.7,0,2.2,0c0.9,0-0.4,2.1-0.7,2.2c-0.9,0.5-2-0.2-2.9,0.3c0,0.7-3.2,1.2-3.8,1.5c-0.1,0.1-0.2,0.2-0.2,0.3
				c0.2,1,1.1,0.6,1.6,1.3h1c1.4,0.6,2.1,0.2,3.6,0.2c-0.8,1.6-1.9,0.7-3.5,0.9c0,0.1,0,0.2,0,0.3c-0.1,0.1-0.8-0.2-0.8,0.2
				c0,0.5,1.7,1,2.1,1.1c-0.3,0-0.3,0-0.4,0.2c0.5,0.5,1.6,1.4,2.3,1.1c-0.5-1.1,0.6-0.3,1.2-0.3v-0.2c5-0.4,9.5,1.8,10,7.5h0.5v0.5
				c-0.3,0-0.4,0-0.5,0.2c0.2,0.2,0.2,0.5,0.1,0.7H112v0.4c0.4,0.5,1.6,0.6,2.3,0.5c0-0.2,0-0.3,0.1-0.5h0.8c0.1,1.4,1.5,0.8,1.9,2
				l-0.1,0.2c-1-0.2-2.8-0.8-3.7-0.4c0.2,0.5,0.5,0.6,0.5,1.1c-2.3,0.2,1.6,1.1,2.2,1.1v-0.8c-0.6,0-0.8-0.2-1.3-0.3l0.1-0.2
				c2.1,0,2.7,1,2.6,2.9c-0.8,0.1-1.3,0.3-2.1,0.3v1.1c-2.7-0.4-0.3,1.4-0.2,2.2c-2.3,0.4,1.3,1.5,1.4,1.6c0,2.3-1.2,1.4,1,1.7v0.9
				c-1.4,1.2,7.7,13.7,7.7,2.8c0-0.3,1.2-0.3,1.4-0.3c0-0.8,0.2-0.9,0.8-1.2v-1.1c0.2-0.3,0.9-1.9,1-2.5h1.3c0-0.3,0-0.6,0-0.8h0.7
				c0,0.3,0,0.6,0,0.9C132.1,38.6,135.9,35.9,135.9,33.9C135.9,33.9,135.9,33.9,135.9,33.9L135.9,33.9z M106.3,63.8
				c-0.7-0.2-1.4-0.7-2.1-0.9l-0.4,0.2C104.7,63.7,105.4,65.2,106.3,63.8L106.3,63.8z M112,61.3c-0.8,0.5-2.6,3.9-2.6,5
				c2.2-0.5,2.9,0.4,4.7,1.3c0.5-0.9,0.2-1.6,0.7-2.6l-0.1-0.4c-1-0.2-1.9-1-2.9-1.3c0.4-1.2,0.8-0.9,0.6-2
				C112.2,61.3,112.1,61.2,112,61.3L112,61.3z M144.3,39.1c1-0.2,1.3-0.1,1.6,0.9c-0.7-0.1-1.4-0.1-2.1,0l0.1,0.7
				c0.5-0.1,0.9,0,1.4,0v0.9l0.2,0.4c1.5-0.3,2.7,0.8,3.9,0.6c2-0.4,2.5-2,5-2v-0.9c-0.5-0.6-0.3-0.5-1-0.7c0.1-0.6,0.1-0.8,0.1-1.4
				c-2.2,0.7-4.3,0.6-6.5,1.2c0.1-0.7-0.1-0.8-0.3-1.3l-0.4,0.1V38c-1.1-0.4-2.3-0.3-2.3,1.1C144,39.1,144.2,39.1,144.3,39.1
				L144.3,39.1z M93.6,99.3c-0.9-1.5-8-4.3-9.8-3.3c-2.2,1.3,2.8,1.5,3.7,1.8C89.7,98.4,91,99.6,93.6,99.3L93.6,99.3z M91.7,101.8
				c-0.4-0.7-1.3-1-2.2-0.8c0.5,0.7,0.9,0.5,1.4,1.2C91.3,102.4,91.6,102.2,91.7,101.8L91.7,101.8z M96.7,102.2
				c1.8-0.5,4.5-0.1,6.3-0.8c-0.5-0.1-0.6-0.4-0.4-0.9c-2.8,0.6-4.8-1-7.6-0.5v1.3C95.5,102,95.9,102.3,96.7,102.2L96.7,102.2z
				 M94,173.8c-0.6-0.1-0.2-0.7-0.9-0.7v0.7c-0.1,0-0.7,0.3-0.7,0.5c0,0.4,1,0.6,1.3,0.7c-0.2,0.4-0.2,0.4-0.2,0.9
				c0.4,0,0.7,0.1,1,0.3c-0.1,0.1-0.1,0.3-0.1,0.4c-2.9,0-1.4,2.6-0.9,3.9l-0.4,0.2l0.1,0.3c0.3-0.1,0.5-0.1,0.8,0
				c0,0.3-0.1,0.5-0.5,0.5c0.3,0.3,0.6,0.4,0.8,0.6l-0.2,0.2c0.6,0.9,1.9,1.7,2,2.8c2.2,0.1,4.2,1,6.7,0.9c-0.1-0.7-1.3-0.8-1.9-0.8
				v-0.5c-1.5,0-1.9-4.2-1.8-5.6h1c0-1.5,1.3-2.4,2.3-3.4v-0.4c-2.1-0.2-3.1-3,0.1-2.8c-0.1-1.9,1.9-3.4,1.7-4.1
				c-0.3,0.1-0.5,0.3-0.8,0.3c-0.3-0.5-0.6-1.1-0.5-1.9c0.8,0.4,1.6,0.5,2.5,0.5c0-1,0.2-1.6,0.1-2.8c3-0.4,4.9,0.1,5.9-3.4
				c-0.1,0-0.3,0-0.4-0.1c-0.2-1.1-1.1-1.3-1.3-2.2c1.8,0.6,5.8,1.2,5.8-1.9c0.5-0.7,0.4-2.5,1.5-2.3c-0.1,0.4-0.2,0.5-0.1,0.9
				c1.7-0.9,2-3.8,2.5-5c1.2-2.8,2.2-2.4,4.1-4.5h2.6c0.2-1.6,2.1-3.2,2.6-4.8c0.6-1.9,0.6-4.4,0.4-6.4c2.2-0.5,5.3-5.6,3.6-8
				c-1.1-1.6-6.2-3.4-8.3-3.1c0,0.3,0,0.4,0,0.7c-0.5,0-0.9,0-1.2-0.5c0.2-0.2,0.3-0.3,0.6-0.4l-0.1-0.2c-1.4-0.2-2.4-1.6-4-1.3v1.1
				h-0.9v-0.4c0.2-0.5,0.6-0.6,0.7-1.2c-0.7-0.1-1.2-0.5-2-0.4c0,0.7-0.1,1-0.8,0.9c0-0.3,0-0.6,0-0.9c1.2,0,1-1.1,1-2.1h-0.7
				c0.8-5.7-7.7-2.3-7.7-6.1c-0.9-0.1-2-1-2-1.9c-0.9,0.5-1.5,0.5-1.6-0.6c0.2,0,0.3-0.1,0.5-0.2c-0.2-0.3-0.6-0.4-0.9-0.5l-0.5,0.4
				c-1.5,0.9-2.6,0.2-4.9-0.3v-0.7c-0.7,0-1.2-0.5-2-0.7c0,0.5-1,2.4-1.2,3.3c-1.1-0.9-0.8-3,0.3-3.7l-0.1-0.2
				c-0.8-0.1-1.2,0.2-1.2,0.9c-1.1,0.2-2.3,0.8-3.5,0.8v1.3c-0.4,0.4-0.6,0.4-1,0.4c0,0.9-2,2.4-0.8,2.6c0,1.3,0.7,4.3-1.2,4.5
				l-0.1,0.3c0.1,0.1,0.2,0.3,0.2,0.4c-0.2,0.1-0.4,0.2-0.6,0.4l-0.1,0.4c-0.7,0.1-0.9,0.5-0.9,1.3H87c0.1,0.8-0.2,1.6,0.2,2.3
				c0.4-0.2,0.5-0.2,1-0.2v0.4c-0.3,0.4-0.6,0.4-1,0.4c0,1.9-0.3,1.8,0.4,3.5c0.6,1.4,1.7,2.3,2,3.9c1.3,2.7,4.2,8.9,8,8.9
				c-0.1,2.4-0.2,4.8-0.2,7.2c0.7,1.9-1.3,5-1.4,6.8c-0.2,2.7-0.9,5.2-1.2,7.8c-1.1,1.2-0.4,4.2-0.4,5.8c-1.7,0.1-0.8,1.7,0.2,2.1
				l0.2-2h0.8v0.7c-0.2,0.2-0.3,0.4-0.5,0.6v1.2c-0.6,0.8-0.3,1.4-0.4,2.4c-0.7-0.3-0.5-0.6-0.7-1.3c0,0.2-0.1,0.2-0.3,0.1v0.7
				c0.6,0.4,0.7,0.8,0.7,1.6L94,173.8z M200.7,88.9c-1.3-3.3-3.5-1.2-6.5-2.6c-1.4,0.4-4.4-1.2-5.9-1.5c0,1.1,0.1,1.7,0,2.8
				c-1.9,0.2-2.8-1.4-4.9-0.9c-0.7-2.2-2.7-1-4.1-2.2c-1.8-1.7,0.7-2.1-1.3-3.4c0.5-0.5,0.5-0.5,1.2-0.7c-0.9-1.5-4.4-0.6-5.6,0.2
				c-1.2-1-2.5-1.4-3.7-0.1h-2.1c-0.7,2-4.3,1.7-5.8,0.7c-0.3,0.7-0.4,1.2-0.4,2.1h-1.6v1.8h-1.6c-0.1,1.4-0.3,2.6-0.4,4h-1.3
				c0,0.9-4.5,6.2-5.4,6.3c0,2.2-0.2,1.9-1.3,3.2v0.8c1,0.1,1.3,0.1,2,0.6c-1.7,3.1-1.5,10,2.6,10.7c0,1.8,0.9,2.5,2.6,2.7
				c0.6,3.7,6.7,2.9,9.4,2.7c1.5-0.1,3.5-2.3,5.4-1.9c1.1,0.3,0.8,1.8,1.5,2c1.4,0.4,2.9,0.2,4.3,0.2c0.2,1.9-0.6,3.5-0.6,5.3
				c-0.3,0.5-0.3,0.4-0.7,0.9c2.6,0.9,5.4,7.2,5.2,10c-0.1,3.7-4.1,8.4,0.3,11.2c0,5.4,4.5,9.8,3.7,14.2c0.3,0.1,0.6,0.1,0.8,0.1
				c0,2.7,5.6,0.6,7.2,0.8c0.5-1.3,2.8-1.9,4-3.1c1.7-1.7,3.6-4.1,2.6-6.5c4.7-2.2,1.1-4.9,3.8-8.1c1.2-1.5,3.4-1.7,4.2-3.4
				c0.7-1.4-0.2-4.3-0.1-5.8c-0.6-0.4-1-1-1-1.8c0.5-2.9-0.1-2.9,1.4-5.7c1.1-2,2.1-3.4,3.8-5c3.4-3.2,5.7-5.5,6.3-10.7
				c-2.3-0.2-4.2,1.1-6.7,0.7c-1.3-3.7-5.2-4.8-6.7-8.8C204,96.8,203.4,92.4,200.7,88.9L200.7,88.9z M218.1,141.8
				c0-2.1,1.5-6.5-0.9-7.6c0,3.3-3.7,3.8-4.9,6.1c0.1-0.1-0.4,3.6-0.4,3.6c-0.1,1.5,0.1,2.8,0.1,4.4c2,0,2.6,1.1,4.1-0.8
				C216,147.5,218.1,141.2,218.1,141.8L218.1,141.8z M162,57.3c0.7-0.1,0.2-2.6-1.4-1.3c-0.2-0.2-0.3-0.3-0.5-0.4l-0.5,0.1
				c0,0.4,0,0.9,0.1,1.1c-0.5,0.1-0.8,0.2-1.3,0.1l-0.2,0.1v1.6c0.2,0,0.5,0,0.7,0v0.7c-1.9,0.2-0.2,3.1,1.2,1h1.8
				C161.9,59.2,162,58.4,162,57.3L162,57.3z M162.9,63c0.9,0,1-0.5,2-0.3c0-0.2,0-0.4,0.1-0.6c1.7,0.2,3.1,0,4.6-0.5l0.1-0.2
				c-0.7-1,0.1-0.6,0.3-1.4h0.4v-0.4c-0.4-0.3-0.4-0.6-0.8-0.9l-0.2,0.1c0,0.3-0.1,0.3-0.3,0.6c-0.5-0.2-0.4-0.7-0.4-1.3h-0.6
				c0.2-1.7-1.9-2.6-2.9-3.4c0.2-0.4,0.3-0.6,0.8-0.7c0.3-0.6,0.4-1.1,0.5-1.9h-2c0.3-0.5,0.3-1,0.9-1.3c-0.4-0.4-1.4-0.1-1.9-0.2
				c0,0.7-0.2,1-0.2,1.7c-0.3,0-1.2-0.3-1.3-0.1c-0.2,0.6,0.2,0.8,0.7,0.9c-0.2,0.5-0.8,1.4-0.7,1.8c0.6-0.2,0.8-0.1,1.1,0.3h0.4
				c0-0.2,0-0.3,0.1-0.4l0.2,0.2c0,0.7,0.4,0.9-0.3,1.1c0,0.2,0,0.3,0.2,0.4h1l0.1-0.2c0.6,0.5,0.2,1.1,0.9,1.4l-0.1,0.4
				c0.2,0.6-1.6,0.9-2.1,0.9l-0.1,0.2c0.4,0.1,0.6,0.1,1.1,0.1c0,0.5-0.6,0.9-1,0.9l-0.1,0.2c0,0.2,0.1,0.3,0.2,0.4
				c0.6-0.1,1.7-0.3,2.2,0.2c-0.4,0.4-1.4,0.7-2,0.8c0,0.7-0.1,0.8-0.7,1C162.8,62.8,162.8,63,162.9,63L162.9,63z M161.8,50.5
				c-0.5,0.2-1,0.8-1.1,1.3l0.2,0.1c0.6-0.4,1.1-0.7,1.2-1.5C162,50.4,161.9,50.5,161.8,50.5L161.8,50.5z M314.7,49.5
				c1,0,2.1-0.3,3.1-0.2c-0.1-0.4,0-0.9,0.3-1.1c0.6,0.4,1.3,0.5,1.9,0.8c-0.6,1.6,1.9,0.2,2.6,0.8c0-0.2,0-0.3,0.1-0.4
				c0.4,0.2,0.6,0.3,1,0.2c-0.1-0.2-0.2-0.4-0.2-0.6c-0.2,0-0.4,0-0.6,0c1-2.4,3.3-4.4,5.6-3.4c-0.4,0.6,0.1,0.8,0.1,1.4l0.3,0.1
				c1.4-0.9,2.5-1.6,2.8-3.2c0.6,0,1.2-0.2,1.9-0.2v0.3c-2.1,1.5-3.8,4.5-6,6.5c-1,0.9-1.6,0.8-2.3,1.8c-0.9,1.5-0.3,5.5-1,6.2
				l0.5,0.9v1.8c0.5,0,0.9-0.3,1.4-0.3c0-2.2,1.9-1.8,2.2-3.8c0.2-0.2,0.3-0.5,0.6-0.6h1.5c-0.2-0.7-0.3-3.7,0.9-2.2h0.4L332,54
				c-0.4-0.5-1.2-1.8-0.3-2.2c0-0.2,0-0.3-0.2-0.4c-0.4,0.1-0.3,0.2-0.8,0.2c0.2-3.2,2.1-2.9,3.6-3.8c0.2,0.3,0.2,0.3,0.4,0.6
				c1.5-0.3,1.6-1.5,3.7-0.9c0,0.5-0.1,0.9,0.5,1.1c0-3.8,7.5-4.1,9.3-4.3v-0.7c-0.6-0.4-1-1.3-1-2.1c-0.2,0-2.4-1.1-2.5-1.1
				c1.3-1.1,5.4,0.8,4.1-2.6c1-0.1,1,0.6,1.5,1.3c1-0.3,2.4-0.2,2.4,1c1.2,0.7,2.6,1.4,2.9-0.1c0.2,0,0.4,0,0.6-0.1
				c0-0.6-0.2-1.1,0.2-1.4c0.6,0.5,2.4,0.4,2.4-0.7c0-1-4-1.7-4.6-1.4c0.1,0.1,1.2,1.2,0.2,1.2c0.4,0-1.8-2.4-2.3-2.7
				c-1-0.7-1.7-1.2-3-1.2c0-1.7-3.5-1.8-4.6-2.6c-2.2,0-4.4-0.8-5.8,0.7c1.5,0.7,0.3,1.5-0.7,1.6v-0.8h-1.1v-0.7
				c0.5,0.1,0.8-0.1,1.2-0.3l-0.1-0.2c-0.6-0.2-1.2-0.2-1.8-0.1c0,1.8-4.8,1.1-6,0.6c0,0.4,0,0.8,0,1.3l-0.3,0.1l-0.2-0.1
				c-1.3-2.1-0.9-3.8-3.9-4.2c-2.2-0.3-4.1,1.4-6.6-0.1l0.2-0.2c-0.7-0.4-0.8-0.7-1.6-0.7l-0.1-0.2c0.1-0.2,0.3-0.4,0.6-0.4
				l-0.1-0.2c-1-0.2-2.1-0.2-3.1-0.1c-0.1,0.8-0.6,1.2-1.2,0.9c0.2-0.4,0.5-0.9,0.6-1.2c-1.2,0-5.5-2-5.5-0.1c-0.6,0-1.1,0-1.6,0.1
				c0,1,1.1,0.9,1.1,1.9c-0.8-0.2-1.6-0.4-2.5-0.4v0.3c0.4,0.1,0.7,0.4,0.5,0.9c-0.4-0.1-3.9-1-3.8-0.9c-1.7,0-2.2-0.9-2.4,1.5h-1.1
				c0-0.9-1.4-1.6-1.8-2.4c-0.4-0.7,0.4-2-0.5-3c-0.3-0.3-4.5-0.9-5.3-0.3c0.4,0.4,0.5,0.9,0.5,1.4c-1.9,0.4-4.4,0.1-4.9-1.2
				c-1.3-0.9-4-0.1-5.5-0.1v-0.9l-0.3-0.1c-0.5,0.3-0.8,0.8-1.4,0.3l0.1-0.2c0.8,0,1.7-0.5,1.3-1.2c0,0.1-3,1.2-3.1,1.2l-0.2,0.1
				c0.2,1.5-2.1,1.3-3.3,1.3c1-0.1,5.8-3,6-3.9h1c0.1-0.9,0.6-2.9-1.2-2.9c0-0.3-0.1-0.4,0-0.7c-1.1-0.3-2.3-0.2-3.2,0.2
				c-0.4-0.5-0.6-0.5-1.2-0.4v0.7h-0.6l-0.2-0.2c0.3-0.3,0.5-0.4,0.5-0.9c-0.8,0-1.5-0.2-2.3-0.2c0.2-0.4,0.5-0.6,0.9-0.8v-0.4
				c-3.1-0.3-3.2,0.9-5,1.9c0,0.2,0.1,0.3,0.3,0.3l-0.1,0.3h-2.1c-0.2,1.6-13,1.2-13,4.2c0,1.1,1.5,0.2,0.9,1.5
				c-0.9-0.2-5.2,0-5.6,0.8c-0.5-0.1-1.1,0-1.5,0.3c0.7,1.7,3.9,4.9,0.3,2.1c-1.3-0.5-2.1-0.5-3.4-0.2l0.1,0.2c0.7,0.1,1-0.1,1,0.7
				c-0.5,0-1.9-0.8-1.9,0.3c0,0.8,2.5,0.5,2.4,1.7c-0.6-1-2.3-0.3-3-1.3c-0.4-0.5,0-2.1-0.3-2.9c-0.1,0.1-0.3,0.1-0.4,0.1
				c0,0.6,0.1,1.1,0,1.7h-0.9c0,1.4-1.1,5.5,1.4,5.6c1.5-2,2.4,1.8,2.4,2.4c0.5,0.1,0.8,0.3,1.4,0.4l-0.2,0.2
				c-1.3,0.4-5.4-5.8-5.4,1.1c-1.8,0-1.9,1.6-4.1,0.7l-0.2-0.1c1-1.6,4.2-0.5,4.2-4c-1.5,0.1-1.3-4.8-1.5-6.4h0.7l0-1.4
				c-1.4,0-2.4-0.2-3.9,0.1c0,3.2-2.2,2.9-2,5.9c3.8,0,0.5,4.5,0.5,1.6c-1.7-0.1-4-1.3-5.5-2c-2.2-0.9-3-2.1-3,0.2
				c0.6,0,1,0,1.2,0.7c1.7,0.6,0,1.5-0.7,2.1l-0.2-0.1c0-0.5,0.1-0.8,0-1.3h-0.3c-1.3,0.6-2.1,1-3.8,1v0.6h-0.6
				c-0.2-0.2-0.3-0.3-0.5-0.4c0.1-0.3,0.2-0.6,0.3-0.9l-0.1-0.2c-0.6,0.3-1.2,0.6-1.8,0.9c-1.1,0.1-3.7,0.9-4.5,1.7
				c0.7,1.5-1.2,1.4-1.9,1.1c-0.3-0.4-0.5-0.7-0.4-1.3h1.2v-0.7c-0.9-1-1.7-1.1-3.1-1.1v0.5c0.2,0,0.4,0,0.6,0.2
				c-0.4,2.1,0.3,2.2,0.3,4.1c-1.1-0.1-1.2-0.4-2.6-0.4c0,0.5-1.6,1.3-2.1,1.4c0.2,0.4,0.8,1.2,0.7,1.7c-1.1-0.6-2.3-0.1-3.3-1.2
				c-1.1,0.7-0.4,0.7-0.2,1.6c0.7-0.1,1.2,0.1,1.1,0.7h-1c-0.6,0.8-2.1-1-2.1-1.9h-0.7c0.2-2-0.7-2.8-2.3-3.6l0.1-0.2
				c1.5,0.3,7.4,3.6,8.9,0.8c1.8-3.2-5.6-3.6-6.6-4.8h-0.6c0,0.6-0.3,0.7-0.8,0.4c0.4-0.9-0.2-0.6-0.3-1.4c-0.5,0.2-1.3,0.4-1.6-0.1
				c-0.5,0-0.7,0-1.2-0.1v-0.2h0.7l0.1-0.5c-0.3-0.5-1.4-0.8-1.9-1l-0.2,0.1v0.7c-0.2,0-0.4,0.1-0.6,0.1c0-0.6,0.2-0.6,0.3-1.1h-1.4
				c0,0.6-0.1,0.9,0,1.4l-0.3-0.1c0.1-0.7,0-1.1-0.7-1v1.1h-0.7v-1c0.3,0,0.5,0,0.8,0l0-0.7l-0.3-0.1c-0.6,0.5-1.7,1.3-2.3,0.9
				c0-0.2,0.1-0.3,0.3-0.4c-1.1,0.1-3.1,1-0.8,1.2v0.5c-0.7-0.1-1.4-0.2-2.1-0.3c0,0.6,0.1,0.8-0.3,1.2c0-0.8-1.1-1.5-1.8-1.4
				c0.1,0.9-0.6,3-0.9,1.2c-0.3,0.4-0.3,0.4-0.9,0.4l-0.1,0.4c0.4,0.4,0.6,0.3,0.4,1c-0.4-0.2-0.7-0.3-1.2-0.4
				c0.2-0.3,0.2-0.6,0-0.9c-0.1,0-0.2,0.1-0.3,0.1v0.7c-0.4,0.1-0.6,0-1,0.2c0.2,0.4,0.2,0.2,0.2,0.6c-1,0-1.6,0.5-2.1,1.2
				c1-0.4,2.8-1.4,3.9-0.8l-0.1,0.2c-1.1,0-1.7,0.6-1.8,1.8c-1.2,0-2.1,2.1-2.3,3.1l-0.1-0.2c-0.6,0.3-1.1,0.7-1.7,1l0.1,0.3
				c0.3,0,0.5,0,0.8,0c-0.2,1.2-2.5,2-3.3,2l-0.1,0.4c0.1,0.2,0.1,0.3,0.2,0.4c-3.1,0.7-2.4,2.7-3.8,4.1v0.4
				c0.5-0.1,0.8-0.1,1.1,0.3c-0.4,0.4-0.6,0.9-0.6,1.4c0.3,0,0.5,0,0.8,0c0,0.6-0.4,0.7-0.3,1.3c0.6,0,0.6,0,1.1,0.4l0.4-0.1
				c1.7,0.3,1.8-1.4,3.3-1.7v-0.4c1.1,0.2,2.4,5.1,2.6,6.2h1.5c0.1-1.1,1.3-1.2,2.1-1.2v-0.7h0.8c0.1-0.2,0.1-0.4,0-0.6
				c-0.6,0.1-0.7,0-1-0.2c0.6-1,2.6-3.4,2.5-4.3c-0.4,0-0.7,0-1,0c0-1.2-0.7-1.3-0.6-3.1c1.9-1.3,5.6-7.4,6.6-5.9
				c0.9-0.4,1.3,0,1.2,1.2h-0.6c0,2-1.4,1.1-2.2,2.5c-0.8,1.5-1,2.2-1,4.2c1.9,0.2,3,2.1,5,0.4c1.2-0.4,2-0.2,2.7,0.3h1l0.1,0.2
				c-1.9,2-7.1,0.5-8,2c0.2,0.1,0.4,0.2,0.6,0.3c-0.5,0-0.8,0.2-1.3,0.3c0.3,0.8,2.5,0.5,3.5,1.2c-0.5,0.7-0.9,0.3-0.9,1.2
				c-0.8,0-1.4-0.5-1.4-1.2h-0.4c-0.8,1.2-1.2,2.3-1.4,3.7l0.3,0.2l-0.1,0.2c-0.5,0-2.9-0.6-1.5,0.7l-0.1,0.2l-0.2,0.1
				c-1.2-0.8-5.4,0.8-5.4-0.5h-0.4c-0.5,0.3-1,0.3-1.7,0.3c0,0.3,0,0.4,0,0.7c-0.7,0.2-0.9-0.1-1.1-0.7l-0.2,0.1h-0.4
				c-0.1-0.4,0-0.5,0.1-0.8c0.7,0.1,1.5,0.4,2.2,0.3c0.1-0.6,0.3-1.5,0.2-2.1c-0.6,0.1-1.5,0.7-1.9,0.6c0-0.5,0.3-0.7,0.3-1.2
				c-0.2,0.1-0.4,0.1-0.6,0c0.5-4-3.2,0.9-1.7,1.8c-0.2,0.9-0.2,1.8,0.2,2.7c-2.3-0.2-3.3,1.2-5.1,1.2v0.4l0.4,0.2v0.7
				c-1.1,0-1.5,1.1-2.7,1.1V63c-0.6,0-0.8,0.1-1.2,0.2v0.7c-0.9,0-1.7-0.6-2.3-0.6v0.7c0.2,0.1,0.3,0.1,0.4,0.2l-0.2,0.4l0.1,0.2V65
				c-0.6,0-1.6,0.1-1.9-0.4c-2.4,1.1,0.1,1.4,1.5,2.4v1.2c5.3,5.4-5.9,3-6.1,3.7h-1l-0.1,0.2c1.3,1.7,0,5.5,0.2,7.6
				c1.5-0.2,2.8,0.1,3.7,1.4l0.1-0.3l-0.2-0.1c1.9-0.7,3.7-2.3,5.7-2.4c-1.2-2.6,1-3.9,3.3-4.1c-0.8-3.2,1.6-2,3.4-2
				c0-3.3,3.8,0.1,4.7,0.8c1.3,1.2,4.9,2.6,4.6,4.9c-1.2,0-2.2,0.5-3.6,0.5l0.1,0.3c1.2,0.6,1.3,1.4,2.9,1.1V79
				c1.2-0.2,1-1.4,2.1-1.8c0-0.2,0-0.4,0-0.7h-0.9c0-0.2,0-0.4,0.1-0.6c0.7,0,1.4,0.4,1.9,0.4c-0.2-0.3-0.3-0.7-0.3-1.1
				c-1.5-0.2-2.3-1.8-3.8-2c0.2-1.4-1.3-1-1.3-2.3c-0.3-0.1-0.6-0.1-0.9,0v-0.6c0.5-2.7,2.5,0.4,4,1.4c1,0.8,2.4,1.4,3.3,2.4
				c0.5,0.6-0.8,2.5,1.2,2.9V78h-0.5c-0.1-0.4,0-0.2-0.4-0.2c0.2,0.6,0.6,0.8,0.9,1.2c0.2-0.2,0.3-0.3,0.5-0.6
				c0.1,0.4,0.5,1.4,0.7,1.7c1-0.9,1.3-1.1,2.6-1.2c0-0.3,0-0.6,0-0.8c0.2,0,0.4,0,0.7-0.1c-0.2-0.4-0.5-0.7-0.8-0.7
				c0.1,0.2,0.1,0.4,0,0.7c-0.6,0-1.9-2.1-1.7-2.5c0.5,0.5,1.1,0.6,1.7,0.3c-0.1-0.2-0.2-0.3-0.4-0.3c0.9-1.5,2.2,0.3,2.8,0.7
				l-0.1,0.2c-0.1,0,1,5,1.3,5c0.4,0,0.3-1.2,0.3-1.4h0.2c1.4,0.7,1.5,1.8,2.3,0c0.3-0.2,2.8,0.8,3.3,0.9c0-0.3,0-0.6,0-1
				c0.6,0.1,1.3,0.6,1.8,0.1c0.7,0.4,0,2.9,0,3.6c-1.9,3.6-2.5,1.5-4.8,2.9c0.4,0.2,0.7,0.3,1.1,0.3c0.2,0.6,0.2,1,0.2,1.7
				c1.3,0,0.7,3,2.4,1.2c2.1,3,3.1,6.2,4.8,9.2c1,1.7,2.4,3.2,3.2,4.9c2.4,5,1,1.7,5.2,2.6c0.9-1.1,3-2.2,4.4-2.2
				c0-1.3,1.8-1.4,2.9-1.2c0-0.5,0-0.8,0.3-1.2h1.1c0.1-0.9,0.4-1.1,1.2-1.1c0.1-1,0.5-1.5,1.3-1.2c0-1.6,0-1.6,1.1-2.1
				c-0.1-0.8-1.4-1.9-2.2-2.2c0.1-0.8,0.2-1.2-0.7-1.1c0.1,0.4,0,0.7-0.3,0.9c-0.1-0.6-0.1-0.6-0.5-1.1v-1.1
				c-0.1-0.2-0.2-0.3-0.4-0.4c-0.6,0.8-0.7,0.8-0.8,2c-2.1-0.2-5.4-0.2-1.5-0.8c-0.1-0.5-2.6-0.7-3.1-0.7v-1.1
				c-0.4-0.4-3.7-3.2-1.8-4.1c1.2-0.6,2.5,2.1,3.4,2.7c1.3,0.8,2.2,0.6,3.5,1.1c1.5,0.5,2.7,1.4,4.4,1.8c1.9,0.5,7.6-1.2,7.8,2.2
				c0.7,0.2,1.5,0.8,2.4,0.9c-0.6,0-0.8,0.1-1.3,0.2c0.3,1.9,2.6,1,2.9,1.3c1.3,1.1,0.9,1.6,1.5,4.3c0.3,1.4,2.6,9.2,3.8,9.6
				c0.9,0.3,2.2-1.3,2.7-2.3c0.9-2.2,0.5-4.1,1.6-5.7c1.3-2,5.5-3.8,5.7-6.2c0.9,0.3,2.2,0.2,2.8-0.7h1v-0.7c1,0.1,2.7,3.6,2.7,4.7
				c1.9,0-0.2,3.1,3.1,2.3c-0.1-0.3,0-0.4,0.2-0.7c3.2,0.7,1.2,7.7,1.7,9.5c0.1,0.3,1.4,1.4,1.6,1.9c0.4,0.9,0.4,2.4,0.8,3.1
				c0.6,1,2.4,3.1,3.6,2.5c-0.9-1.7-1.1-3.2-1.4-5.3c-2.2,0-2.8-2.8-3.8-3.9c0.3-1.4,0.5-2.9,1.2-4.1c2.6,1.1,3.4,3.8,4.6,5.9
				c0.8-1.2,2.4-1.9,2.9-2.6c1.7-2.3,1-2.8,1-5.8c-3.9,0-3.4-6.4,0.9-6.4c0,0.6-0.1,1.1-0.1,1.7c-0.5,0.5-1.7,0.9-0.8,1.8h1.7
				c0.1-0.7,0.6-1.6-0.1-1.9V98c2.4,0,5.2-1.3,7.1-2.8c1-0.8,5.8-7,3.7-7.2v-0.9h0.4c-0.4-2.3-2.7-4.2-1.6-6.3h0.6
				c0.7-0.6,0.9-0.7,1.9-0.7c0.1-0.3,0.1-0.5,0-0.7h-1c-0.1-0.2-0.3-0.4-0.4-0.6h-0.8c0,0.4-0.1,0.5-0.2,0.9H288v-1.3
				c-4.4-0.7,2.4-3.4,2.8-3.2l0.1,0.2c-0.4,0.5-1,1.3-1.2,1.9l0.1,0.2c0.2,0,0.3-0.2,0.4-0.3c3-1.5,3.2-0.8,3.4,1.7h0.4
				c1.9,0.1,1.7,2.7,1,4.3c1.9-0.2,4-0.9,3.7-3.2c-1.2,0-3.1-3.8-0.2-4.1c-1.3-5.5,5-1.9,5.5-4.7c1.3-1.8,3.5-3.4,4.5-5.3
				c0.8-1.7,0.6-3.8,1.6-5.5c1.9,1.2,0.4,6.1,0.4,8.1h0.4c0.3-0.2,0.5-0.6,0.6-1c0.5,0.5,0.1,0.8,1,0.9c-0.4-2.8-2-3.1,0.7-4
				c-0.4-2.7-1.4-4.9-1.6-7.5h-0.4v1.6c-0.2-0.1-0.4,0-0.6,0.1c0.1,0.4,0.2,0.9,0.2,1.3h-0.4c-0.1,0-1.6-2.5-2.2-3.1h-0.6V58h-0.9
				c-0.1-0.5-0.1-0.6-0.5-1.2l-0.3,0.1c0.1,0.3,0,0.6,0,0.9c-0.2,0-0.3,0-0.5-0.1c0.2-0.5,0.2-0.9-0.2-1.3c-0.4,0.4-0.6,0.3-1.1,0.2
				c0.1-0.8,1.9-2.1,2.7-2.1C306.8,50.6,312.2,49.5,314.7,49.5L314.7,49.5z M184.9,13.6c0,0,0.1,0,0.1,0.1c-0.3,0.7-2.6,0.1-3.3,1.3
				c0.7-0.1,2.8-0.7,3.1-0.3c-3.2,2.1-2.5-0.2-0.3,2.9l0.2-0.1c0.1-0.6,1.1-2.1,1.8-2.1v-1.1c0.3,0.1,0.6,0,0.8-0.3
				c-0.2-0.4-0.1-0.7-0.1-1.1h1.5c0,0.3-0.1,0.6-0.1,1c1.6,0,0.4,1,0.4,1.8c0.7-0.5,1.7-1,1.7,0.2h0.6c0.2-0.2,0.3-0.2,0.4-0.6
				c0.5,0,1.1,0,1.6-0.1l0.1-0.2c-0.4-0.6-0.7-0.4-1.3-0.4c0-0.3,0-0.5,0-0.8h-1.3c0-2.1-2.6-1.7-3.6-2.3v-0.7
				c-0.2,0.1-0.5,0.2-0.8,0c0.1-0.3,0.3-0.6,0.4-0.9l-1.8-0.3c-1.1,0.3,0.1,2-0.8,2c-0.6,0-0.5-1.2-0.6-1.7L183,10
				c-0.7,0.4-0.7,0.8-1.6,0.8v-0.4c0.2-0.2,0.2-0.3,0.5-0.4l-0.1-0.2c-0.4,0.1-0.5,0.2-0.7,0.5c-0.7-0.1-1.5,0-2.3,0.2
				c0.1,0.9,0.6,0.8,1.3,0.9c0,0.4,0.1,1.5-0.1,1.8c-0.6-0.3-0.5-0.9-1.2-1c0.4,0.8,0.3,1.4,1.4,1.4c0-0.2,0-0.4,0-0.7
				c1.6,0.1,1,0.5,2.6,0c-0.1-0.2-0.1-0.4-0.1-0.6l0.4-0.1c0.2,0.4,0.2,0.2,0.3,0.8h0.8l0.4-0.3l0.2,0.2
				C184.9,13.3,184.9,13.4,184.9,13.6L184.9,13.6z M187,9.4c0.4,0.9,2.2-0.3,2.6,0.7h-1.6v0.5c2.6,1.1,5.6,0.8,7.4-0.9
				c-0.5-0.5-1.3-0.5-1.9-0.3c-0.1-0.5-0.3-0.5-0.5-0.9c-0.6,0.2-0.7,0.9-1.5,0.7l0.4-0.5c0-0.1,0-0.2-0.1-0.3
				c-0.5,0.2-0.8,0.3-1.4,0.2c-0.1,0.5,0,0.8-0.3,1.2l-0.2-0.1C190.1,7.8,186.6,8.2,187,9.4L187,9.4z M217.1,7.5
				c-0.8,0-0.9,0.2-1.7,0c-0.3,0.6-0.9,0.7-1.7,0.3c0.1,1.2,2,0.4,2.9,0.4l0.1,0.3c-0.2,0.3-0.4,0.3-0.7,0.2
				c0.7,1.4,1.4,1.6,1.9-0.1c1-0.1,1.6,0.1,1.8-1c-0.2-0.1-0.4-0.1-0.6-0.1V6.9C218.1,6.8,218.1,7.5,217.1,7.5L217.1,7.5z M221.3,9
				c0.9-1,2.7-1.3,4-1c-0.2-1.7,1.1-0.3,2-0.4c0-0.3,0-0.5,0-0.8c-0.5,0-0.9,0.1-1.3,0c0.2-0.3,0.5-0.5,0.7-0.8l-0.1-0.2
				c-0.9,0-1.6,0.1-1.6,1.1c-1.1,0-1.8-0.2-1.6,1.1c-1,0.1-1.6,0.1-2.4,0.8L221.3,9z M224.3,8.9v0.7h0.9c0.2-0.2,0.2-0.3,0.4-0.6
				c0,0.8,0.3,0.6,0.8,0.6c0-0.3,0-0.4,0-0.7h0.9c0-0.2,0-0.3-0.1-0.4c-1.3-0.1-1.9,0.4-3,0.6V8.9z M227.9,9.2
				c-0.3,0.1-0.5,0.2-0.8,0.2c0.1,0.8,0.6,0.3,1.2,0.2c0-0.2,0-0.3-0.2-0.4C228.1,9.1,228,9.2,227.9,9.2L227.9,9.2z M228.3,7.2
				c0,0.7-0.4,0.5-0.7,1c0.9,0.3,1.9,0.3,2.9,0.1c-0.4-0.5-0.6-1-0.6-1.6l-0.3-0.1c-0.4,0.2-0.6,0.5-1,0.7L228.3,7.2z M230.9,7.2
				c1.6,1.6,1.7,0.2,3.3-0.2l-0.1-0.2C232.9,6.4,231.8,7.5,230.9,7.2L230.9,7.2z M238.4,24.8c0.5,0,1.1-0.1,1.6-0.3
				c-0.2-1.2-1.3-0.4-1.8,0.2C238.2,24.7,238.3,24.8,238.4,24.8L238.4,24.8z M222.6,24.3c-0.2-0.1-0.5-0.1-0.7,0V25
				c-0.3-0.1-0.6,0-0.9,0.2c0.1,0.6-0.1,0.7-0.2,1.3c-1,0-1,0.7-1,1.7l0.5,0.1c0-0.2,0.1-0.3,0.3-0.3c0.2,0.2,0.3,0.2,0.4,0.5
				c0.2-0.1,0.3-0.2,0.2-0.4c0.4,0.2,0.8,0.5,1,0.8l-0.4,0.5c0,0.1,0,0.2,0.1,0.3c1.2,0.1,2.5,0.2,3.7,0.2v-0.5
				c-0.2-0.3-0.3-0.3-0.3-0.8c-4.2-1,1.6-5.4,1.8-6.8c0.8,0,2.8-0.8,2.7-1.8c2.5-0.2,5.4-2.3,7.6-2.3c0.4-1.3-8.2,0.2-8.9,1.5H227
				c-0.7,0.6-1.5,0.6-1.5,1.7c-0.4-0.1-0.8-0.1-1.2,0c0.1,0.3-0.3,1.3-0.3,1.8c-0.7,0.1-2.1,0-1.8,1.1c0.4-0.1,0.5-0.2,0.8-0.2
				c-0.2,0.5-0.1,0.3,0.1,0.7C223,24.2,222.7,24.3,222.6,24.3L222.6,24.3z M218.5,32.3c-0.4-0.1-0.5-0.1-0.5-0.6h-1.3
				c0,0.5,0,1,0.1,1.6C217.4,33.3,218.4,33,218.5,32.3L218.5,32.3z M259.5,6.3c-0.4,0-0.4,0.1-0.8,0l-0.2,0.2V7
				C259.4,7.1,260.3,6.3,259.5,6.3L259.5,6.3z M261.6,9.9c-0.7,0-1.2-0.4-1.9-0.3c0,0.3,0,0.4,0,0.7c0.7,0.1,2.6,1.1,2.1-0.4
				C261.7,9.9,261.7,9.9,261.6,9.9L261.6,9.9z M262,9.4c0.7,0.4,2.7-0.5,3.5-0.6c0.1-0.8,0.3-0.9,0.8-1.3c-0.1,0-0.1-0.1-0.2-0.1
				c0,0,0,0,0-0.1h-1.4c0-1.7-2.3-0.1-3.2-0.1c0,1.2-0.8,0.6-1.3,1.3C260.4,8.7,261.7,9.2,262,9.4L262,9.4z M265.2,9.2
				c-0.7,0.1-2.8,0.8-3,1.6c0.7,0.2,0.6,0.4,0.7,1.1c0.8-0.2,2.2-0.2,2.6,0.6c1.5,0,2.4,0.4,3-0.9c-0.2,0-0.4,0-0.5-0.1
				c0.2-2.6,0.1-1.6-1.9-1.6c0-0.2,0.2-0.3,0.3-0.4l-0.1-0.3C265.9,9.2,265.6,9.2,265.2,9.2L265.2,9.2z M268.5,14.7
				c1.3,0,5.1-1.3,5.4-2.2H273c0-1.7-1.4-0.4-1.9-0.7c0.3-0.3,0.4-0.3,0.4-0.6c-1.4-0.3-3.4,1.6-3.4,3.2
				C268.2,14.4,268.4,14.7,268.5,14.7L268.5,14.7z M264,16.7c0.4-0.1,0.8,0,1.1,0c-0.1-1.2-0.4-0.4-1.1-0.3V16.7z M276.2,14.1
				c-0.3-0.6-1.2-0.7-1.8-0.4l0.1,0.2c0.7,0.1,1,0.4,1.7,0.4C276.2,14.2,276.2,14.1,276.2,14.1L276.2,14.1z M304.1,22.2
				c0.2,0.5,0.4,0.8,0.4,1.3h0.9c-0.3-0.4-0.7-0.8-1.1-1.3H304.1z M304.7,19.8c-0.1-0.2-0.1-0.4,0-0.7
				C303.5,19,304.1,20.3,304.7,19.8L304.7,19.8z M305.8,20.3c0.5,0.7,1.5,1.4,2.3,1.4c0-0.4,0.1-0.4,0.2-0.8c1.2,0.8,3.5-0.2,5-0.1
				c0-0.7,0.4-0.9,0.5-1.5c-1-0.2-2.3-0.9-2.3,0.9c-0.2,0-0.4,0-0.6,0c0.1-0.5,0.3-1.1,0.3-1.5c-0.4,0-0.8-0.1-1.3,0v0.6
				c-1.6-0.1-1.7-0.8-3.5-0.8c0.1,0.7-0.3,1.2-0.4,1.9L305.8,20.3z M309.7,22.8c0.2,0,0.3-0.1,0.3-0.3c-0.4-0.1-0.8-0.3-1.3-0.3
				C308.7,22.8,309.1,22.8,309.7,22.8L309.7,22.8z M308.7,24.2c1.3,0.2,2.4,0.1,3.6,0.4l0.1-0.4c-1-1.3-2.3-0.9-3.5,0L308.7,24.2z
				 M314.9,20.6c1.7,0.7,2.8,0.4,4.5,0.4c0-0.2,0-0.5,0-0.7c-0.8,0-1.5,0-2.2,0v-0.6c-0.9,0-1.5,0.7-2-0.4l-0.2,0.1v0.9
				C315,20.5,314.9,20.6,314.9,20.6L314.9,20.6z M347.7,29.1c1.2,0.3,2.5-0.3,3.7-0.3v-0.3c-0.6-1-3.9-1.1-3.9,0.3
				C347.6,28.9,347.6,29.1,347.7,29.1L347.7,29.1z M357,42.7c0.9,0.2,2.1,0.6,3,0.4v-0.4c-1.1-0.2-1.9-0.7-3-0.4
				C357,42.4,356.9,42.7,357,42.7L357,42.7z M332.8,50.5c0.4,0,0.7-0.5,0.7-0.8c-0.7-0.3-1.2,0-1.4,0.8
				C332.3,50.5,332.5,50.5,332.8,50.5L332.8,50.5z M335.5,56.5c-0.2-0.6-0.1-1-0.7-1.4c0,0.6,0.1,1.1,0.2,1.7h0.6
				C335.6,56.7,335.5,56.6,335.5,56.5L335.5,56.5z M336.9,56.3c-0.4-0.5-0.6-0.4-0.6,0.3h0.6C336.9,56.5,337,56.4,336.9,56.3
				L336.9,56.3z M324.4,62.1c-0.1,0.5-0.4,0.9-0.6,1.3c0.5-0.2,0.8-0.7,0.9-1.3H324.4L324.4,62.1z M319.2,68.1
				c-0.4,0.1-0.7,0.4-1,0.6C318.8,69.1,319,68.7,319.2,68.1L319.2,68.1z M317.3,69.1c-3.1,0.6-3.4,2.2-6.9,0.1
				c-0.1,1-0.8,2.4-0.8,3.2c-0.3,0-0.3,0.1-0.5-0.3c-0.3,0.5-1.2,2.9,0.3,2.2v0.6h-0.8c-0.2,2.2-0.2,2.9-1.6,4.6c0-0.3,0-0.5,0-0.9
				c-0.2,0.2-0.2,0.3-0.3,0.8H306v0.9l-0.2,0.1c-0.3-0.3-0.3-0.2-0.3-0.8l-0.2-0.1c-0.2,0.4-0.2,0.5-0.2,0.9
				c-0.2,0.1-0.4,0.1-0.6,0.1v1.3H304c-0.3-0.2-0.3-0.4-0.7-0.6c-0.8,1.4-3.1-0.5-3.1,1.9h-1c-0.1,0.2-0.1,0.5,0,0.7
				c-0.8,0-1.1,0.5-1.2,1.2c0.4,0,1,0,1.2,0c0,1.1-1.2,1.5,0.4,2c0-1.4,0.7-1.5,0.7-2.9c-0.2,0-0.5,0-0.7,0c0.4-1.2,3-1.1,4.1-1.4
				c-0.7,0.5-1.8,0.7-2.7,0.7V85c1-0.3,2-0.9,2.6-1.6c0.5,1.2,0.8,0.1,1.7,0.1c0.1-0.4,0-0.5-0.1-0.9l0.2-0.1l2.4,0
				c0.9-0.9,4.8-8.5,1.2-9.2V73c1.4-0.2,1.9,0.4,3.2,0.4c0.1-0.3,0.1-0.6,0-0.9C313.3,72.4,317.3,70.6,317.3,69.1L317.3,69.1z
				 M290.6,94c0-0.1,0-0.2,0.1-0.3c-1.6,0-2.2,2.1-1.8,3.6h0.6C289.4,95.9,290.6,95.3,290.6,94L290.6,94z M289.5,101H289
				c0,1.3-1.4,3.5,0.3,3.9c-0.3,0.7,0.2,1,0.8,0.9C290.4,104.8,292.1,101,289.5,101L289.5,101z M288.7,107.5
				c-0.8,1.7-2.8,3.2-3.2,4.5c1.1,0,1-1.2,2.2-1.2C287.7,109.5,288.7,109,288.7,107.5L288.7,107.5z M290.7,106.5
				c0.8,0.6,2.6,1.9,2.7,3.1h0.9c0-1.3-1.1-2.6-1.5-3.6C292,106,291.6,106.5,290.7,106.5L290.7,106.5z M289.2,106.7
				c-0.1,0.8,0.2,0.9,0.9,0.9c0,0.9-0.1,2.7,1.2,2.5c-0.6,1.5,0.5,0.8,1.2,0.8C291.9,109.7,290.8,107,289.2,106.7L289.2,106.7z
				 M292.3,111.8c-1.1,0.1-1.8,0.7-1.7,2.1l0.2,0.2c0.4-1,0.3-1.2,1.7-1.1c0.2,1.2,0.9,1.7,1.8,2.2l0.2-0.1
				c-0.1-0.6-0.3-0.8-0.4-1.4c0.4-0.1,0.5,0,0.9,0l0.2-0.2L295,113c0-0.4,0.3-2.4-0.5-2.4C293.5,110.6,293.3,112.6,292.3,111.8
				L292.3,111.8z M265.2,115.7c-0.6,0-0.9-0.6-1.5-0.6c0.2,1.4,3,4.1,3.7,5.2c1.3,2,4.5,4.6,5.3,6.8c2.1-0.7,1.1-2.3,2.9-2.8
				c-0.1-0.6-0.3-0.7-0.8-0.8c0-0.2,0-0.3,0.2-0.4c-0.4-0.5-1.2-0.7-1.4,0.1h-0.6c-0.1-0.3-0.1-0.6,0-0.9c-1-0.6-1.8-0.2-1.6-2
				c-1.2,0-1.1-0.5-1.5-1.5c-1.2,0.4-3.7-2.3-4-3.3C265.7,115.4,265.4,115.7,265.2,115.7L265.2,115.7z M264.8,118.2
				c0-0.1,0-0.1-0.1-0.2l-0.2-0.2c0,0.5,0,0.9,0.6,0.9l0.1-0.2C265,118.4,264.8,118.4,264.8,118.2L264.8,118.2z M265.6,119.7
				c0.3,0.5,0.8,0.7,1,1.2c0-0.7-0.2-1.2-0.8-1.4c-0.1,0.1-0.1,0.3-0.1,0.4L265.6,119.7z M267.3,122.1c0.1,0.7,1.2,2.6,1.9,2.7v-0.9
				c-1-0.5-1.1-1.9-1.8-2.2l-0.1,0.2C267.3,122.1,267.3,122,267.3,122.1L267.3,122.1z M278.3,118.8c-0.1,0-0.3,0-0.4,0.1
				c0,4.6,2,6.4,6.6,6.4v-0.4c0.5-0.9,0.8-1.9,1.1-3.2h0.6v-1.2c0.6,0,1,0.1,1.3-0.5c-0.4-0.2-0.6-0.2-1-0.3c-0.3-0.8-0.2-2.1-0.3-3
				c0.3,0,0.5,0,0.8,0c0-0.7,0.4-0.9,1-1.1c0,0.1-2.5-2-2.5-2c-0.5,1.4-3.9,4.5-5.3,4.5v1.2c-0.6-0.1-1.2,0.3-1.6-0.3L278.3,118.8z
				 M270.9,126.4c-0.1,0.1-0.2,0.3-0.2,0.4l0.2,0.2C270.9,126.8,270.9,126.6,270.9,126.4L270.9,126.4z M274.1,128v0.3h0.6v0.5
				c2.1,0,4.2,1.2,6.4,1.3c0-0.2,0-0.3,0.1-0.4c1,0.2,2.3,0.8,3.2,0.7c-0.3-0.7-0.7-0.5-1-1.1h-1.6c0.1-0.8,0.6-0.4,1.2-0.7
				C280,128,277.2,127.9,274.1,128L274.1,128z M285.5,129.9c-0.8,0.1,1.9,0.2,2.4,0.2c-0.2,0-0.2-0.1-0.1-0.3
				C286.9,129.8,286.3,129.7,285.5,129.9L285.5,129.9z M288.1,130.8c-0.2,0.1-0.3,0.1-0.4,0.2c0.5,0.9,0.9,0.9,1.9,0.9l-0.1-0.2
				c-0.4-0.1-0.8-0.4-1.1-0.7C288.4,130.9,288.2,130.8,288.1,130.8L288.1,130.8z M288.5,130.1c0.9,1,3.8,0.2,4.8-0.3l-0.1-0.2
				c-1.7,0.4-3.2,0.2-4.9,0.4L288.5,130.1z M291.8,132.4c-0.2,0.1-0.3,0.1-0.4,0.2c0,0.1,0.1,0.2,0.1,0.3h0.6v-0.4l-0.1-0.2
				C291.9,132.3,291.8,132.3,291.8,132.4L291.8,132.4z M292.2,131.4c0,1,3.5-0.9,3.9-1.3c-0.8-0.4-4.2,0.2-3.8,1.6L292.2,131.4z
				 M293.3,119.5c-0.1,0,0,0.2-0.1,0.2c-1-0.2-5.4-0.4-5.2,1.5c0.5-0.3,1.4-0.7,1.8-1.1c1.1,0.3,3.6,1,3.9-0.7
				C293.6,119.4,293.5,119.4,293.3,119.5L293.3,119.5z M287.2,124.2c0,0.5,0.7,0.6,1,0.6c0,1-0.2,1.2,0.1,2.2c0.7-0.5,0.7-2.2,0.6-3
				h0.6v0.5l-0.1,0.2l0.1,0.2c0.4,0.1,0.7,0.2,1,0.2c-0.4,1.1-0.1,1.7,1,1.7c0.2-1.2-0.9-2.7-1.5-3.6l0.1-0.4c0.3,0,2.1-0.2,2.1-0.5
				C292.2,120.5,287.2,122.2,287.2,124.2L287.2,124.2z M297.1,118.3c-0.9,1.3-1.3,1.9-1.3,3.7c0.4,0.1,0.5,0.1,0.9,0
				c0.1-0.4,0.1-0.8,0-1.2c0.3,0,0.7-0.1,1,0c0.1-0.6-0.3-0.8-0.3-1.3c-0.2-0.1-0.4-0.1-0.6,0C296.9,119.1,297.1,118.7,297.1,118.3
				L297.1,118.3z M295.8,124.3c-0.3-0.1-0.6-0.1-0.8-0.2l-0.1,0.4c0.3,0.3,0.5,0.5,1,0.4v-0.4C295.8,124.5,295.8,124.4,295.8,124.3
				L295.8,124.3z M296.6,124.2c-0.1,0.2-0.1,0.3,0.1,0.4c1-0.1,1.9,0.3,2.8,0.3c0-0.3-0.1-0.4,0-0.7c-0.8-0.1-2.5-0.8-2.8,0.1V124.2
				z M298.5,122.9c0,0.2,0,0.4,0.1,0.6c0.3,0,0.4,0,0.7,0v-0.7h-0.6v0.3L298.5,122.9z M299.5,121.5c0.6-0.6-0.2-1.4-0.8-0.3
				C299,121.5,299.2,121.6,299.5,121.5L299.5,121.5z M299.8,121.9c-0.3,0-0.5,0-0.7,0.2l0.1,0.2c1.4,0.3,2.1,1.5,3.7,0.7
				c-0.5-0.9-1.9-3-3.2-0.8L299.8,121.9z M304.2,121.8c0.1,0.5,0.1,0.6,0.1,1.2h1v-0.3h-0.4c0-0.3,0-0.6,0-0.9
				C304.6,121.8,304.5,121.8,304.2,121.8L304.2,121.8z M293.3,122.7c-0.2-0.1-0.3,0-0.3,0.2c0.4,0.2,1,0.3,1.5,0.2
				c-0.2,0-0.3-0.1-0.1-0.5C294,122.6,293.7,122.6,293.3,122.7L293.3,122.7z M301.7,125c0.7-0.4,2.7,0.4,3.4,0.9
				c1.7,1.1,1.5,2.9,1.5,3c0.6,0.8-0.1,0.6,2,1c0.8,0.2,3.3,2.1,3.3-0.1c2.1,0,1.2-0.2,3.1,0.4c1.4,0.5,2.3,2.4,4.2,2.2
				c-0.3-1.2-1.3-2-2.7-2v-1.4c-0.4,0-0.6,0-0.9,0V128c0.3,0,0.5,0,0.8,0v-0.4c-0.2-0.1-0.4-0.3-0.6-0.5h-1c-1.7-2.1-4.1-3.7-7-3.9
				c-1.4-0.1-2.2,0.9-2.9,1c-1.7,0.2-2.1-0.8-4-0.4v0.4c0.5,0.2,0.4,0.4,0.4,0.9h0.3C301.7,125.2,301.6,125.1,301.7,125L301.7,125z
				 M303.1,126.8c-0.3,0.2-0.6,0.8-0.6,1.2c0,0,1.8-0.3,0.8-1.4C303.3,126.7,303.2,126.8,303.1,126.8L303.1,126.8z M294.3,129
				c0,0.2,0,0.3,0.1,0.4c0.4-0.1,0.7,0,1-0.2l-0.2-0.2H294.3z M299.7,129.7c0,0.1,0,0.1,0.1,0.2h0.6c0.5-0.4,0.3-0.8,0.1-1.3
				c-0.3,0.1-0.5,0.2-0.7,0.4C299.7,129.3,299.7,129.5,299.7,129.7L299.7,129.7z M317.3,126.9c0.1,0.2,0.1,0.4,0,0.6
				c1.5,0,3.9,0.4,3.6-2.1c-1.3,0.2-1.5,1.1-3.5,1.1C317.4,126.6,317.3,126.9,317.3,126.9L317.3,126.9z M323.3,127.6
				c0,0.5,1,1,1.3,1c-0.2-0.7-1-1.1-1-1.8c-0.1,0-0.3,0-0.4,0.1C323.3,127.2,323.3,127.3,323.3,127.6L323.3,127.6z M328.4,131.3
				c0.3,0.5,0.6,0.3,1,0.2c-0.2-0.5-0.5-0.6-1-0.6C328.4,131,328.4,131.3,328.4,131.3L328.4,131.3z M310.8,133.5
				c-1.6,2.8,0.4,6.4-2.9,5.8c-3.8-0.6-3-3.1-2.2-5.3c-1.9-0.1-3.4-1.2-5.2-1.2v0.4c0.2,0.4,0.7,0.3,0.9,0.7c-2.9,1.1-2.3,2.6-5,2.6
				c0-0.2-0.1-0.3-0.1-0.5c-1.8,0.1-2.4,2.1-3.8,2.1v0.4c0.2,0.4,0.5,0.5,0.4,1.1H292v-0.7c-1.7,0.5-1.2,2.4-2.8,3.6
				c-1.8,1.4-4.7-0.1-5.6,2.8c-0.5-0.1-0.8-0.2-1-0.7c-0.6,1.8-0.8,2.8,0.3,4.6l-0.1,0.2c-0.4-0.2-0.7-0.4-1.1-0.3
				c1.4,2.2,2.9,5.8,2.9,8.7c-0.5,0-0.9,0.2-1.3,0.7l0.1,0.2c0.9,0,1.6,1.3,2.7,1.3c1,0,1.3-1,1.9-1.1c2.9-0.3,3.4-0.9,6-2.1
				c1.5-0.7,8.8-2.5,8.8,0.9c1.2,0,2.1,3.9,3.4-0.2c1,0.4,0,1.1,0.1,2c0.4-0.3,0.3-0.4,0.9-0.3c0,0.6-0.2,1.2-0.2,1.8
				c2.2-0.5,0.6,1.2,1.7,1.9c0.7,0.5,4.4,2.9,4.4,0.5c3.2,3.9,8.7-4.5,8.7-7.9c1.3-2,0.4-3.6,0.4-5.5l-0.1-0.1
				c-0.2-1.9-1.6-3-2.1-4.7c-1.3-0.1-1.9-0.2-1.9-1.7c-2.4-0.5-2.6-3.4-3.7-5.2c-0.3-0.5-2.9-5.4-3.3-5.5l-0.1,0.2
				C310.9,133.2,310.8,133.3,310.8,133.5L310.8,133.5z M299,132.9c-1.3,0.2,0.7,0.5,1.2,0.5V133l-0.4-0.1c-0.3,0.1-0.6,0.1-0.9,0.1
				L299,132.9z M332.8,142.8c0.8,1.3,1.5,2.4,3.2,2.6c-0.1-0.6-2.3-2.5-2.8-2.6L332.8,142.8z M343.2,162.5c0,0.7,0.4,1.2,0.3,2.1
				h-1.1c0,0.4,0,0.7,0,1.1h1.4v1.8h0.9c0.1-1,1.1-1.3,1.1-2.5h0.7c0.2-2,1.1-2.2-1.6-1.7l-0.1-0.5c0.2-0.6-0.1-0.9-0.6-1.1
				c-0.1,0.2-0.2,0.4-0.3,0.7c-0.7-0.4-0.7-3.1-2-3.1c-0.7,0,1.1,2.2,1.3,2.6C343.2,162.1,343.2,162.3,343.2,162.5L343.2,162.5z
				 M336.5,174.9c-0.2,0.1-0.3,0.2-0.4,0.4h0.8c0-0.2,0-0.3-0.1-0.5C336.9,174.9,336.6,174.8,336.5,174.9L336.5,174.9z M337.8,174.3
				c0.4,0,0.6-0.6,1.3-0.6c0-1.8,1.5-2.9,2.9-3.2c-0.2-0.5,0.8-2.3,1-3.2c-1.1,0-1.1-0.8-2.2-0.7v1.1c-1,1.3-3.4,4.6-5.4,4.9
				C335.4,173.6,336.6,174.5,337.8,174.3L337.8,174.3z M312.7,165.2c-0.5,0.3-0.3,0.5,0,1l0.2-0.1v-0.9
				C312.8,165.3,312.8,165.2,312.7,165.2L312.7,165.2z M316.5,165.5c0,0.7,0.4,0.5,0.5,1.1h0.4C317.4,165.7,317.1,165.5,316.5,165.5
				L316.5,165.5z M313.3,167.1c0.4,1.4,1.4,2.7,2.5,3.2c0.1-0.3,0.1-0.5,0-0.8h0.9c0-1.1,0.3-1.3,0.3-2.4c-0.9,0.2-3.4-0.7-3.6-0.3
				C313.4,166.9,313.3,167.1,313.3,167.1L313.3,167.1z M248.7,110.7c-0.9,1.2-0.4,3.8,1.4,3.7c0-1.6-1-2.3-1.1-3.6L248.7,110.7z
				 M90.2,25.3l0.7-0.6l1.3-0.3l-1.3-0.9c-1.1-0.1-2.2-0.1-3.4-0.1c0.1,0.6,0.3,1.2,0.5,1.8L90.2,25.3z M84.7,44.8
				c0.6,0,1.1-0.3,1.4-0.9L86,43.4c-0.6,0.3-1.2,0.7-1.8,1C84.4,44.6,84.5,44.8,84.7,44.8L84.7,44.8z M87.4,44.6l0.8-0.4l0.8,0.1
				c0.1,0.4,0.1,0.8,0.1,1.2l-0.4,0.2h-1L87.4,44.6z"/>
			<path id="Stroke-3" class="st2" d="M15.3,51.6v-1c-0.7,0.5-1.4,1-2.2,1.4l0.5,1.1C14.2,52.8,14.8,52.3,15.3,51.6z M19.6,47
				c-0.1-0.8,0.6-0.8,1.6-0.6c1.1,0.9,2.3,1.5,3.6,1.8l1-0.3l0.9,0.4h0.8c0.6,0.6,1.4,1.1,2.2,1.4l0.7,0.8c0.5,0.3,1,0.3,1.5,0.1
				l0.8,0.5l0.5,0.8l1.2,0.3L34.2,53l1.2,0.5l-0.2,0.7c0.5,0.2,1,0.3,1.5,0.4l0.1,0.8l0.6,0.8c0.1,0.6,0.2,1.2,0.5,1.8l0.9,0.1
				l0.3,1.1l1,1l0.3,0.7c0.9,0.5,1.8,0.9,2.8,1.2l0.2,0.6c0.6,0.4,1.2,0.9,1.8,1.3c0.3,0.8,0.5,1.6,0.4,2.4c-0.4-0.5-0.9-1-1.3-1.6
				L44,64.3c-0.4-0.3-0.9-0.6-1.4-0.8l-0.1-0.9h-0.7c-0.5-0.4-1-0.7-1.6-0.8l-0.6,0.1l0.5,0.7c0.9,0.7,1.9,1.4,2.8,2.1
				c0.4,0.8,0.7,1.6,1,2.4c-0.1,1.4-0.2,2.7-0.2,4.1l-0.5,0.4v1.1l0.6,1.1l-0.2,1.1l0.2,0.8l0.4,0.7l-0.1,1.1
				c0.3,0.6,0.8,1.2,1.4,1.6l0.5,1.5l0.7,0.6l0.2,0.8l0.6,0.9h0.9c0.5,0.5,1.1,0.9,1.7,1.1l0.7,0.8c0.3,1.2,0.7,2.3,1,3.4
				c0.5,0.5,0.9,1,1.4,1.4l0.2,0.6l-0.6,0.5c0.9,0.9,1.8,1.8,2.8,2.6l-0.1,0.6l0.2,0.5c0.8,0.3,1.5,0.8,2,1.6l0.1,0.7l0.4-0.2
				l0.1-0.7l-0.3-0.8l-0.7-0.3l-0.1-0.7l-0.8-0.6c-0.2-0.6-0.4-1.2-0.6-1.8l-0.7-0.7L55,89.7l-0.7-0.3c-0.2-0.8-0.6-1.5-1.2-2.1
				L53,86.1l0.6-0.1l0.9,0.4l0.5,0.7l0.1,1.1c0.9,1.5,2.2,2.8,3.5,4.1l0.2,0.9c1.4,0.9,2.1,2.2,3.3,3.5l0.4,1.1l0.6,0.5l-0.6,0.4
				l-0.2,0.7c0.7,0.6,1.5,1.2,2.2,1.8c2.5,1,5,3.1,7.7,3l0.3-0.4l0.9-0.1c1.1,0.5,2.1,1.3,2.8,2.3h1.3L78,106l0.6,0.8l1.2,0.4
				l0.1-0.6l0.6,0.3c1,0.9,1.6,2,1.7,3.2l0.4,0.4l0.5-0.2c0.3,0.3,2.1,1.9,2.5,1.5c0.8,0.4,1.6,0.8,2.4,1.2l-0.1-0.9l0.4-0.6
				l1.5,0.1l0.2,0.6l0.5-0.1l0.3-0.7l-0.5-0.7c-1.3,0-2.7,0-4-0.2c-0.6-0.4-1.2-0.9-1.6-1.6c0-1.4,0.2-2.9,0.4-4.3l-0.5-0.7
				l-0.9-0.5c-0.8,0.2-1.6,0.1-2.4-0.1l-1.1,0.4l-0.7-0.5l0.7-0.6v-1c0.2-0.5,0.4-1.1,0.6-1.6v-1.1l0.6-0.4l0.1-0.8l-0.5-0.3
				c-0.9,0-1.7,0.1-2.6,0.3c-0.5,1-0.9,2-1.3,3c-1.1,0.2-2.2,0.4-3.3,0.6l-0.6-0.8l-1-0.6c-0.3-0.7-0.6-1.4-1.1-2.1
				c-0.3-1.1-0.5-2.3-0.6-3.4c0.4-0.7,0.7-1.5,0.8-2.4L70.4,91l0.9-1.3l0.8-0.1c0.6-0.4,1.1-0.9,1.6-1.4c0.6,0.1,1.3,0.2,1.9,0.4
				l0.6-0.3l0.5,0.7c0.6,0,1.1,0,1.7-0.1l-0.2-0.6l0.3-0.9c1.1-0.1,2.3-0.1,3.4,0l0.6,0.8H83l0.3-0.4l0.4-0.1
				c0.5,0.4,0.9,0.9,1.3,1.5v0.9c0.3,0.3,0.5,0.7,0.5,1.2l0.5,0.4l0.3,0.7l0.6,0.3l0.1,0.7l0.5,0.2c0.3-0.4,0.5-0.8,0.6-1.3
				c-0.3-1.3-0.7-2.5-1.3-3.7c-0.1-1.4,0.2-2.8,0.9-4.1c1.3-0.8,2.5-1.9,3.9-2.4l0.2-0.7l0.7-0.4c-0.3-0.7-0.6-1.3-1.1-1.8l0.2-0.7
				l-0.4-0.6l0.7-0.4l0.6,0.9c0.3-0.8,0.7-1.6,1.3-2.2l0.5-1.7h1.4l0.9-0.6l1-0.1l-0.3-0.7l-0.1-1.4L98,71h0.8l0.3-0.6l1.1,0.1
				l1-0.6l0.6-0.8c1.2-0.2,2.2-0.2,2.2,0.6h-1.4c-0.7,0.3-0.9,0.8-0.7,1.5l0.6,0.3c1.1-1,2.5-1.6,3.9-1.9c0.4-0.6,0.9-1.1,1.5-1.6
				l0.1-0.8l-1,0.3l-0.7,1.2l-1.2,0.1c-0.7-0.3-1.4-0.8-1.9-1.3l-0.5-1.4l0.9-0.7l-0.1-1.2l-1.3-0.1c-2.4,0.6-3.7,2.5-5.7,3.8
				c0.4-0.8,1-1.6,1.7-2.2L97,65.2h1.5l0.4-0.8l0.8-0.7l1-0.1l0.4-0.9l0.8-0.3c2,0,3.9,0,5.8,0.1c0.7-0.5,1.3-1,1.8-1.7
				c0.8,0,1.6-0.2,2.3-0.5l0.4-0.4l-0.5-0.4l0.3-0.4l0.1-0.9l-1.1-0.2l-0.2-0.6h-1.2c-0.5,0.3-1.1,0.6-1.6,1l-0.5-0.2l0.2-0.7
				c0.8-0.3,1.6-0.5,2.4-0.7l0.6-0.6l-0.8-0.1c-0.6-0.4-1.3-0.6-1.9-0.8c-0.5-0.5-1-0.9-1.5-1.3l-0.3-0.6l0.5-0.1l0.2-0.4
				c-1.2-1.6-2.5-3.3-3.3-5.2l-0.9,1.2v1.1l-1,0.4L101,51l-0.9-0.1l-0.2-0.7l-0.6-0.5L98.2,50c0.3-1.2,0.4-2.4,0.2-3.6l-1.2-0.1
				c-1-0.9-2.1-1.7-3.2-2.4l-0.5,0.4l-1.3-0.1L91.8,44h-1.4l-0.6,0.6l0.5,0.9l-0.2,1.2c0.1,0.7,0.3,1.3,0.6,1.8H90l0.1,1L89.6,50
				c0.5,0.4,1.1,0.8,1.6,1.2c0.2,0.9,0.3,1.8,0.3,2.7c-0.4,0.7-1,1.3-1.6,1.8l-1.3,0.2l0.7,1.2v1.6l0.4,0.9
				c-0.1,0.6-0.4,1.1-0.8,1.6l-1.3,0.2c-0.4-0.9-1-1.7-1.6-2.4c0-0.8-0.1-1.5-0.3-2.3l0.2-1.1c-0.9-0.2-1.9-0.3-2.8-0.3
				c-0.7-0.4-1.4-0.7-2.2-0.8l-0.6-0.7c-0.9-0.5-1.8-1-2.7-1.5l-1.8,0.4c-0.4-0.8-0.8-1.6-1.2-2.4l-0.9-0.4l-0.6-0.7l0.2-2.1
				c0.6-1,1.1-2,1.8-2.9c0.8-0.3,1.4-0.7,2-1.2l-0.4-0.8c-1-0.2-2.1-0.5-3-0.9c1.2,0.1,2.3,0.3,3.4,0.7l0.7-0.2l0.2-0.8l1.3,0.4
				l0.7-0.2l0.1-0.7l0.5-0.3l0.3-0.9c-0.7-0.1-1.4-0.2-2-0.2l-0.4-0.5L77,38.2c1.1,0.1,2.2,0.3,3.3,0.8l0.9-0.3l0.6-0.8l-0.7-0.7
				h0.9l0.6,0.6c-0.4,0.6-0.7,1.2-0.9,1.9v1.5l-0.9,0.3l0.3,0.7l1,0.1v0.6c0.8,0.2,1.4,0,1.7-0.9c0.9-0.1,1.8,0.1,2.6,0.5h1l0.1-0.8
				l-1-0.2l-0.5-1.1l-1.2-0.1l-0.9-0.8L83,39.2v-0.6l0.8,0.2l0.4-0.4l-0.1-0.5h1l0.4-0.7l0.9-0.7l0.3-0.6c-0.5-0.5-0.8-1.1-1-1.8
				l0.9-0.2l0.3-0.8l-0.7-0.8c-0.7-0.3-1.5-0.7-2.1-1.1h1.4l0.2-0.4l1,0.1l0.8,0.5c0.7,0,1.4-0.1,2.1-0.3l-0.8-0.8l0.6-0.2l0.9,0.9
				l1,0.1l0.4,0.9l0.7,0.2l0.4,0.7l0.8,0.3l0.4,0.8l0.9,0.3l0.7,0.8l0.2,1c-0.7,0.7-1.3,1.4-1.9,2.1l0.5,1l-1.6,0.2
				c-0.6-0.2-1.1-0.3-1.7-0.2l-1.1,0.8v0.9c0.8,0.2,1.6,0.3,2.4,0.2l0.3-0.5l0.5-0.3c0.7,0.2,1.3,0.3,1.9,0.6L96,42l0.3,0.7l0.7,0.8
				h1l1.1,1.1l1.6,0.1l1,0.5l0.1-0.7c-0.8-0.7-1.7-1.3-2.5-2l-0.4-0.7c1.4,0.7,2.8,1.5,4.1,2.3v-1l0.6-0.9l-0.9-0.6l-0.2-1.4
				l-1.3-0.5L99.8,38c0.3-0.3,0.7-0.6,1-0.9c1.1,0.7,2.1,1.6,2.8,2.7l0.9,0.2l0.3-1.2l1.1-0.4l0.2-0.5h0.7l0.3-0.6l-0.1-0.8h-1.5
				v-0.4l-0.9-0.7c-0.6-0.1-1.1-0.3-1.6-0.6h-0.7c-0.1-0.4-0.3-0.8-0.5-1.2c-0.6,0-1.2,0-1.8-0.1v-0.9h0.9l0.5-0.4l-1.2-0.3l0.2-0.4
				l0.6-0.1l-0.7-0.7l-0.9-0.3l0.4-0.6l-1-0.4l-1.1,0.1l-0.2-0.5c-0.4,0-0.9,0-1.3-0.2l0.7-0.5l-1-0.3l-1.3,0.3l-0.8-0.9l-0.1-0.5
				L93,26.7l-0.1-0.6c-0.9-0.4-1.9-0.6-2.9-0.4l-0.2,0.5c-0.5,0.1-1.1,0.1-1.6-0.1L88,26.7l-0.8,0.1L87.1,26l0.5-0.7
				c-0.5-0.5-0.9-1.2-1.2-1.9H85L84.3,24l-1,0.1l-0.7,0.4l-0.2,0.9l0.6,0.9L82.7,27l0.8,1.2l-0.7,0.1l-0.9-1
				c-0.2-0.7-0.3-1.5-0.4-2.2c0.4-0.7,1-1.3,1.7-1.7c-0.9,0-1.9,0-2.8,0.2L79,24.6l-0.8,1.6l-0.1,1.9c0.7,0.2,1.4,0.2,2,0.3l0.4,0.7
				l-0.9-0.2l-1,0.3l0.8,0.9h1.2l0.6-0.2c0.7,0.5,1.4,0.9,2.3,1.1l-0.9,0.3l-0.1,0.8l0.6,0.6c-0.7,1.2-1.4,2.3-2.2,3.4l-0.7-0.3
				l-0.5-1.3l0.5-0.8l-1.3-1.2l-1,0.9l-1.5-1.7l-0.5-0.2c0.1-0.6,0.1-1.3-0.1-1.9l-0.7-0.1l-0.1-0.8L74,27.5l-1.3-0.1L72.4,28
				l-0.6,0.1L71.3,29l0.3,0.7l-0.2,0.6c0.6,0.6,1.3,1.1,2,1.6l-0.3,0.8l-1.1-0.2l0.3,0.9l0.9-0.1l1-0.7v1l-1.8,1l0.2,1.4l-1.2-0.8
				l0.3-1h-0.7l-0.1-0.9h0.7l-0.2-1.4l-1.7-0.8l-0.4,1l-0.9,0.4l1.5,1.1l-0.7,0.6L69.1,35l-2.8,0.1c-0.8-0.4-1.6-0.7-2.5-0.8
				l-1.4-0.8c-0.8,0.5-1.6,0.9-2.4,1.3l0.4,0.9l-0.2,1.4l-0.9-1.7l-1.4-0.7c-1.7,0.4-3.3,0.3-5,0l-0.1-0.5l1.2-0.4l-1.7-0.9
				c-1.4,0.1-2.8-0.3-4.2-0.9l-0.8-0.7c-0.7-0.1-1.5-0.2-2.3-0.1l-0.4,0.6l-0.8,0.2l-0.8-1.4l-0.5,1.2l-0.9-0.2L40.8,30l-1-0.3
				l-0.3,1.1l-0.7,0.7c-1.3,0.2-2.6,0.7-3.8,1.4l1.1-1.1c0.7-0.2,1.3-0.4,2-0.7l0.4-0.6l-0.5-0.1c-1,0.3-2,0.7-3,1.2
				c-0.6,0-1.2,0.1-1.7,0.1l-1.7,1l-1.6-0.2l-1.3-1.1l-2.4-0.1l-0.8-0.6l-1.2-0.2l-1.5,0.3l-0.9-0.6c-1.9-0.1-3.8-0.6-5.8-0.4
				l-0.3-0.8c-1.1-0.1-2.2-0.1-3.3,0l0.3-0.6l-1.4-0.1l-1.2,0.7H8.2l-1.4,1.1H5.7l-0.9,0.8l-0.1,1l-1.2,0.8l-1.9,0.1l-0.4,1.1l2.2,1
				l0.7,1.1l1.2,0.5l0.8,1.3c-0.8,0.2-1.5,0.2-2.3-0.1l-0.1-0.9l-1.3,0.7l-1.1,0.1L0,38.8c0.5,0.3,0.9,0.6,1.3,0.9L1.7,41l3.4-0.4
				L6,40.1l0.9,0.1c-0.2,0.7-0.3,1.5-0.2,2.3c-0.8,0-1.6,0.1-2.4,0.5l-1-0.1l-0.3,1.2l-1.3,1.2l0.3,0.8l0.6,0.1
				c0.2,0.6,0.4,1.2,0.7,1.7l1.4,0.5l0.7-0.8L6,48.7l-0.2,1.6h0.7L7.1,50l1.1-0.1l0.7,0.4l0.4-0.8l0.7,0.6l0.8-0.5
				c-0.5,2.2-2.4,2.8-3.6,4.5l-1,0.1l-1,0.8l-1.4,0.3l-1.2,1.1l0.7,0.3l1.2-0.9l0.8-0.1c1.9-1.1,3.9-1.9,5.8-2.9l0.4-0.9l3.1-1.8
				l-0.8-1.2l1.6-0.9l0.8-1.5l1.4-0.3l0.7,0.4l-1.6,0.7l-0.4,0.9l0.2,1c1.1-0.7,2.3-1.2,3.5-1.3L19.6,47z M1.9,48.3l-0.3-0.8H0.8
				l-0.4,0.3l0.2,0.7l0.9,0.1L1.9,48.3z M45.6,28.2h1.1l0.7-0.6l0.3-1.1c1.4-1.2,2.9-2.1,4.7-2.6l-0.1-0.7l-1.5-0.9L50,22.3l-1,0.4
				c-1.8-0.8-3.7-1.2-5.6-0.8c0,0.5,0.1,1.1,0.3,1.6L43.4,25L41.9,27l1.8,0.6l1,1.4L45.6,28.2z M60.3,34.2c0.5-0.3,1.1-0.5,1.7-0.6
				l0.1-0.7c-1,0.2-1.9,0.6-2.8,1.1L60.3,34.2z M51.5,32c0.8,0,1.6,0.1,2.4,0.1l0.6,1.1l0.7,0.4c0.9,0,1.8,0,2.7-0.1
				c1.1-0.5,2.2-1,3.3-1.7l0.4,0.4l0.6-0.1l1.5,0.8c0.6,0.1,1.3,0.1,1.9-0.1l0.4-0.7l-0.7-0.6c0.5,0,1-0.1,1.5-0.2l0.2-0.5
				c-0.8-0.6-1.6-0.9-2.6-1.2l-0.9-0.9l0.2-0.9l-0.8-0.6l-0.2-1.3L62,25l-1.2-0.5h-1c-0.1,0.9,0.2,1.8,0.7,2.5l-0.3,0.4l-0.4-0.1
				L59.4,27c-0.1-0.9-0.5-1.6-1.2-2.1l-0.8-0.1c0.1,0.4,0.3,0.8,0.5,1.1h-0.9l-0.1,0.4l-0.7,0.1c0.1-0.4,0.2-0.7,0.4-1.1
				c-0.5,0-1-0.1-1.4-0.3l-0.8,0.1l-0.1,0.6l-0.6-0.1l0.2-0.4l-0.2-0.8l-0.4-0.2h-0.9c-0.9,0.6-1.8,1.1-2.8,1.6l0.2,0.8l-0.9,0.6
				l0.1,0.4h0.6l0.4,0.4c0.6-0.2,1.2-0.4,1.8-0.4l0.6,0.5c-0.6,0.2-1.3,0.3-1.9,0.5L50,29.1l1.2,0.5c1.2,0,2.3-0.1,3.5-0.1
				c0.6,0.1,1,0.3,0.8,0.9c-1.2,0-2.3-0.1-3.5-0.1l-1.2,0.6L51.5,32z M50.8,17.5l0.9-0.3c0.1-0.6,0.3-1.2,0.6-1.8l-1.2-0.3l-0.6,0.6
				c-0.7,0-1.3,0-2-0.1c-0.4,0.8-0.9,1.4-1.5,2H46L45.2,18l0.4,0.7l1.1,0.4l0.4-0.6l0.6,0.4l0.6-0.3l0.1-0.4l0.7-0.1l0.2-0.7
				l0.6-0.4l0.5,0.7L50.8,17.5z M49.1,18.9l-0.5,0.7l1,0.2l0.5-1.1L49.1,18.9z M53.3,16.5l0.1,0.4l1.2,0.1l-0.1-0.6
				C54.5,16.5,53.3,16.7,53.3,16.5z M53,17.6l-1,0.3c-0.5,0.7-1,1.4-1.6,1.9l0.1,0.7c1.3,0.3,2.6,0.3,3.8-0.1
				c0.7,0.2,1.5,0.2,2.3,0.2c-0.4,0.5-1.6,0.4-2,0.3l-0.7,0.3l0.1,0.5l0.6,0.3c1.3,0.1,2.5-0.3,3.5-1.2c1.1-0.1,2.3-0.2,3.5-0.1
				l0.5-0.6l0.3-1.2l-0.4-0.4h-0.6l-0.1,0.5c-0.6-0.2-1.2-0.5-1.6-1v-0.6l-0.3-0.7h-0.8l-0.3,0.4l-0.6,0.2l0.1,0.4l0.6,0.4
				c0,0.4-0.2,0.8-0.2,0.8l0.8,0.1c-0.2,0.6-0.9,0.7-1.7,0.5c-0.6-0.3-1-0.8-1.4-1.3L55,18.1h-0.7C53.8,17.8,53.4,17.6,53,17.6z
				 M54,14.8l-0.1-0.7l-0.8-0.3l-0.5,0.1l0.2,0.6l0.4,0.4L54,14.8z M55.9,15.8c0.6-0.2,1.1-0.3,1.7-0.3l0.3-0.4l-0.5-0.5l0.5-0.1
				l0.4-0.5c-1.2-0.2-2.4,0-3.5,0.7l0.6,1L55.9,15.8z M54.8,13.4h3.7c-0.1-0.6-0.5-0.9-1.2-0.9c-0.6,0-1.2,0.1-1.8,0.3L54.8,13.4z
				 M59.9,23.5l-0.4,0.4l0.7,0.1l0.3-0.6L59.9,23.5z M63.4,24.7l0.2-0.8l-0.4-0.4l-1.6-0.3l-0.4,0.5c0.6,0.4,1.2,0.9,1.7,1.4
				L63.4,24.7z M69.2,28.2c0.2,0,0.7-0.7,0.7-0.7l1.2-0.1l0.5-0.9c-0.4-0.8-1-1.4-1.8-1.8l0.9-0.4c-0.2-0.6-0.6-1.2-1.2-1.7
				l-0.8,0.1l-0.1,0.6c-0.4,0-0.8-0.1-1.1-0.3l-0.8,0.2l0.2,0.6l0.7,0.7l-0.3,0.8c-0.5,0.3-0.9,0.1-1.3-0.4L65.5,25l-0.1,0.6
				c0.7,0.6,1.4,0.9,2.3,1.1C67.9,27.6,68.4,28.1,69.2,28.2z M73.8,26.5l0.7-0.5l0.1-0.8l1,0.2l0.6-0.5c0.3-0.6,0.7-1.2,1.2-1.7
				c-0.9-0.3-1.8-0.6-2.8-0.8c-1.1-0.1-1.7,0.4-2.1,1.3c-0.1,1,0.3,1.9,0.3,2.8L73.8,26.5z M90.8,35.9c0.6,0.1,1.2,0.1,1.8-0.1
				l0.5-0.8l-0.4-0.8c-1-0.2-1.8,0.1-2.4,1L90.8,35.9z M63.5,16L62.8,15l-0.8-0.5c0,0.7,0.3,1.3,0.9,1.7L63.5,16z M63.1,20.1
				l0.2,0.6l0.7-0.1C64.2,19.8,63.8,19.8,63.1,20.1z M66.1,19.7c0.4-0.2,0.8-0.3,1.2-0.3l0.4,0.5l0.4,1l0.5-0.3c0.5,0,1-0.1,1.5-0.2
				c0.1-0.5,0.1-1,0.1-1.5c0.5-1.2-0.1-1.6-1.3-1.2l-1-0.7H67c0.8,0.6,1.6,1.3,0.7,1.6l-1-1.1h-0.8c0,0.5,0.1,0.9,0.3,1.4l-0.9-0.6
				l-0.5-1.1l-1.4-0.5l-0.1,0.9l0.4,0.6c0,0,1.2,0.8,1.3,1L66.1,19.7z M66.6,14.8l-0.7-0.5l-1,0.1l0.2,0.6l0.8,0.1L66.6,14.8z
				 M68.6,14.7l0.3-0.5l-0.2-0.7l-0.6-0.4l-0.3-0.7c-0.5-0.2-1-0.4-1.4-0.7l-0.6,0.1c-0.4-0.4-0.9-0.6-1.4-0.9
				c-0.7,0.1-1.5,0.3-2.2,0.4l0.4,0.6l0.6-0.1l0.6,0.3l0.2,0.7H63l0.3,0.6l0.6-0.1l0.4,0.4l0.6-0.3c0.6,0.1,1.2,0.1,1.8,0.2l0.9,0.8
				L68.6,14.7z M69.3,10L69,9.2C68.6,9,68.1,8.9,67.7,9v0.7h0.8l0.2,0.6L69.3,10z M72.2,14.1l0.8-0.2l0.2-0.4l-0.9-0.7l-1.3-0.1
				l-1-0.7l-0.5,0.4c0.4,0.5,0.6,1,0.7,1.6C71,14.2,71.6,14.3,72.2,14.1z M72,15.5c0.9,0,1.9-0.1,2.8-0.4v-0.6h-2.2L72,15.1V15.5z
				 M74.2,18.2l0.6-0.6l-0.1-0.5L74,16.5h-1l-0.6-0.3l-0.9,0.2l-0.1,0.7c0.6,0.4,1.2,0.7,1.8,1.1L74.2,18.2z M71.6,20.6l0.7,0.7h0.8
				l0.7,0.3l0.6-0.3l0.2-0.8L74,20.1l-0.4-0.6c-0.6,0.1-1.2,0.3-1.7,0.6L71.6,20.6z M70,22h0.7l-0.3-0.5L70,22z M77.3,21.7l1.4-0.1
				l0.7-0.4c1.5,1.1,3.2,1,5,0.6l0.4-0.4l0.5,0.4c1.4,0.2,2.4-0.2,3.1-1.2l-0.2-0.9c-0.9-0.3-1.9-0.5-2.8-0.7
				c-2.2,0.9-4.2,0.8-6.4,0.7l-1-0.8c0-0.6-0.2-1.1-0.5-1.6c-0.7,0-1.5,0-2.2,0.1c0.2,0.8,0.5,1.5,0.9,2.2l-0.5,0.9
				C76.1,21,76.6,21.4,77.3,21.7z M76.4,15l-0.5,0.8l1.5,0.2l0.8-0.4c0,0-0.5-0.7-0.7-0.8L76.4,15z M79.1,13.1
				c0.5,0.1,0.7-0.1,0.6-0.6l0.1-0.6l0.8,0.3c0.6-0.3,1.2-0.6,1.9-0.9v-0.8c-0.5-0.2-1.2-0.3-1.7-0.6l-0.3-0.6V9l-0.6-0.4
				c-0.8-0.1-2-0.8-3.1-1.5c-0.3-0.4-3.3-2.1-3-0.7c0.4,0.1,0.9-0.3,1,0.4C74.8,7.1,73.2,7,73.1,7l-0.4,0.2c0.5,0.2,0.8,0.5,0.7,0.9
				C73,8,72.5,8,72,8.1l0.2,0.7l-0.5,0.3v0.7l0.7,0.1v0.7l0.8,0.4c0.8-0.2,1.6-0.3,2.5-0.4l0.5,0.6c-0.6,0.2-1.2,0.3-1.8,0.3
				l-0.6,0.3l0.9,0.5l0.5,0.8c0.9,0.3,1.8,0.4,2.7,0.2l1.1,0.3L79.1,13.1z M78.7,16.7l0.7,0.8l0.9,0.4l1-0.3
				c0.9,0.3,1.9,0.3,2.7-0.2c0.8,0.3,1.7,0.4,2.6,0.2c0.2,0.6-0.1,1.1,1,0.6h0.6l0.8-0.3c0.4-0.2,0.8-0.5,1-0.9l-0.2-0.6l-0.8,0.4
				L89,15.9l0.9-0.2l0.3-0.8l-0.3-0.7c1.1,0.3,2,0.2,2.3-0.8c0.1-0.5,0.2-0.9,0.5-1.5c-0.5-0.2-1.1-0.3-1.7-0.4
				c-0.4,0.2-0.8,0.5-1.2,0.7l-0.2-0.6l0.8-0.2c0-0.4,0.2-0.7,0.7-0.7h0.8l0.4,0.4c0.9,0.3,1.8,0.1,2.5-0.6L93.8,10l1-0.1l0.4,0.5
				c0.6,0,1.2-0.1,1.8-0.4l-0.4-0.8L96,9h1.9l0.4-0.5c1.4-0.6,2.6-1.2,3.9-2l0.9-0.1l0.5-0.3l-0.4-0.6c-1.2,0.5-2.3,0.6-3.6,0.4
				l0.2-0.5c1.1-0.2,2.2-0.3,3.3-0.2c0.7-0.2,1.4-0.4,2.2-0.6l1.2-0.1c0.4-0.5,0.4-0.9,0.1-1.4l-0.9,0.2l-0.8-0.1l-0.2-0.6l-1.1-0.6
				c-1,0.2-2.1,0.3-3.1,0.6l0.1-0.5l-0.9-0.1c-0.4,0.2-0.8,0.1-1-0.3l-0.8-0.1c-0.5-0.3-1-0.3-1-0.3c-0.5,0.5-1.3,0.8-2,0.9
				c-0.3,0.3-1-0.1-1-0.1c-1.2-1.3-2.5-0.9-2.7,0.4h-0.5l-0.6-0.4c-0.4-0.2-0.9-0.3-1.4-0.2l-0.1,0.4c-0.7,0-1.5-0.1-2.2-0.1
				c-0.3,0.4-1,0.4-1,0.4l-0.5,0.7h1.2c0.3,0.3,1.5,0.6,1.5,0.6c0.4-0.1,0.6,0.2,0.7,0.7c-1.7-0.5-3.6-0.7-5.1-1.4
				c-0.5-0.4-1-0.5-1.6-0.3l-0.1,0.5c-0.2,0.8-1.1,0.8-2.1,0.3c-0.6,0.6-1.3,0.8-2,0.7l-0.1,0.4l-1-0.1l-0.1,0.5
				c0.4,0,0.7,0.1,1.1,0.2l-0.1,0.7L78,6.7c0.8,0.7,1.9,1,3,1.1c0.3-0.4,0.6-0.7,0.8-1.1l1-0.1c-0.5,0.3-0.9,0.7-1.2,1.2l0.1,0.7
				c1.3,0.3,2.4,0.1,3.3-0.7c0.8,0.1,1.5,0.1,2.3,0.1c0.5-0.3,0.9-0.6,1.3-1.1l0.1-0.4c0.6,0,1.1-0.1,1.6-0.4l0.9,0.1l-0.6,0.1
				c-0.6,0.3-1.1,0.7-1.7,1.1c0.7-0.1,1.4,0,2.1,0.1l-0.3,0.4c-1.1-0.1-2.2,0.1-3.2,0.3C87,8.4,86,8.5,85.2,8.5v0.6l0.7,0.1l0.5,0.3
				l0.3,0.6l1.4,0.2c-0.5,0.1-1,0.1-1.5,0.1c-1.4-1.2-3.2-1.8-5-1.7l-0.1,0.6c1.4,1.4,3,2.6,5,2.6c-0.6,0.2-0.9,0.6-0.9,1.3
				l-1.3-0.9c-1.2-0.3-2.5-0.1-3.6,0.5c0,0.4,0,0.7,0.1,1.1c0.9,0.2,1.9,0.2,2.9,0.1l-0.9,0.5l0.3,0.6c0.9,0.2,1.8-0.1,2.5-0.8
				l-0.3,0.7l-0.8,0.6l-0.9,0.1c-1.2-0.7-2.5-1-3.8-1c0.6,1,0.6,1.6-0.6,1.7L78.7,16.7z M135.9,33.9c1.1-0.4,2.7,0.3,4.2-0.3
				c1.4-0.5,4.7-1.3,5.2-2.7l-0.2-0.1c-1.2,1-3,0.1-3.7-1.2c0.8-0.1,1.5,0.1,2-0.7c1.7,0.7,0.3,1.3,2.9,0.7
				c-0.2-1.2-1.3-2.8-2.3-3.3c0.1-0.2,0.2-0.3,0.4-0.3c0.7,0.5,0.5,0.6,1.4,0.6c0.2-1.9-0.2-2.3-2-1.6c0.2-0.4,0.5-0.4,0.6-0.7
				c-0.2-0.1-0.4-0.2-0.6-0.3l0.2-0.2h0.9v0.6c4.6,0.2,1.2-1.1,1.2-1.7c0-0.2,3.1-0.3,3.3-0.7c-0.8-0.9-1.2-0.6-1.2-2
				c0.3,0,0.5,0,0.9,0c-0.1-0.7-0.4-1.1-0.5-1.8c-2.4,0-0.8-2.8,0.8,0.5l0.3-0.1v-1.8c0.8-1.3-0.8-1-1.7-1v-0.7
				c0.5,0,0.8,0.1,1.3-0.2c-0.4-0.6-1.6-0.7-2.3-0.7c0.1,0.2,0,0.4-0.1,0.6c-0.8-0.2,0.1-1.9,0.2-2.6h0.6c0-0.8,0.6-0.8,1.1-1
				c-0.3-1.8,2.2-2.1,3.3-2.9l-0.1-0.3c-0.8,0.1-1.7,0-2.5-0.1c2.1-0.5,9.1-2.8,3.1-2.9c-1.4,0-3.1,0.5-4.2,0.8
				c-0.8,0.2-4.1,2.1-4.6,2c0.4-0.6,0.7-1.1,1.4-1.4c0-0.2,0-0.5,0-0.7c2.4-1.2-1.4-1.2-1.9-1.3v1.1c-0.8,0-1.5,0.3-2.3,0.4
				c0.2-1.2,1-0.7,1.8-1.1l-0.1-0.2c-2.5-0.4-5.3,1.1-7.6,0.7c0.7-2,9.1-1.9,11.3-2.2V2.7l-0.6-0.1c-0.5,0.2-2,0-2.5-0.2
				c0.2-0.1,0.3-0.2,0.1-0.4c-1.7,0-5-1.1-6.5,0h-1.8l0.1-0.2c0.5,0.2,0.9,0.1,1.1-0.4h6.3c-0.3-1.9-11.5-1.5-13-0.3
				c0.8,1.1-5.3,0.2-6.5,0.6c-0.8-0.1-1.1,0-1.8,0.3c0.3,0.7,1.1,0.4,1.1,1.4c-4-1.8,0.4,1.9,0.6,1.9c-2.2,0-3.9-1.9-6.2-1.9
				c0,0.4,1.4,1.6,1.7,2.2c-1.3-0.6-2.4-1.7-3.9-1.9c0.2,4.6-0.3,0.1-0.9-0.1c-0.4-0.1-4.9,0.6-4.9,0.9c0.5,0.7,1.9,0.8,2.6,1.5
				l-0.1,0.1c-1.7-0.3-5.6-3-4.6,0.7c-0.8-0.2-1.5-0.3-2.4-0.3c-0.8,0.8-1.9,1.2-2.9,1.6c-0.2,0.4-0.9,0.6-0.8,1.1
				c0.5-0.1,1.7,0,2.2,0c0.9,0-0.4,2.1-0.7,2.2c-0.9,0.5-2-0.2-2.9,0.3c0,0.7-3.2,1.2-3.8,1.5c-0.1,0.1-0.2,0.2-0.2,0.3
				c0.2,1,1.1,0.6,1.6,1.3h1c1.4,0.6,2.1,0.2,3.6,0.2c-0.8,1.6-1.9,0.7-3.5,0.9c0,0.1,0,0.2,0,0.3c-0.1,0.1-0.8-0.2-0.8,0.2
				c0,0.5,1.7,1,2.1,1.1c-0.3,0-0.3,0-0.4,0.2c0.5,0.5,1.6,1.4,2.3,1.1c-0.5-1.1,0.6-0.3,1.2-0.3v-0.2c5-0.4,9.5,1.8,10,7.5h0.5v0.5
				c-0.3,0-0.4,0-0.5,0.2c0.2,0.2,0.2,0.5,0.1,0.7H112v0.4c0.4,0.5,1.6,0.6,2.3,0.5c0-0.2,0-0.3,0.1-0.5h0.8c0.1,1.4,1.5,0.8,1.9,2
				l-0.1,0.2c-1-0.2-2.8-0.8-3.7-0.4c0.2,0.5,0.5,0.6,0.5,1.1c-2.3,0.2,1.6,1.1,2.2,1.1v-0.8c-0.6,0-0.8-0.2-1.3-0.3l0.1-0.2
				c2.1,0,2.7,1,2.6,2.9c-0.8,0.1-1.3,0.3-2.1,0.3v1.1c-2.7-0.4-0.3,1.4-0.2,2.2c-2.3,0.4,1.3,1.5,1.4,1.6c0,2.3-1.2,1.4,1,1.7v0.9
				c-1.4,1.2,7.7,13.7,7.7,2.8c0-0.3,1.2-0.3,1.4-0.3c0-0.8,0.2-0.9,0.8-1.2v-1.1c0.2-0.3,0.9-1.9,1-2.5h1.3c0-0.3,0-0.6,0-0.8h0.7
				c0,0.3,0,0.6,0,0.9C132.1,38.6,135.9,35.9,135.9,33.9C135.9,33.9,135.9,33.9,135.9,33.9z M106.3,63.8c-0.7-0.2-1.4-0.7-2.1-0.9
				l-0.4,0.2C104.7,63.7,105.4,65.2,106.3,63.8z M112,61.3c-0.8,0.5-2.6,3.9-2.6,5c2.2-0.5,2.9,0.4,4.7,1.3c0.5-0.9,0.2-1.6,0.7-2.6
				l-0.1-0.4c-1-0.2-1.9-1-2.9-1.3c0.4-1.2,0.8-0.9,0.6-2C112.2,61.3,112.1,61.2,112,61.3z M144.3,39.1c1-0.2,1.3-0.1,1.6,0.9
				c-0.7-0.1-1.4-0.1-2.1,0l0.1,0.7c0.5-0.1,0.9,0,1.4,0v0.9l0.2,0.4c1.5-0.3,2.7,0.8,3.9,0.6c2-0.4,2.5-2,5-2v-0.9
				c-0.5-0.6-0.3-0.5-1-0.7c0.1-0.6,0.1-0.8,0.1-1.4c-2.2,0.7-4.3,0.6-6.5,1.2c0.1-0.7-0.1-0.8-0.3-1.3l-0.4,0.1V38
				c-1.1-0.4-2.3-0.3-2.3,1.1C144,39.1,144.2,39.1,144.3,39.1z M93.6,99.3c-0.9-1.5-8-4.3-9.8-3.3c-2.2,1.3,2.8,1.5,3.7,1.8
				C89.7,98.4,91,99.6,93.6,99.3z M91.7,101.8c-0.4-0.7-1.3-1-2.2-0.8c0.5,0.7,0.9,0.5,1.4,1.2C91.3,102.4,91.6,102.2,91.7,101.8z
				 M96.7,102.2c1.8-0.5,4.5-0.1,6.3-0.8c-0.5-0.1-0.6-0.4-0.4-0.9c-2.8,0.6-4.8-1-7.6-0.5v1.3C95.5,102,95.9,102.3,96.7,102.2z
				 M94,173.8c-0.6-0.1-0.2-0.7-0.9-0.7v0.7c-0.1,0-0.7,0.3-0.7,0.5c0,0.4,1,0.6,1.3,0.7c-0.2,0.4-0.2,0.4-0.2,0.9
				c0.4,0,0.7,0.1,1,0.3c-0.1,0.1-0.1,0.3-0.1,0.4c-2.9,0-1.4,2.6-0.9,3.9l-0.4,0.2l0.1,0.3c0.3-0.1,0.5-0.1,0.8,0
				c0,0.3-0.1,0.5-0.5,0.5c0.3,0.3,0.6,0.4,0.8,0.6l-0.2,0.2c0.6,0.9,1.9,1.7,2,2.8c2.2,0.1,4.2,1,6.7,0.9c-0.1-0.7-1.3-0.8-1.9-0.8
				v-0.5c-1.5,0-1.9-4.2-1.8-5.6h1c0-1.5,1.3-2.4,2.3-3.4v-0.4c-2.1-0.2-3.1-3,0.1-2.8c-0.1-1.9,1.9-3.4,1.7-4.1
				c-0.3,0.1-0.5,0.3-0.8,0.3c-0.3-0.5-0.6-1.1-0.5-1.9c0.8,0.4,1.6,0.5,2.5,0.5c0-1,0.2-1.6,0.1-2.8c3-0.4,4.9,0.1,5.9-3.4
				c-0.1,0-0.3,0-0.4-0.1c-0.2-1.1-1.1-1.3-1.3-2.2c1.8,0.6,5.8,1.2,5.8-1.9c0.5-0.7,0.4-2.5,1.5-2.3c-0.1,0.4-0.2,0.5-0.1,0.9
				c1.7-0.9,2-3.8,2.5-5c1.2-2.8,2.2-2.4,4.1-4.5h2.6c0.2-1.6,2.1-3.2,2.6-4.8c0.6-1.9,0.6-4.4,0.4-6.4c2.2-0.5,5.3-5.6,3.6-8
				c-1.1-1.6-6.2-3.4-8.3-3.1c0,0.3,0,0.4,0,0.7c-0.5,0-0.9,0-1.2-0.5c0.2-0.2,0.3-0.3,0.6-0.4l-0.1-0.2c-1.4-0.2-2.4-1.6-4-1.3v1.1
				h-0.9v-0.4c0.2-0.5,0.6-0.6,0.7-1.2c-0.7-0.1-1.2-0.5-2-0.4c0,0.7-0.1,1-0.8,0.9c0-0.3,0-0.6,0-0.9c1.2,0,1-1.1,1-2.1h-0.7
				c0.8-5.7-7.7-2.3-7.7-6.1c-0.9-0.1-2-1-2-1.9c-0.9,0.5-1.5,0.5-1.6-0.6c0.2,0,0.3-0.1,0.5-0.2c-0.2-0.3-0.6-0.4-0.9-0.5l-0.5,0.4
				c-1.5,0.9-2.6,0.2-4.9-0.3v-0.7c-0.7,0-1.2-0.5-2-0.7c0,0.5-1,2.4-1.2,3.3c-1.1-0.9-0.8-3,0.3-3.7l-0.1-0.2
				c-0.8-0.1-1.2,0.2-1.2,0.9c-1.1,0.2-2.3,0.8-3.5,0.8v1.3c-0.4,0.4-0.6,0.4-1,0.4c0,0.9-2,2.4-0.8,2.6c0,1.3,0.7,4.3-1.2,4.5
				l-0.1,0.3c0.1,0.1,0.2,0.3,0.2,0.4c-0.2,0.1-0.4,0.2-0.6,0.4l-0.1,0.4c-0.7,0.1-0.9,0.5-0.9,1.3H87c0.1,0.8-0.2,1.6,0.2,2.3
				c0.4-0.2,0.5-0.2,1-0.2v0.4c-0.3,0.4-0.6,0.4-1,0.4c0,1.9-0.3,1.8,0.4,3.5c0.6,1.4,1.7,2.3,2,3.9c1.3,2.7,4.2,8.9,8,8.9
				c-0.1,2.4-0.2,4.8-0.2,7.2c0.7,1.9-1.3,5-1.4,6.8c-0.2,2.7-0.9,5.2-1.2,7.8c-1.1,1.2-0.4,4.2-0.4,5.8c-1.7,0.1-0.8,1.7,0.2,2.1
				l0.2-2h0.8v0.7c-0.2,0.2-0.3,0.4-0.5,0.6v1.2c-0.6,0.8-0.3,1.4-0.4,2.4c-0.7-0.3-0.5-0.6-0.7-1.3c0,0.2-0.1,0.2-0.3,0.1v0.7
				c0.6,0.4,0.7,0.8,0.7,1.6L94,173.8z M200.7,88.9c-1.3-3.3-3.5-1.2-6.5-2.6c-1.4,0.4-4.4-1.2-5.9-1.5c0,1.1,0.1,1.7,0,2.8
				c-1.9,0.2-2.8-1.4-4.9-0.9c-0.7-2.2-2.7-1-4.1-2.2c-1.8-1.7,0.7-2.1-1.3-3.4c0.5-0.5,0.5-0.5,1.2-0.7c-0.9-1.5-4.4-0.6-5.6,0.2
				c-1.2-1-2.5-1.4-3.7-0.1h-2.1c-0.7,2-4.3,1.7-5.8,0.7c-0.3,0.7-0.4,1.2-0.4,2.1h-1.6v1.8h-1.6c-0.1,1.4-0.3,2.6-0.4,4h-1.3
				c0,0.9-4.5,6.2-5.4,6.3c0,2.2-0.2,1.9-1.3,3.2v0.8c1,0.1,1.3,0.1,2,0.6c-1.7,3.1-1.5,10,2.6,10.7c0,1.8,0.9,2.5,2.6,2.7
				c0.6,3.7,6.7,2.9,9.4,2.7c1.5-0.1,3.5-2.3,5.4-1.9c1.1,0.3,0.8,1.8,1.5,2c1.4,0.4,2.9,0.2,4.3,0.2c0.2,1.9-0.6,3.5-0.6,5.3
				c-0.3,0.5-0.3,0.4-0.7,0.9c2.6,0.9,5.4,7.2,5.2,10c-0.1,3.7-4.1,8.4,0.3,11.2c0,5.4,4.5,9.8,3.7,14.2c0.3,0.1,0.6,0.1,0.8,0.1
				c0,2.7,5.6,0.6,7.2,0.8c0.5-1.3,2.8-1.9,4-3.1c1.7-1.7,3.6-4.1,2.6-6.5c4.7-2.2,1.1-4.9,3.8-8.1c1.2-1.5,3.4-1.7,4.2-3.4
				c0.7-1.4-0.2-4.3-0.1-5.8c-0.6-0.4-1-1-1-1.8c0.5-2.9-0.1-2.9,1.4-5.7c1.1-2,2.1-3.4,3.8-5c3.4-3.2,5.7-5.5,6.3-10.7
				c-2.3-0.2-4.2,1.1-6.7,0.7c-1.3-3.7-5.2-4.8-6.7-8.8C204,96.8,203.4,92.4,200.7,88.9z M218.1,141.8c0-2.1,1.5-6.5-0.9-7.6
				c0,3.3-3.7,3.8-4.9,6.1c0.1-0.1-0.4,3.6-0.4,3.6c-0.1,1.5,0.1,2.8,0.1,4.4c2,0,2.6,1.1,4.1-0.8
				C216,147.5,218.1,141.2,218.1,141.8z M162,57.3c0.7-0.1,0.2-2.6-1.4-1.3c-0.2-0.2-0.3-0.3-0.5-0.4l-0.5,0.1c0,0.4,0,0.9,0.1,1.1
				c-0.5,0.1-0.8,0.2-1.3,0.1l-0.2,0.1v1.6c0.2,0,0.5,0,0.7,0v0.7c-1.9,0.2-0.2,3.1,1.2,1h1.8C161.9,59.2,162,58.4,162,57.3z
				 M162.9,63c0.9,0,1-0.5,2-0.3c0-0.2,0-0.4,0.1-0.6c1.7,0.2,3.1,0,4.6-0.5l0.1-0.2c-0.7-1,0.1-0.6,0.3-1.4h0.4v-0.4
				c-0.4-0.3-0.4-0.6-0.8-0.9l-0.2,0.1c0,0.3-0.1,0.3-0.3,0.6c-0.5-0.2-0.4-0.7-0.4-1.3h-0.6c0.2-1.7-1.9-2.6-2.9-3.4
				c0.2-0.4,0.3-0.6,0.8-0.7c0.3-0.6,0.4-1.1,0.5-1.9h-2c0.3-0.5,0.3-1,0.9-1.3c-0.4-0.4-1.4-0.1-1.9-0.2c0,0.7-0.2,1-0.2,1.7
				c-0.3,0-1.2-0.3-1.3-0.1c-0.2,0.6,0.2,0.8,0.7,0.9c-0.2,0.5-0.8,1.4-0.7,1.8c0.6-0.2,0.8-0.1,1.1,0.3h0.4c0-0.2,0-0.3,0.1-0.4
				l0.2,0.2c0,0.7,0.4,0.9-0.3,1.1c0,0.2,0,0.3,0.2,0.4h1l0.1-0.2c0.6,0.5,0.2,1.1,0.9,1.4l-0.1,0.4c0.2,0.6-1.6,0.9-2.1,0.9
				l-0.1,0.2c0.4,0.1,0.6,0.1,1.1,0.1c0,0.5-0.6,0.9-1,0.9l-0.1,0.2c0,0.2,0.1,0.3,0.2,0.4c0.6-0.1,1.7-0.3,2.2,0.2
				c-0.4,0.4-1.4,0.7-2,0.8c0,0.7-0.1,0.8-0.7,1C162.8,62.8,162.8,63,162.9,63z M161.8,50.5c-0.5,0.2-1,0.8-1.1,1.3l0.2,0.1
				c0.6-0.4,1.1-0.7,1.2-1.5C162,50.4,161.9,50.5,161.8,50.5z M314.7,49.5c1,0,2.1-0.3,3.1-0.2c-0.1-0.4,0-0.9,0.3-1.1
				c0.6,0.4,1.3,0.5,1.9,0.8c-0.6,1.6,1.9,0.2,2.6,0.8c0-0.2,0-0.3,0.1-0.4c0.4,0.2,0.6,0.3,1,0.2c-0.1-0.2-0.2-0.4-0.2-0.6
				c-0.2,0-0.4,0-0.6,0c1-2.4,3.3-4.4,5.6-3.4c-0.4,0.6,0.1,0.8,0.1,1.4l0.3,0.1c1.4-0.9,2.5-1.6,2.8-3.2c0.6,0,1.2-0.2,1.9-0.2v0.3
				c-2.1,1.5-3.8,4.5-6,6.5c-1,0.9-1.6,0.8-2.3,1.8c-0.9,1.5-0.3,5.5-1,6.2l0.5,0.9v1.8c0.5,0,0.9-0.3,1.4-0.3
				c0-2.2,1.9-1.8,2.2-3.8c0.2-0.2,0.3-0.5,0.6-0.6h1.5c-0.2-0.7-0.3-3.7,0.9-2.2h0.4L332,54c-0.4-0.5-1.2-1.8-0.3-2.2
				c0-0.2,0-0.3-0.2-0.4c-0.4,0.1-0.3,0.2-0.8,0.2c0.2-3.2,2.1-2.9,3.6-3.8c0.2,0.3,0.2,0.3,0.4,0.6c1.5-0.3,1.6-1.5,3.7-0.9
				c0,0.5-0.1,0.9,0.5,1.1c0-3.8,7.5-4.1,9.3-4.3v-0.7c-0.6-0.4-1-1.3-1-2.1c-0.2,0-2.4-1.1-2.5-1.1c1.3-1.1,5.4,0.8,4.1-2.6
				c1-0.1,1,0.6,1.5,1.3c1-0.3,2.4-0.2,2.4,1c1.2,0.7,2.6,1.4,2.9-0.1c0.2,0,0.4,0,0.6-0.1c0-0.6-0.2-1.1,0.2-1.4
				c0.6,0.5,2.4,0.4,2.4-0.7c0-1-4-1.7-4.6-1.4c0.1,0.1,1.2,1.2,0.2,1.2c0.4,0-1.8-2.4-2.3-2.7c-1-0.7-1.7-1.2-3-1.2
				c0-1.7-3.5-1.8-4.6-2.6c-2.2,0-4.4-0.8-5.8,0.7c1.5,0.7,0.3,1.5-0.7,1.6v-0.8h-1.1v-0.7c0.5,0.1,0.8-0.1,1.2-0.3l-0.1-0.2
				c-0.6-0.2-1.2-0.2-1.8-0.1c0,1.8-4.8,1.1-6,0.6c0,0.4,0,0.8,0,1.3l-0.3,0.1l-0.2-0.1c-1.3-2.1-0.9-3.8-3.9-4.2
				c-2.2-0.3-4.1,1.4-6.6-0.1l0.2-0.2c-0.7-0.4-0.8-0.7-1.6-0.7l-0.1-0.2c0.1-0.2,0.3-0.4,0.6-0.4l-0.1-0.2c-1-0.2-2.1-0.2-3.1-0.1
				c-0.1,0.8-0.6,1.2-1.2,0.9c0.2-0.4,0.5-0.9,0.6-1.2c-1.2,0-5.5-2-5.5-0.1c-0.6,0-1.1,0-1.6,0.1c0,1,1.1,0.9,1.1,1.9
				c-0.8-0.2-1.6-0.4-2.5-0.4v0.3c0.4,0.1,0.7,0.4,0.5,0.9c-0.4-0.1-3.9-1-3.8-0.9c-1.7,0-2.2-0.9-2.4,1.5h-1.1
				c0-0.9-1.4-1.6-1.8-2.4c-0.4-0.7,0.4-2-0.5-3c-0.3-0.3-4.5-0.9-5.3-0.3c0.4,0.4,0.5,0.9,0.5,1.4c-1.9,0.4-4.4,0.1-4.9-1.2
				c-1.3-0.9-4-0.1-5.5-0.1v-0.9l-0.3-0.1c-0.5,0.3-0.8,0.8-1.4,0.3l0.1-0.2c0.8,0,1.7-0.5,1.3-1.2c0,0.1-3,1.2-3.1,1.2l-0.2,0.1
				c0.2,1.5-2.1,1.3-3.3,1.3c1-0.1,5.8-3,6-3.9h1c0.1-0.9,0.6-2.9-1.2-2.9c0-0.3-0.1-0.4,0-0.7c-1.1-0.3-2.3-0.2-3.2,0.2
				c-0.4-0.5-0.6-0.5-1.2-0.4v0.7h-0.6l-0.2-0.2c0.3-0.3,0.5-0.4,0.5-0.9c-0.8,0-1.5-0.2-2.3-0.2c0.2-0.4,0.5-0.6,0.9-0.8v-0.4
				c-3.1-0.3-3.2,0.9-5,1.9c0,0.2,0.1,0.3,0.3,0.3l-0.1,0.3h-2.1c-0.2,1.6-13,1.2-13,4.2c0,1.1,1.5,0.2,0.9,1.5
				c-0.9-0.2-5.2,0-5.6,0.8c-0.5-0.1-1.1,0-1.5,0.3c0.7,1.7,3.9,4.9,0.3,2.1c-1.3-0.5-2.1-0.5-3.4-0.2l0.1,0.2c0.7,0.1,1-0.1,1,0.7
				c-0.5,0-1.9-0.8-1.9,0.3c0,0.8,2.5,0.5,2.4,1.7c-0.6-1-2.3-0.3-3-1.3c-0.4-0.5,0-2.1-0.3-2.9c-0.1,0.1-0.3,0.1-0.4,0.1
				c0,0.6,0.1,1.1,0,1.7h-0.9c0,1.4-1.1,5.5,1.4,5.6c1.5-2,2.4,1.8,2.4,2.4c0.5,0.1,0.8,0.3,1.4,0.4l-0.2,0.2
				c-1.3,0.4-5.4-5.8-5.4,1.1c-1.8,0-1.9,1.6-4.1,0.7l-0.2-0.1c1-1.6,4.2-0.5,4.2-4c-1.5,0.1-1.3-4.8-1.5-6.4h0.7l0-1.4
				c-1.4,0-2.4-0.2-3.9,0.1c0,3.2-2.2,2.9-2,5.9c3.8,0,0.5,4.5,0.5,1.6c-1.7-0.1-4-1.3-5.5-2c-2.2-0.9-3-2.1-3,0.2
				c0.6,0,1,0,1.2,0.7c1.7,0.6,0,1.5-0.7,2.1l-0.2-0.1c0-0.5,0.1-0.8,0-1.3h-0.3c-1.3,0.6-2.1,1-3.8,1v0.6h-0.6
				c-0.2-0.2-0.3-0.3-0.5-0.4c0.1-0.3,0.2-0.6,0.3-0.9l-0.1-0.2c-0.6,0.3-1.2,0.6-1.8,0.9c-1.1,0.1-3.7,0.9-4.5,1.7
				c0.7,1.5-1.2,1.4-1.9,1.1c-0.3-0.4-0.5-0.7-0.4-1.3h1.2v-0.7c-0.9-1-1.7-1.1-3.1-1.1v0.5c0.2,0,0.4,0,0.6,0.2
				c-0.4,2.1,0.3,2.2,0.3,4.1c-1.1-0.1-1.2-0.4-2.6-0.4c0,0.5-1.6,1.3-2.1,1.4c0.2,0.4,0.8,1.2,0.7,1.7c-1.1-0.6-2.3-0.1-3.3-1.2
				c-1.1,0.7-0.4,0.7-0.2,1.6c0.7-0.1,1.2,0.1,1.1,0.7h-1c-0.6,0.8-2.1-1-2.1-1.9h-0.7c0.2-2-0.7-2.8-2.3-3.6l0.1-0.2
				c1.5,0.3,7.4,3.6,8.9,0.8c1.8-3.2-5.6-3.6-6.6-4.8h-0.6c0,0.6-0.3,0.7-0.8,0.4c0.4-0.9-0.2-0.6-0.3-1.4c-0.5,0.2-1.3,0.4-1.6-0.1
				c-0.5,0-0.7,0-1.2-0.1v-0.2h0.7l0.1-0.5c-0.3-0.5-1.4-0.8-1.9-1l-0.2,0.1v0.7c-0.2,0-0.4,0.1-0.6,0.1c0-0.6,0.2-0.6,0.3-1.1h-1.4
				c0,0.6-0.1,0.9,0,1.4l-0.3-0.1c0.1-0.7,0-1.1-0.7-1v1.1h-0.7v-1c0.3,0,0.5,0,0.8,0l0-0.7l-0.3-0.1c-0.6,0.5-1.7,1.3-2.3,0.9
				c0-0.2,0.1-0.3,0.3-0.4c-1.1,0.1-3.1,1-0.8,1.2v0.5c-0.7-0.1-1.4-0.2-2.1-0.3c0,0.6,0.1,0.8-0.3,1.2c0-0.8-1.1-1.5-1.8-1.4
				c0.1,0.9-0.6,3-0.9,1.2c-0.3,0.4-0.3,0.4-0.9,0.4l-0.1,0.4c0.4,0.4,0.6,0.3,0.4,1c-0.4-0.2-0.7-0.3-1.2-0.4
				c0.2-0.3,0.2-0.6,0-0.9c-0.1,0-0.2,0.1-0.3,0.1v0.7c-0.4,0.1-0.6,0-1,0.2c0.2,0.4,0.2,0.2,0.2,0.6c-1,0-1.6,0.5-2.1,1.2
				c1-0.4,2.8-1.4,3.9-0.8l-0.1,0.2c-1.1,0-1.7,0.6-1.8,1.8c-1.2,0-2.1,2.1-2.3,3.1l-0.1-0.2c-0.6,0.3-1.1,0.7-1.7,1l0.1,0.3
				c0.3,0,0.5,0,0.8,0c-0.2,1.2-2.5,2-3.3,2l-0.1,0.4c0.1,0.2,0.1,0.3,0.2,0.4c-3.1,0.7-2.4,2.7-3.8,4.1v0.4
				c0.5-0.1,0.8-0.1,1.1,0.3c-0.4,0.4-0.6,0.9-0.6,1.4c0.3,0,0.5,0,0.8,0c0,0.6-0.4,0.7-0.3,1.3c0.6,0,0.6,0,1.1,0.4l0.4-0.1
				c1.7,0.3,1.8-1.4,3.3-1.7v-0.4c1.1,0.2,2.4,5.1,2.6,6.2h1.5c0.1-1.1,1.3-1.2,2.1-1.2v-0.7h0.8c0.1-0.2,0.1-0.4,0-0.6
				c-0.6,0.1-0.7,0-1-0.2c0.6-1,2.6-3.4,2.5-4.3c-0.4,0-0.7,0-1,0c0-1.2-0.7-1.3-0.6-3.1c1.9-1.3,5.6-7.4,6.6-5.9
				c0.9-0.4,1.3,0,1.2,1.2h-0.6c0,2-1.4,1.1-2.2,2.5c-0.8,1.5-1,2.2-1,4.2c1.9,0.2,3,2.1,5,0.4c1.2-0.4,2-0.2,2.7,0.3h1l0.1,0.2
				c-1.9,2-7.1,0.5-8,2c0.2,0.1,0.4,0.2,0.6,0.3c-0.5,0-0.8,0.2-1.3,0.3c0.3,0.8,2.5,0.5,3.5,1.2c-0.5,0.7-0.9,0.3-0.9,1.2
				c-0.8,0-1.4-0.5-1.4-1.2h-0.4c-0.8,1.2-1.2,2.3-1.4,3.7l0.3,0.2l-0.1,0.2c-0.5,0-2.9-0.6-1.5,0.7l-0.1,0.2l-0.2,0.1
				c-1.2-0.8-5.4,0.8-5.4-0.5h-0.4c-0.5,0.3-1,0.3-1.7,0.3c0,0.3,0,0.4,0,0.7c-0.7,0.2-0.9-0.1-1.1-0.7l-0.2,0.1h-0.4
				c-0.1-0.4,0-0.5,0.1-0.8c0.7,0.1,1.5,0.4,2.2,0.3c0.1-0.6,0.3-1.5,0.2-2.1c-0.6,0.1-1.5,0.7-1.9,0.6c0-0.5,0.3-0.7,0.3-1.2
				c-0.2,0.1-0.4,0.1-0.6,0c0.5-4-3.2,0.9-1.7,1.8c-0.2,0.9-0.2,1.8,0.2,2.7c-2.3-0.2-3.3,1.2-5.1,1.2v0.4l0.4,0.2v0.7
				c-1.1,0-1.5,1.1-2.7,1.1V63c-0.6,0-0.8,0.1-1.2,0.2v0.7c-0.9,0-1.7-0.6-2.3-0.6v0.7c0.2,0.1,0.3,0.1,0.4,0.2l-0.2,0.4l0.1,0.2V65
				c-0.6,0-1.6,0.1-1.9-0.4c-2.4,1.1,0.1,1.4,1.5,2.4v1.2c5.3,5.4-5.9,3-6.1,3.7h-1l-0.1,0.2c1.3,1.7,0,5.5,0.2,7.6
				c1.5-0.2,2.8,0.1,3.7,1.4l0.1-0.3l-0.2-0.1c1.9-0.7,3.7-2.3,5.7-2.4c-1.2-2.6,1-3.9,3.3-4.1c-0.8-3.2,1.6-2,3.4-2
				c0-3.3,3.8,0.1,4.7,0.8c1.3,1.2,4.9,2.6,4.6,4.9c-1.2,0-2.2,0.5-3.6,0.5l0.1,0.3c1.2,0.6,1.3,1.4,2.9,1.1V79
				c1.2-0.2,1-1.4,2.1-1.8c0-0.2,0-0.4,0-0.7h-0.9c0-0.2,0-0.4,0.1-0.6c0.7,0,1.4,0.4,1.9,0.4c-0.2-0.3-0.3-0.7-0.3-1.1
				c-1.5-0.2-2.3-1.8-3.8-2c0.2-1.4-1.3-1-1.3-2.3c-0.3-0.1-0.6-0.1-0.9,0v-0.6c0.5-2.7,2.5,0.4,4,1.4c1,0.8,2.4,1.4,3.3,2.4
				c0.5,0.6-0.8,2.5,1.2,2.9V78h-0.5c-0.1-0.4,0-0.2-0.4-0.2c0.2,0.6,0.6,0.8,0.9,1.2c0.2-0.2,0.3-0.3,0.5-0.6
				c0.1,0.4,0.5,1.4,0.7,1.7c1-0.9,1.3-1.1,2.6-1.2c0-0.3,0-0.6,0-0.8c0.2,0,0.4,0,0.7-0.1c-0.2-0.4-0.5-0.7-0.8-0.7
				c0.1,0.2,0.1,0.4,0,0.7c-0.6,0-1.9-2.1-1.7-2.5c0.5,0.5,1.1,0.6,1.7,0.3c-0.1-0.2-0.2-0.3-0.4-0.3c0.9-1.5,2.2,0.3,2.8,0.7
				l-0.1,0.2c-0.1,0,1,5,1.3,5c0.4,0,0.3-1.2,0.3-1.4h0.2c1.4,0.7,1.5,1.8,2.3,0c0.3-0.2,2.8,0.8,3.3,0.9c0-0.3,0-0.6,0-1
				c0.6,0.1,1.3,0.6,1.8,0.1c0.7,0.4,0,2.9,0,3.6c-1.9,3.6-2.5,1.5-4.8,2.9c0.4,0.2,0.7,0.3,1.1,0.3c0.2,0.6,0.2,1,0.2,1.7
				c1.3,0,0.7,3,2.4,1.2c2.1,3,3.1,6.2,4.8,9.2c1,1.7,2.4,3.2,3.2,4.9c2.4,5,1,1.7,5.2,2.6c0.9-1.1,3-2.2,4.4-2.2
				c0-1.3,1.8-1.4,2.9-1.2c0-0.5,0-0.8,0.3-1.2h1.1c0.1-0.9,0.4-1.1,1.2-1.1c0.1-1,0.5-1.5,1.3-1.2c0-1.6,0-1.6,1.1-2.1
				c-0.1-0.8-1.4-1.9-2.2-2.2c0.1-0.8,0.2-1.2-0.7-1.1c0.1,0.4,0,0.7-0.3,0.9c-0.1-0.6-0.1-0.6-0.5-1.1v-1.1
				c-0.1-0.2-0.2-0.3-0.4-0.4c-0.6,0.8-0.7,0.8-0.8,2c-2.1-0.2-5.4-0.2-1.5-0.8c-0.1-0.5-2.6-0.7-3.1-0.7v-1.1
				c-0.4-0.4-3.7-3.2-1.8-4.1c1.2-0.6,2.5,2.1,3.4,2.7c1.3,0.8,2.2,0.6,3.5,1.1c1.5,0.5,2.7,1.4,4.4,1.8c1.9,0.5,7.6-1.2,7.8,2.2
				c0.7,0.2,1.5,0.8,2.4,0.9c-0.6,0-0.8,0.1-1.3,0.2c0.3,1.9,2.6,1,2.9,1.3c1.3,1.1,0.9,1.6,1.5,4.3c0.3,1.4,2.6,9.2,3.8,9.6
				c0.9,0.3,2.2-1.3,2.7-2.3c0.9-2.2,0.5-4.1,1.6-5.7c1.3-2,5.5-3.8,5.7-6.2c0.9,0.3,2.2,0.2,2.8-0.7h1v-0.7c1,0.1,2.7,3.6,2.7,4.7
				c1.9,0-0.2,3.1,3.1,2.3c-0.1-0.3,0-0.4,0.2-0.7c3.2,0.7,1.2,7.7,1.7,9.5c0.1,0.3,1.4,1.4,1.6,1.9c0.4,0.9,0.4,2.4,0.8,3.1
				c0.6,1,2.4,3.1,3.6,2.5c-0.9-1.7-1.1-3.2-1.4-5.3c-2.2,0-2.8-2.8-3.8-3.9c0.3-1.4,0.5-2.9,1.2-4.1c2.6,1.1,3.4,3.8,4.6,5.9
				c0.8-1.2,2.4-1.9,2.9-2.6c1.7-2.3,1-2.8,1-5.8c-3.9,0-3.4-6.4,0.9-6.4c0,0.6-0.1,1.1-0.1,1.7c-0.5,0.5-1.7,0.9-0.8,1.8h1.7
				c0.1-0.7,0.6-1.6-0.1-1.9V98c2.4,0,5.2-1.3,7.1-2.8c1-0.8,5.8-7,3.7-7.2v-0.9h0.4c-0.4-2.3-2.7-4.2-1.6-6.3h0.6
				c0.7-0.6,0.9-0.7,1.9-0.7c0.1-0.3,0.1-0.5,0-0.7h-1c-0.1-0.2-0.3-0.4-0.4-0.6h-0.8c0,0.4-0.1,0.5-0.2,0.9H288v-1.3
				c-4.4-0.7,2.4-3.4,2.8-3.2l0.1,0.2c-0.4,0.5-1,1.3-1.2,1.9l0.1,0.2c0.2,0,0.3-0.2,0.4-0.3c3-1.5,3.2-0.8,3.4,1.7h0.4
				c1.9,0.1,1.7,2.7,1,4.3c1.9-0.2,4-0.9,3.7-3.2c-1.2,0-3.1-3.8-0.2-4.1c-1.3-5.5,5-1.9,5.5-4.7c1.3-1.8,3.5-3.4,4.5-5.3
				c0.8-1.7,0.6-3.8,1.6-5.5c1.9,1.2,0.4,6.1,0.4,8.1h0.4c0.3-0.2,0.5-0.6,0.6-1c0.5,0.5,0.1,0.8,1,0.9c-0.4-2.8-2-3.1,0.7-4
				c-0.4-2.7-1.4-4.9-1.6-7.5h-0.4v1.6c-0.2-0.1-0.4,0-0.6,0.1c0.1,0.4,0.2,0.9,0.2,1.3h-0.4c-0.1,0-1.6-2.5-2.2-3.1h-0.6V58h-0.9
				c-0.1-0.5-0.1-0.6-0.5-1.2l-0.3,0.1c0.1,0.3,0,0.6,0,0.9c-0.2,0-0.3,0-0.5-0.1c0.2-0.5,0.2-0.9-0.2-1.3c-0.4,0.4-0.6,0.3-1.1,0.2
				c0.1-0.8,1.9-2.1,2.7-2.1C306.8,50.6,312.2,49.5,314.7,49.5z M184.9,13.6c0,0,0.1,0,0.1,0.1c-0.3,0.7-2.6,0.1-3.3,1.3
				c0.7-0.1,2.8-0.7,3.1-0.3c-3.2,2.1-2.5-0.2-0.3,2.9l0.2-0.1c0.1-0.6,1.1-2.1,1.8-2.1v-1.1c0.3,0.1,0.6,0,0.8-0.3
				c-0.2-0.4-0.1-0.7-0.1-1.1h1.5c0,0.3-0.1,0.6-0.1,1c1.6,0,0.4,1,0.4,1.8c0.7-0.5,1.7-1,1.7,0.2h0.6c0.2-0.2,0.3-0.2,0.4-0.6
				c0.5,0,1.1,0,1.6-0.1l0.1-0.2c-0.4-0.6-0.7-0.4-1.3-0.4c0-0.3,0-0.5,0-0.8h-1.3c0-2.1-2.6-1.7-3.6-2.3v-0.7
				c-0.2,0.1-0.5,0.2-0.8,0c0.1-0.3,0.3-0.6,0.4-0.9l-1.8-0.3c-1.1,0.3,0.1,2-0.8,2c-0.6,0-0.5-1.2-0.6-1.7L183,10
				c-0.7,0.4-0.7,0.8-1.6,0.8v-0.4c0.2-0.2,0.2-0.3,0.5-0.4l-0.1-0.2c-0.4,0.1-0.5,0.2-0.7,0.5c-0.7-0.1-1.5,0-2.3,0.2
				c0.1,0.9,0.6,0.8,1.3,0.9c0,0.4,0.1,1.5-0.1,1.8c-0.6-0.3-0.5-0.9-1.2-1c0.4,0.8,0.3,1.4,1.4,1.4c0-0.2,0-0.4,0-0.7
				c1.6,0.1,1,0.5,2.6,0c-0.1-0.2-0.1-0.4-0.1-0.6l0.4-0.1c0.2,0.4,0.2,0.2,0.3,0.8h0.8l0.4-0.3l0.2,0.2
				C184.9,13.3,184.9,13.4,184.9,13.6z M187,9.4c0.4,0.9,2.2-0.3,2.6,0.7h-1.6v0.5c2.6,1.1,5.6,0.8,7.4-0.9
				c-0.5-0.5-1.3-0.5-1.9-0.3c-0.1-0.5-0.3-0.5-0.5-0.9c-0.6,0.2-0.7,0.9-1.5,0.7l0.4-0.5c0-0.1,0-0.2-0.1-0.3
				c-0.5,0.2-0.8,0.3-1.4,0.2c-0.1,0.5,0,0.8-0.3,1.2l-0.2-0.1C190.1,7.8,186.6,8.2,187,9.4z M217.1,7.5c-0.8,0-0.9,0.2-1.7,0
				c-0.3,0.6-0.9,0.7-1.7,0.3c0.1,1.2,2,0.4,2.9,0.4l0.1,0.3c-0.2,0.3-0.4,0.3-0.7,0.2c0.7,1.4,1.4,1.6,1.9-0.1c1-0.1,1.6,0.1,1.8-1
				c-0.2-0.1-0.4-0.1-0.6-0.1V6.9C218.1,6.8,218.1,7.5,217.1,7.5z M221.3,9c0.9-1,2.7-1.3,4-1c-0.2-1.7,1.1-0.3,2-0.4
				c0-0.3,0-0.5,0-0.8c-0.5,0-0.9,0.1-1.3,0c0.2-0.3,0.5-0.5,0.7-0.8l-0.1-0.2c-0.9,0-1.6,0.1-1.6,1.1c-1.1,0-1.8-0.2-1.6,1.1
				c-1,0.1-1.6,0.1-2.4,0.8L221.3,9z M224.3,8.9v0.7h0.9c0.2-0.2,0.2-0.3,0.4-0.6c0,0.8,0.3,0.6,0.8,0.6c0-0.3,0-0.4,0-0.7h0.9
				c0-0.2,0-0.3-0.1-0.4c-1.3-0.1-1.9,0.4-3,0.6V8.9z M227.9,9.2c-0.3,0.1-0.5,0.2-0.8,0.2c0.1,0.8,0.6,0.3,1.2,0.2
				c0-0.2,0-0.3-0.2-0.4C228.1,9.1,228,9.2,227.9,9.2z M228.3,7.2c0,0.7-0.4,0.5-0.7,1c0.9,0.3,1.9,0.3,2.9,0.1
				c-0.4-0.5-0.6-1-0.6-1.6l-0.3-0.1c-0.4,0.2-0.6,0.5-1,0.7L228.3,7.2z M230.9,7.2c1.6,1.6,1.7,0.2,3.3-0.2l-0.1-0.2
				C232.9,6.4,231.8,7.5,230.9,7.2z M238.4,24.8c0.5,0,1.1-0.1,1.6-0.3c-0.2-1.2-1.3-0.4-1.8,0.2C238.2,24.7,238.3,24.8,238.4,24.8z
				 M222.6,24.3c-0.2-0.1-0.5-0.1-0.7,0V25c-0.3-0.1-0.6,0-0.9,0.2c0.1,0.6-0.1,0.7-0.2,1.3c-1,0-1,0.7-1,1.7l0.5,0.1
				c0-0.2,0.1-0.3,0.3-0.3c0.2,0.2,0.3,0.2,0.4,0.5c0.2-0.1,0.3-0.2,0.2-0.4c0.4,0.2,0.8,0.5,1,0.8l-0.4,0.5c0,0.1,0,0.2,0.1,0.3
				c1.2,0.1,2.5,0.2,3.7,0.2v-0.5c-0.2-0.3-0.3-0.3-0.3-0.8c-4.2-1,1.6-5.4,1.8-6.8c0.8,0,2.8-0.8,2.7-1.8c2.5-0.2,5.4-2.3,7.6-2.3
				c0.4-1.3-8.2,0.2-8.9,1.5H227c-0.7,0.6-1.5,0.6-1.5,1.7c-0.4-0.1-0.8-0.1-1.2,0c0.1,0.3-0.3,1.3-0.3,1.8c-0.7,0.1-2.1,0-1.8,1.1
				c0.4-0.1,0.5-0.2,0.8-0.2c-0.2,0.5-0.1,0.3,0.1,0.7C223,24.2,222.7,24.3,222.6,24.3z M218.5,32.3c-0.4-0.1-0.5-0.1-0.5-0.6h-1.3
				c0,0.5,0,1,0.1,1.6C217.4,33.3,218.4,33,218.5,32.3z M259.5,6.3c-0.4,0-0.4,0.1-0.8,0l-0.2,0.2V7C259.4,7.1,260.3,6.3,259.5,6.3z
				 M261.6,9.9c-0.7,0-1.2-0.4-1.9-0.3c0,0.3,0,0.4,0,0.7c0.7,0.1,2.6,1.1,2.1-0.4C261.7,9.9,261.7,9.9,261.6,9.9z M262,9.4
				c0.7,0.4,2.7-0.5,3.5-0.6c0.1-0.8,0.3-0.9,0.8-1.3c-0.1,0-0.1-0.1-0.2-0.1c0,0,0,0,0-0.1h-1.4c0-1.7-2.3-0.1-3.2-0.1
				c0,1.2-0.8,0.6-1.3,1.3C260.4,8.7,261.7,9.2,262,9.4z M265.2,9.2c-0.7,0.1-2.8,0.8-3,1.6c0.7,0.2,0.6,0.4,0.7,1.1
				c0.8-0.2,2.2-0.2,2.6,0.6c1.5,0,2.4,0.4,3-0.9c-0.2,0-0.4,0-0.5-0.1c0.2-2.6,0.1-1.6-1.9-1.6c0-0.2,0.2-0.3,0.3-0.4l-0.1-0.3
				C265.9,9.2,265.6,9.2,265.2,9.2z M268.5,14.7c1.3,0,5.1-1.3,5.4-2.2H273c0-1.7-1.4-0.4-1.9-0.7c0.3-0.3,0.4-0.3,0.4-0.6
				c-1.4-0.3-3.4,1.6-3.4,3.2C268.2,14.4,268.4,14.7,268.5,14.7z M264,16.7c0.4-0.1,0.8,0,1.1,0c-0.1-1.2-0.4-0.4-1.1-0.3V16.7z
				 M276.2,14.1c-0.3-0.6-1.2-0.7-1.8-0.4l0.1,0.2c0.7,0.1,1,0.4,1.7,0.4C276.2,14.2,276.2,14.1,276.2,14.1z M304.1,22.2
				c0.2,0.5,0.4,0.8,0.4,1.3h0.9c-0.3-0.4-0.7-0.8-1.1-1.3H304.1z M304.7,19.8c-0.1-0.2-0.1-0.4,0-0.7
				C303.5,19,304.1,20.3,304.7,19.8z M305.8,20.3c0.5,0.7,1.5,1.4,2.3,1.4c0-0.4,0.1-0.4,0.2-0.8c1.2,0.8,3.5-0.2,5-0.1
				c0-0.7,0.4-0.9,0.5-1.5c-1-0.2-2.3-0.9-2.3,0.9c-0.2,0-0.4,0-0.6,0c0.1-0.5,0.3-1.1,0.3-1.5c-0.4,0-0.8-0.1-1.3,0v0.6
				c-1.6-0.1-1.7-0.8-3.5-0.8c0.1,0.7-0.3,1.2-0.4,1.9L305.8,20.3z M309.7,22.8c0.2,0,0.3-0.1,0.3-0.3c-0.4-0.1-0.8-0.3-1.3-0.3
				C308.7,22.8,309.1,22.8,309.7,22.8z M308.7,24.2c1.3,0.2,2.4,0.1,3.6,0.4l0.1-0.4c-1-1.3-2.3-0.9-3.5,0L308.7,24.2z M314.9,20.6
				c1.7,0.7,2.8,0.4,4.5,0.4c0-0.2,0-0.5,0-0.7c-0.8,0-1.5,0-2.2,0v-0.6c-0.9,0-1.5,0.7-2-0.4l-0.2,0.1v0.9
				C315,20.5,314.9,20.6,314.9,20.6z M347.7,29.1c1.2,0.3,2.5-0.3,3.7-0.3v-0.3c-0.6-1-3.9-1.1-3.9,0.3
				C347.6,28.9,347.6,29.1,347.7,29.1z M357,42.7c0.9,0.2,2.1,0.6,3,0.4v-0.4c-1.1-0.2-1.9-0.7-3-0.4C357,42.4,356.9,42.7,357,42.7z
				 M332.8,50.5c0.4,0,0.7-0.5,0.7-0.8c-0.7-0.3-1.2,0-1.4,0.8C332.3,50.5,332.5,50.5,332.8,50.5z M335.5,56.5
				c-0.2-0.6-0.1-1-0.7-1.4c0,0.6,0.1,1.1,0.2,1.7h0.6C335.6,56.7,335.5,56.6,335.5,56.5z M336.9,56.3c-0.4-0.5-0.6-0.4-0.6,0.3h0.6
				C336.9,56.5,337,56.4,336.9,56.3z M324.4,62.1c-0.1,0.5-0.4,0.9-0.6,1.3c0.5-0.2,0.8-0.7,0.9-1.3H324.4L324.4,62.1z M319.2,68.1
				c-0.4,0.1-0.7,0.4-1,0.6C318.8,69.1,319,68.7,319.2,68.1z M317.3,69.1c-3.1,0.6-3.4,2.2-6.9,0.1c-0.1,1-0.8,2.4-0.8,3.2
				c-0.3,0-0.3,0.1-0.5-0.3c-0.3,0.5-1.2,2.9,0.3,2.2v0.6h-0.8c-0.2,2.2-0.2,2.9-1.6,4.6c0-0.3,0-0.5,0-0.9
				c-0.2,0.2-0.2,0.3-0.3,0.8H306v0.9l-0.2,0.1c-0.3-0.3-0.3-0.2-0.3-0.8l-0.2-0.1c-0.2,0.4-0.2,0.5-0.2,0.9
				c-0.2,0.1-0.4,0.1-0.6,0.1v1.3H304c-0.3-0.2-0.3-0.4-0.7-0.6c-0.8,1.4-3.1-0.5-3.1,1.9h-1c-0.1,0.2-0.1,0.5,0,0.7
				c-0.8,0-1.1,0.5-1.2,1.2c0.4,0,1,0,1.2,0c0,1.1-1.2,1.5,0.4,2c0-1.4,0.7-1.5,0.7-2.9c-0.2,0-0.5,0-0.7,0c0.4-1.2,3-1.1,4.1-1.4
				c-0.7,0.5-1.8,0.7-2.7,0.7V85c1-0.3,2-0.9,2.6-1.6c0.5,1.2,0.8,0.1,1.7,0.1c0.1-0.4,0-0.5-0.1-0.9l0.2-0.1l2.4,0
				c0.9-0.9,4.8-8.5,1.2-9.2V73c1.4-0.2,1.9,0.4,3.2,0.4c0.1-0.3,0.1-0.6,0-0.9C313.3,72.4,317.3,70.6,317.3,69.1z M290.6,94
				c0-0.1,0-0.2,0.1-0.3c-1.6,0-2.2,2.1-1.8,3.6h0.6C289.4,95.9,290.6,95.3,290.6,94z M289.5,101H289c0,1.3-1.4,3.5,0.3,3.9
				c-0.3,0.7,0.2,1,0.8,0.9C290.4,104.8,292.1,101,289.5,101z M288.7,107.5c-0.8,1.7-2.8,3.2-3.2,4.5c1.1,0,1-1.2,2.2-1.2
				C287.7,109.5,288.7,109,288.7,107.5z M290.7,106.5c0.8,0.6,2.6,1.9,2.7,3.1h0.9c0-1.3-1.1-2.6-1.5-3.6
				C292,106,291.6,106.5,290.7,106.5z M289.2,106.7c-0.1,0.8,0.2,0.9,0.9,0.9c0,0.9-0.1,2.7,1.2,2.5c-0.6,1.5,0.5,0.8,1.2,0.8
				C291.9,109.7,290.8,107,289.2,106.7z M292.3,111.8c-1.1,0.1-1.8,0.7-1.7,2.1l0.2,0.2c0.4-1,0.3-1.2,1.7-1.1
				c0.2,1.2,0.9,1.7,1.8,2.2l0.2-0.1c-0.1-0.6-0.3-0.8-0.4-1.4c0.4-0.1,0.5,0,0.9,0l0.2-0.2L295,113c0-0.4,0.3-2.4-0.5-2.4
				C293.5,110.6,293.3,112.6,292.3,111.8z M265.2,115.7c-0.6,0-0.9-0.6-1.5-0.6c0.2,1.4,3,4.1,3.7,5.2c1.3,2,4.5,4.6,5.3,6.8
				c2.1-0.7,1.1-2.3,2.9-2.8c-0.1-0.6-0.3-0.7-0.8-0.8c0-0.2,0-0.3,0.2-0.4c-0.4-0.5-1.2-0.7-1.4,0.1h-0.6c-0.1-0.3-0.1-0.6,0-0.9
				c-1-0.6-1.8-0.2-1.6-2c-1.2,0-1.1-0.5-1.5-1.5c-1.2,0.4-3.7-2.3-4-3.3C265.7,115.4,265.4,115.7,265.2,115.7z M264.8,118.2
				c0-0.1,0-0.1-0.1-0.2l-0.2-0.2c0,0.5,0,0.9,0.6,0.9l0.1-0.2C265,118.4,264.8,118.4,264.8,118.2z M265.6,119.7
				c0.3,0.5,0.8,0.7,1,1.2c0-0.7-0.2-1.2-0.8-1.4c-0.1,0.1-0.1,0.3-0.1,0.4L265.6,119.7z M267.3,122.1c0.1,0.7,1.2,2.6,1.9,2.7v-0.9
				c-1-0.5-1.1-1.9-1.8-2.2l-0.1,0.2C267.3,122.1,267.3,122,267.3,122.1z M278.3,118.8c-0.1,0-0.3,0-0.4,0.1c0,4.6,2,6.4,6.6,6.4
				v-0.4c0.5-0.9,0.8-1.9,1.1-3.2h0.6v-1.2c0.6,0,1,0.1,1.3-0.5c-0.4-0.2-0.6-0.2-1-0.3c-0.3-0.8-0.2-2.1-0.3-3c0.3,0,0.5,0,0.8,0
				c0-0.7,0.4-0.9,1-1.1c0,0.1-2.5-2-2.5-2c-0.5,1.4-3.9,4.5-5.3,4.5v1.2c-0.6-0.1-1.2,0.3-1.6-0.3L278.3,118.8z M270.9,126.4
				c-0.1,0.1-0.2,0.3-0.2,0.4l0.2,0.2C270.9,126.8,270.9,126.6,270.9,126.4z M274.1,128v0.3h0.6v0.5c2.1,0,4.2,1.2,6.4,1.3
				c0-0.2,0-0.3,0.1-0.4c1,0.2,2.3,0.8,3.2,0.7c-0.3-0.7-0.7-0.5-1-1.1h-1.6c0.1-0.8,0.6-0.4,1.2-0.7C280,128,277.2,127.9,274.1,128
				z M285.5,129.9c-0.8,0.1,1.9,0.2,2.4,0.2c-0.2,0-0.2-0.1-0.1-0.3C286.9,129.8,286.3,129.7,285.5,129.9z M288.1,130.8
				c-0.2,0.1-0.3,0.1-0.4,0.2c0.5,0.9,0.9,0.9,1.9,0.9l-0.1-0.2c-0.4-0.1-0.8-0.4-1.1-0.7C288.4,130.9,288.2,130.8,288.1,130.8z
				 M288.5,130.1c0.9,1,3.8,0.2,4.8-0.3l-0.1-0.2c-1.7,0.4-3.2,0.2-4.9,0.4L288.5,130.1z M291.8,132.4c-0.2,0.1-0.3,0.1-0.4,0.2
				c0,0.1,0.1,0.2,0.1,0.3h0.6v-0.4l-0.1-0.2C291.9,132.3,291.8,132.3,291.8,132.4z M292.2,131.4c0,1,3.5-0.9,3.9-1.3
				c-0.8-0.4-4.2,0.2-3.8,1.6L292.2,131.4z M293.3,119.5c-0.1,0,0,0.2-0.1,0.2c-1-0.2-5.4-0.4-5.2,1.5c0.5-0.3,1.4-0.7,1.8-1.1
				c1.1,0.3,3.6,1,3.9-0.7C293.6,119.4,293.5,119.4,293.3,119.5z M287.2,124.2c0,0.5,0.7,0.6,1,0.6c0,1-0.2,1.2,0.1,2.2
				c0.7-0.5,0.7-2.2,0.6-3h0.6v0.5l-0.1,0.2l0.1,0.2c0.4,0.1,0.7,0.2,1,0.2c-0.4,1.1-0.1,1.7,1,1.7c0.2-1.2-0.9-2.7-1.5-3.6l0.1-0.4
				c0.3,0,2.1-0.2,2.1-0.5C292.2,120.5,287.2,122.2,287.2,124.2z M297.1,118.3c-0.9,1.3-1.3,1.9-1.3,3.7c0.4,0.1,0.5,0.1,0.9,0
				c0.1-0.4,0.1-0.8,0-1.2c0.3,0,0.7-0.1,1,0c0.1-0.6-0.3-0.8-0.3-1.3c-0.2-0.1-0.4-0.1-0.6,0C296.9,119.1,297.1,118.7,297.1,118.3z
				 M295.8,124.3c-0.3-0.1-0.6-0.1-0.8-0.2l-0.1,0.4c0.3,0.3,0.5,0.5,1,0.4v-0.4C295.8,124.5,295.8,124.4,295.8,124.3z M296.6,124.2
				c-0.1,0.2-0.1,0.3,0.1,0.4c1-0.1,1.9,0.3,2.8,0.3c0-0.3-0.1-0.4,0-0.7c-0.8-0.1-2.5-0.8-2.8,0.1V124.2z M298.5,122.9
				c0,0.2,0,0.4,0.1,0.6c0.3,0,0.4,0,0.7,0v-0.7h-0.6v0.3L298.5,122.9z M299.5,121.5c0.6-0.6-0.2-1.4-0.8-0.3
				C299,121.5,299.2,121.6,299.5,121.5z M299.8,121.9c-0.3,0-0.5,0-0.7,0.2l0.1,0.2c1.4,0.3,2.1,1.5,3.7,0.7c-0.5-0.9-1.9-3-3.2-0.8
				L299.8,121.9z M304.2,121.8c0.1,0.5,0.1,0.6,0.1,1.2h1v-0.3h-0.4c0-0.3,0-0.6,0-0.9C304.6,121.8,304.5,121.8,304.2,121.8z
				 M293.3,122.7c-0.2-0.1-0.3,0-0.3,0.2c0.4,0.2,1,0.3,1.5,0.2c-0.2,0-0.3-0.1-0.1-0.5C294,122.6,293.7,122.6,293.3,122.7z
				 M301.7,125c0.7-0.4,2.7,0.4,3.4,0.9c1.7,1.1,1.5,2.9,1.5,3c0.6,0.8-0.1,0.6,2,1c0.8,0.2,3.3,2.1,3.3-0.1c2.1,0,1.2-0.2,3.1,0.4
				c1.4,0.5,2.3,2.4,4.2,2.2c-0.3-1.2-1.3-2-2.7-2v-1.4c-0.4,0-0.6,0-0.9,0V128c0.3,0,0.5,0,0.8,0v-0.4c-0.2-0.1-0.4-0.3-0.6-0.5h-1
				c-1.7-2.1-4.1-3.7-7-3.9c-1.4-0.1-2.2,0.9-2.9,1c-1.7,0.2-2.1-0.8-4-0.4v0.4c0.5,0.2,0.4,0.4,0.4,0.9h0.3
				C301.7,125.2,301.6,125.1,301.7,125z M303.1,126.8c-0.3,0.2-0.6,0.8-0.6,1.2c0,0,1.8-0.3,0.8-1.4
				C303.3,126.7,303.2,126.8,303.1,126.8z M294.3,129c0,0.2,0,0.3,0.1,0.4c0.4-0.1,0.7,0,1-0.2l-0.2-0.2H294.3z M299.7,129.7
				c0,0.1,0,0.1,0.1,0.2h0.6c0.5-0.4,0.3-0.8,0.1-1.3c-0.3,0.1-0.5,0.2-0.7,0.4C299.7,129.3,299.7,129.5,299.7,129.7z M317.3,126.9
				c0.1,0.2,0.1,0.4,0,0.6c1.5,0,3.9,0.4,3.6-2.1c-1.3,0.2-1.5,1.1-3.5,1.1C317.4,126.6,317.3,126.9,317.3,126.9z M323.3,127.6
				c0,0.5,1,1,1.3,1c-0.2-0.7-1-1.1-1-1.8c-0.1,0-0.3,0-0.4,0.1C323.3,127.2,323.3,127.3,323.3,127.6z M328.4,131.3
				c0.3,0.5,0.6,0.3,1,0.2c-0.2-0.5-0.5-0.6-1-0.6C328.4,131,328.4,131.3,328.4,131.3z M310.8,133.5c-1.6,2.8,0.4,6.4-2.9,5.8
				c-3.8-0.6-3-3.1-2.2-5.3c-1.9-0.1-3.4-1.2-5.2-1.2v0.4c0.2,0.4,0.7,0.3,0.9,0.7c-2.9,1.1-2.3,2.6-5,2.6c0-0.2-0.1-0.3-0.1-0.5
				c-1.8,0.1-2.4,2.1-3.8,2.1v0.4c0.2,0.4,0.5,0.5,0.4,1.1H292v-0.7c-1.7,0.5-1.2,2.4-2.8,3.6c-1.8,1.4-4.7-0.1-5.6,2.8
				c-0.5-0.1-0.8-0.2-1-0.7c-0.6,1.8-0.8,2.8,0.3,4.6l-0.1,0.2c-0.4-0.2-0.7-0.4-1.1-0.3c1.4,2.2,2.9,5.8,2.9,8.7
				c-0.5,0-0.9,0.2-1.3,0.7l0.1,0.2c0.9,0,1.6,1.3,2.7,1.3c1,0,1.3-1,1.9-1.1c2.9-0.3,3.4-0.9,6-2.1c1.5-0.7,8.8-2.5,8.8,0.9
				c1.2,0,2.1,3.9,3.4-0.2c1,0.4,0,1.1,0.1,2c0.4-0.3,0.3-0.4,0.9-0.3c0,0.6-0.2,1.2-0.2,1.8c2.2-0.5,0.6,1.2,1.7,1.9
				c0.7,0.5,4.4,2.9,4.4,0.5c3.2,3.9,8.7-4.5,8.7-7.9c1.3-2,0.4-3.6,0.4-5.5l-0.1-0.1c-0.2-1.9-1.6-3-2.1-4.7
				c-1.3-0.1-1.9-0.2-1.9-1.7c-2.4-0.5-2.6-3.4-3.7-5.2c-0.3-0.5-2.9-5.4-3.3-5.5l-0.1,0.2C310.9,133.2,310.8,133.3,310.8,133.5z
				 M299,132.9c-1.3,0.2,0.7,0.5,1.2,0.5V133l-0.4-0.1c-0.3,0.1-0.6,0.1-0.9,0.1L299,132.9z M332.8,142.8c0.8,1.3,1.5,2.4,3.2,2.6
				c-0.1-0.6-2.3-2.5-2.8-2.6L332.8,142.8z M343.2,162.5c0,0.7,0.4,1.2,0.3,2.1h-1.1c0,0.4,0,0.7,0,1.1h1.4v1.8h0.9
				c0.1-1,1.1-1.3,1.1-2.5h0.7c0.2-2,1.1-2.2-1.6-1.7l-0.1-0.5c0.2-0.6-0.1-0.9-0.6-1.1c-0.1,0.2-0.2,0.4-0.3,0.7
				c-0.7-0.4-0.7-3.1-2-3.1c-0.7,0,1.1,2.2,1.3,2.6C343.2,162.1,343.2,162.3,343.2,162.5z M336.5,174.9c-0.2,0.1-0.3,0.2-0.4,0.4
				h0.8c0-0.2,0-0.3-0.1-0.5C336.9,174.9,336.6,174.8,336.5,174.9z M337.8,174.3c0.4,0,0.6-0.6,1.3-0.6c0-1.8,1.5-2.9,2.9-3.2
				c-0.2-0.5,0.8-2.3,1-3.2c-1.1,0-1.1-0.8-2.2-0.7v1.1c-1,1.3-3.4,4.6-5.4,4.9C335.4,173.6,336.6,174.5,337.8,174.3z M312.7,165.2
				c-0.5,0.3-0.3,0.5,0,1l0.2-0.1v-0.9C312.8,165.3,312.8,165.2,312.7,165.2z M316.5,165.5c0,0.7,0.4,0.5,0.5,1.1h0.4
				C317.4,165.7,317.1,165.5,316.5,165.5z M313.3,167.1c0.4,1.4,1.4,2.7,2.5,3.2c0.1-0.3,0.1-0.5,0-0.8h0.9c0-1.1,0.3-1.3,0.3-2.4
				c-0.9,0.2-3.4-0.7-3.6-0.3C313.4,166.9,313.3,167.1,313.3,167.1z M248.7,110.7c-0.9,1.2-0.4,3.8,1.4,3.7c0-1.6-1-2.3-1.1-3.6
				L248.7,110.7z M90.2,25.3l0.7-0.6l1.3-0.3l-1.3-0.9c-1.1-0.1-2.2-0.1-3.4-0.1c0.1,0.6,0.3,1.2,0.5,1.8L90.2,25.3z M84.7,44.8
				c0.6,0,1.1-0.3,1.4-0.9L86,43.4c-0.6,0.3-1.2,0.7-1.8,1C84.4,44.6,84.5,44.8,84.7,44.8z M87.4,44.6l0.8-0.4l0.8,0.1
				c0.1,0.4,0.1,0.8,0.1,1.2l-0.4,0.2h-1L87.4,44.6z"/>
		</g>
		<g id="costa-rica" transform="translate(77.000000, 92.000000)">
			<g id="path-2-link">
				<path id="path-2" d="M5.3,16C1.8,10.9,0,7.4,0,5.5C0,2.7,2.7,0,5.3,0s5.3,2.7,5.3,5.3C10.7,7.1,8.9,10.7,5.3,16z"/>
			</g>
			<g id="path-2-link_1_">
				
					<linearGradient id="path-2_2_" gradientUnits="userSpaceOnUse" x1="-492.5625" y1="381.9375" x2="-492.5625" y2="382.9375" gradientTransform="matrix(10.6667 0 0 -16 5259.3335 6127)">
					<stop  offset="0" style="stop-color:#1D7FFF"/>
					<stop  offset="1" style="stop-color:#5BA3FE"/>
				</linearGradient>
				<path id="path-2_1_" class="st3" d="M5.3,16C1.8,10.9,0,7.4,0,5.5C0,2.7,2.7,0,5.3,0s5.3,2.7,5.3,5.3C10.7,7.1,8.9,10.7,5.3,16z
					"/>
			</g>
		</g>
		<g id="moscow" transform="translate(204.000000, 45.000000)">
			<g id="path-4-link_2_">
				<path id="path-4_2_" d="M5.3,16C1.8,10.9,0,7.4,0,5.5C0,2.7,2.7,0,5.3,0s5.3,2.7,5.3,5.3C10.7,7.1,8.9,10.7,5.3,16z"/>
			</g>
			<g id="path-4-link_3_">
				
					<linearGradient id="path-4_1_" gradientUnits="userSpaceOnUse" x1="-619.5625" y1="428.9375" x2="-619.5625" y2="429.9375" gradientTransform="matrix(10.6667 0 0 -16 6614 6879)">
					<stop  offset="0" style="stop-color:#1D7FFF"/>
					<stop  offset="1" style="stop-color:#5BA3FE"/>
				</linearGradient>
				<path id="path-4_3_" class="st4" d="M5.3,16C1.8,10.9,0,7.4,0,5.5C0,2.7,2.7,0,5.3,0s5.3,2.7,5.3,5.3C10.7,7.1,8.9,10.7,5.3,16z
					"/>
			</g>
		</g>
		<g id="milan_1_" transform="translate(173.000000, 53.000000)">
			<g id="path-4-link_11_">
				<path id="path-4_11_" d="M-0.3,8C-3.8,2.9-5.6-0.6-5.6-2.5C-5.6-5.3-2.9-8-0.3-8s5.3,2.7,5.3,5.3C5.1-0.9,3.3,2.7-0.3,8z"/>
			</g>
			<g id="path-4-link_10_">
				
					<linearGradient id="path-4_8_" gradientUnits="userSpaceOnUse" x1="-589.0888" y1="421.4375" x2="-589.0888" y2="422.4375" gradientTransform="matrix(10.6667 0 0 -16 6283.3335 6751)">
					<stop  offset="0" style="stop-color:#1D7FFF"/>
					<stop  offset="1" style="stop-color:#5BA3FE"/>
				</linearGradient>
				<path id="path-4_10_" class="st5" d="M-0.3,8C-3.8,2.9-5.6-0.6-5.6-2.5C-5.6-5.3-2.9-8-0.3-8s5.3,2.7,5.3,5.3
					C5.1-0.9,3.3,2.7-0.3,8z"/>
			</g>
		</g>
		<g id="melbourne" transform="translate(308.000000, 147.000000)">
			<g id="path-4-link_6_">
				<path id="path-4_6_" d="M5.3,16C1.8,10.9,0,7.4,0,5.5C0,2.7,2.7,0,5.3,0s5.3,2.7,5.3,5.3C10.7,7.1,8.9,10.7,5.3,16z"/>
			</g>
			<g id="path-4-link_7_">
				
					<linearGradient id="path-4_9_" gradientUnits="userSpaceOnUse" x1="-723.5625" y1="326.9375" x2="-723.5625" y2="327.9375" gradientTransform="matrix(10.6667 0 0 -16 7723.3335 5247)">
					<stop  offset="0" style="stop-color:#1D7FFF"/>
					<stop  offset="1" style="stop-color:#5BA3FE"/>
				</linearGradient>
				<path id="path-4_7_" class="st6" d="M5.3,16C1.8,10.9,0,7.4,0,5.5C0,2.7,2.7,0,5.3,0s5.3,2.7,5.3,5.3C10.7,7.1,8.9,10.7,5.3,16z
					"/>
			</g>
		</g>
		<g id="ba" transform="translate(104.000000, 145.000000)">
			<g id="path-6-link">
				<path id="path-6" d="M5.3,16C1.8,10.9,0,7.4,0,5.5C0,2.7,2.7,0,5.3,0s5.3,2.7,5.3,5.3C10.7,7.1,8.9,10.7,5.3,16z"/>
			</g>
			<g id="path-6-link_1_">
				
					<linearGradient id="path-6_4_" gradientUnits="userSpaceOnUse" x1="-519.5625" y1="328.9375" x2="-519.5625" y2="329.9375" gradientTransform="matrix(10.6667 0 0 -16 5547.3335 5279)">
					<stop  offset="0" style="stop-color:#1D7FFF"/>
					<stop  offset="1" style="stop-color:#5BA3FE"/>
				</linearGradient>
				<path id="path-6_1_" class="st7" d="M5.3,16C1.8,10.9,0,7.4,0,5.5C0,2.7,2.7,0,5.3,0s5.3,2.7,5.3,5.3C10.7,7.1,8.9,10.7,5.3,16z
					"/>
			</g>
		</g>
		<g id="ba_1_" transform="translate(104.000000, 145.000000)">
			<g id="path-6-link_3_">
				<path id="path-6_3_" d="M-7.2,22c-3.6-5.1-5.3-8.6-5.3-10.5c0-2.8,2.7-5.5,5.3-5.5s5.3,2.7,5.3,5.3C-1.8,13.1-3.6,16.7-7.2,22z"
					/>
			</g>
			<g id="path-6-link_2_">
				
					<linearGradient id="path-6_5_" gradientUnits="userSpaceOnUse" x1="-520.733" y1="328.5625" x2="-520.733" y2="329.5625" gradientTransform="matrix(10.6667 0 0 -16 5547.3335 5279)">
					<stop  offset="0" style="stop-color:#1D7FFF"/>
					<stop  offset="1" style="stop-color:#5BA3FE"/>
				</linearGradient>
				<path id="path-6_2_" class="st8" d="M-7.2,22c-3.6-5.1-5.3-8.6-5.3-10.5c0-2.8,2.7-5.5,5.3-5.5s5.3,2.7,5.3,5.3
					C-1.8,13.1-3.6,16.7-7.2,22z"/>
			</g>
		</g>
		<g id="new-york" transform="translate(84.000000, 47.000000)">
			<g id="path-8-link">
				<path id="path-8" d="M6.3,18C2.8,12.9,1,9.4,1,7.5C1,4.7,3.7,2,6.3,2s5.3,2.7,5.3,5.3C11.7,9.1,9.9,12.7,6.3,18z"/>
			</g>
			<g id="path-8-link_1_">
				
					<linearGradient id="path-8_4_" gradientUnits="userSpaceOnUse" x1="-499.4688" y1="426.8125" x2="-499.4688" y2="427.8125" gradientTransform="matrix(10.6667 0 0 -16 5334 6847)">
					<stop  offset="0" style="stop-color:#1D7FFF"/>
					<stop  offset="1" style="stop-color:#5BA3FE"/>
				</linearGradient>
				<path id="path-8_1_" class="st9" d="M6.3,18C2.8,12.9,1,9.4,1,7.5C1,4.7,3.7,2,6.3,2s5.3,2.7,5.3,5.3C11.7,9.1,9.9,12.7,6.3,18z
					"/>
			</g>
		</g>
		<g id="new-york_1_" transform="translate(84.000000, 47.000000)">
			<g id="path-8-link_3_">
				<path id="path-8_3_" d="M1.1,21.9c-3.6-5.1-5.3-8.6-5.3-10.5c0-2.8,2.7-5.5,5.3-5.5s5.3,2.7,5.3,5.3C6.5,13,4.7,16.6,1.1,21.9z"
					/>
			</g>
			<g id="path-8-link_2_">
				
					<linearGradient id="path-8_5_" gradientUnits="userSpaceOnUse" x1="-499.9573" y1="426.5687" x2="-499.9573" y2="427.5687" gradientTransform="matrix(10.6667 0 0 -16 5334 6847)">
					<stop  offset="0" style="stop-color:#1D7FFF"/>
					<stop  offset="1" style="stop-color:#5BA3FE"/>
				</linearGradient>
				<path id="path-8_2_" class="st10" d="M1.1,21.9c-3.6-5.1-5.3-8.6-5.3-10.5c0-2.8,2.7-5.5,5.3-5.5s5.3,2.7,5.3,5.3
					C6.5,13,4.7,16.6,1.1,21.9z"/>
			</g>
		</g>
		<g id="berlin" transform="translate(43.000000, 67.000000)">
			<g id="path-10-link">
				<path id="path-10" d="M23.9,5.4c-3.6-5.1-5.3-8.6-5.3-10.5c0-2.8,2.7-5.5,5.3-5.5s5.3,2.7,5.3,5.3C29.2-3.5,27.4,0,23.9,5.4z"/>
			</g>
			<g id="path-10-link_1_">
				
					<linearGradient id="path-10_4_" gradientUnits="userSpaceOnUse" x1="-456.8257" y1="407.6017" x2="-456.8257" y2="408.6017" gradientTransform="matrix(10.6667 0 0 -16 4896.667 6527)">
					<stop  offset="0" style="stop-color:#1D7FFF"/>
					<stop  offset="1" style="stop-color:#5BA3FE"/>
				</linearGradient>
				<path id="path-10_1_" class="st11" d="M23.9,5.4c-3.6-5.1-5.3-8.6-5.3-10.5c0-2.8,2.7-5.5,5.3-5.5s5.3,2.7,5.3,5.3
					C29.2-3.5,27.4,0,23.9,5.4z"/>
			</g>
		</g>
		<g id="berlin_1_" transform="translate(43.000000, 67.000000)">
			<g id="path-10-link_3_">
				<path id="path-10_3_" d="M2.9,11.9C-0.7,6.8-2.4,3.3-2.4,1.4c0-2.8,2.7-5.5,5.3-5.5s5.3,2.7,5.3,5.3C8.2,3,6.5,6.5,2.9,11.9z"/>
			</g>
			<g id="path-10-link_2_">
				
					<linearGradient id="path-10_5_" gradientUnits="userSpaceOnUse" x1="-458.7902" y1="407.1955" x2="-458.7902" y2="408.1955" gradientTransform="matrix(10.6667 0 0 -16 4896.667 6527)">
					<stop  offset="0" style="stop-color:#1D7FFF"/>
					<stop  offset="1" style="stop-color:#5BA3FE"/>
				</linearGradient>
				<path id="path-10_2_" class="st12" d="M2.9,11.9C-0.7,6.8-2.4,3.3-2.4,1.4c0-2.8,2.7-5.5,5.3-5.5s5.3,2.7,5.3,5.3
					C8.2,3,6.5,6.5,2.9,11.9z"/>
			</g>
		</g>
		<g id="melbourne_1_" transform="translate(91.000000, 59.000000)">
			<g id="path-12-link">
				<path id="path-12" d="M5.3,16C1.8,10.9,0,7.4,0,5.5C0,2.7,2.7,0,5.3,0s5.3,2.7,5.3,5.3C10.7,7.1,8.9,10.7,5.3,16z"/>
			</g>
			<g id="path-12-link_1_">
				
					<linearGradient id="path-12_4_" gradientUnits="userSpaceOnUse" x1="-506.5625" y1="414.9375" x2="-506.5625" y2="415.9375" gradientTransform="matrix(10.6667 0 0 -16 5408.667 6655)">
					<stop  offset="0" style="stop-color:#1D7FFF"/>
					<stop  offset="1" style="stop-color:#5BA3FE"/>
				</linearGradient>
				<path id="path-12_1_" class="st13" d="M5.3,16C1.8,10.9,0,7.4,0,5.5C0,2.7,2.7,0,5.3,0s5.3,2.7,5.3,5.3
					C10.7,7.1,8.9,10.7,5.3,16z"/>
			</g>
		</g>
		<g id="melbourne_2_" transform="translate(91.000000, 59.000000)">
			<g id="path-12-link_3_">
				<path id="path-12_3_" d="M-9.2,24c-3.6-5.1-5.3-8.6-5.3-10.5c0-2.8,2.7-5.5,5.3-5.5s5.3,2.7,5.3,5.3C-3.9,15.1-5.7,18.7-9.2,24z
					"/>
			</g>
			<g id="path-12-link_2_">
				
					<linearGradient id="path-12_5_" gradientUnits="userSpaceOnUse" x1="-507.9282" y1="414.4375" x2="-507.9282" y2="415.4375" gradientTransform="matrix(10.6667 0 0 -16 5408.667 6655)">
					<stop  offset="0" style="stop-color:#1D7FFF"/>
					<stop  offset="1" style="stop-color:#5BA3FE"/>
				</linearGradient>
				<path id="path-12_2_" class="st14" d="M-9.2,24c-3.6-5.1-5.3-8.6-5.3-10.5c0-2.8,2.7-5.5,5.3-5.5s5.3,2.7,5.3,5.3
					C-3.9,15.1-5.7,18.7-9.2,24z"/>
			</g>
		</g>
		<g id="milan" transform="translate(173.000000, 53.000000)">
			<g id="path-4-link_4_">
				<path id="path-4_4_" d="M-4.6,22.6c-3.6-5.1-5.3-8.6-5.3-10.5c0-2.8,2.7-5.5,5.3-5.5S0.7,9.3,0.7,12C0.7,13.8-1.1,17.3-4.6,22.6
					z"/>
			</g>
			<g id="path-4-link_5_">
				
					<linearGradient id="path-4_14_" gradientUnits="userSpaceOnUse" x1="-589.4951" y1="420.5222" x2="-589.4951" y2="421.5222" gradientTransform="matrix(10.6667 0 0 -16 6283.3335 6751)">
					<stop  offset="0" style="stop-color:#1D7FFF"/>
					<stop  offset="1" style="stop-color:#5BA3FE"/>
				</linearGradient>
				<path id="path-4_5_" class="st15" d="M-4.6,22.6c-3.6-5.1-5.3-8.6-5.3-10.5c0-2.8,2.7-5.5,5.3-5.5S0.7,9.3,0.7,12
					C0.7,13.8-1.1,17.3-4.6,22.6z"/>
			</g>
		</g>
		<g id="milan_2_" transform="translate(173.000000, 53.000000)">
			<g id="path-4-link_13_">
				<path id="path-4_13_" d="M-11.6,5.4c-3.6-5.1-5.3-8.6-5.3-10.5c0-2.8,2.7-5.5,5.3-5.5S-6.3-8-6.3-5.3C-6.3-3.5-8,0-11.6,5.4z"/>
			</g>
			<g id="path-4-link_12_">
				
					<linearGradient id="path-4_15_" gradientUnits="userSpaceOnUse" x1="-590.1494" y1="421.6023" x2="-590.1494" y2="422.6023" gradientTransform="matrix(10.6667 0 0 -16 6283.3335 6751)">
					<stop  offset="0" style="stop-color:#1D7FFF"/>
					<stop  offset="1" style="stop-color:#5BA3FE"/>
				</linearGradient>
				<path id="path-4_12_" class="st16" d="M-11.6,5.4c-3.6-5.1-5.3-8.6-5.3-10.5c0-2.8,2.7-5.5,5.3-5.5S-6.3-8-6.3-5.3
					C-6.3-3.5-8,0-11.6,5.4z"/>
			</g>
		</g>
	</g>
</g>
</svg>
