<?xml version="1.0" encoding="utf-8"?>
<!-- Generator: Adobe Illustrator 23.0.6, SVG Export Plug-In . SVG Version: 6.00 Build 0)  -->
<svg version="1.1" id="Layer_1" xmlns="http://www.w3.org/2000/svg" xmlns:xlink="http://www.w3.org/1999/xlink" x="0px" y="0px"
	 viewBox="0 0 429.3 90" style="enable-background:new 0 0 429.3 90;" xml:space="preserve">
<style type="text/css">
	.st0{fill:#4E5EE4;}
	.st1{fill-rule:evenodd;clip-rule:evenodd;fill:#4E5EE4;}
</style>
<title>OZ_subbrand_name_contracts_blue</title>
<desc>Created with Sketch.</desc>
<g id="exports">
	<g id="contracts_blue">
		<path id="Contracts" class="st0" d="M149.5,68.8c-12.8,0-21.9-9.3-21.9-21.8c0-12.4,9.1-21.8,22-21.8c10.8,0,18.4,6.7,20.5,15.7
			h-8.6c-1.6-4.9-6.1-8-11.9-8c-7.9,0-13.7,6.1-13.7,14.2c0,8.2,5.8,14.2,13.7,14.2c5.7,0,10.3-3.1,12-7.9h8.8
			C168.3,62.3,160.3,68.8,149.5,68.8z M192.1,68.8c-9.9,0-16.8-7.1-16.8-16.6c0-9.4,6.8-16.6,16.8-16.6c9.9,0,16.8,7.2,16.8,16.6
			S202,68.8,192.1,68.8z M192.1,61.7c5.2,0,8.9-4,8.9-9.5c0-5.5-3.7-9.5-8.9-9.5c-5.2,0-8.9,4-8.9,9.5
			C183.3,57.8,187,61.7,192.1,61.7z M215.8,68V36.4h7.4v3.8h0.4c1.3-2.3,4.4-4.6,8.9-4.6c7.1,0,11.4,5,11.4,11.7V68h-7.8V49.4
			c0-3.8-2.5-6.4-6.1-6.4c-3.8,0-6.5,3-6.5,7V68H215.8z M265.6,68c-6.5,0-10.5-3.7-10.5-10.5V42.7h-5.3v-6.2h3.5
			c1.4,0,2.3-0.9,2.3-2.4v-6.4h7.3v8.7h8.7v6.2h-8.7v14.5c0,2.6,1.3,4.3,4.3,4.3h4.2V68H265.6z M278.2,68V36.4h7.4v5.2h0.5
			c1-2.5,3.9-5.3,8.3-5.3h2.9v7.4H294c-5,0-8,3.7-8,9.3V68H278.2z M315.8,68.8c-8.8,0-14.9-6.6-14.9-16.4c0-9.9,6-16.7,14.6-16.7
			c5.5,0,8.5,3.2,9.6,4.9h0.4v-4.1h7.8V68h-7.7v-4h-0.4C324.4,65.3,321.6,68.8,315.8,68.8z M317.3,61.8c5.2,0,8.5-4.2,8.5-9.5
			c0-5.9-3.6-9.5-8.5-9.5c-5,0-8.4,4-8.4,9.5C308.8,58,312.3,61.8,317.3,61.8z M355.9,68.8c-9.9,0-16.5-7.3-16.5-16.6
			s6.6-16.6,16.5-16.6c8.1,0,14.4,5,15.6,12.4h-8c-1-3.1-3.9-5.3-7.6-5.3c-5.3,0-8.6,4.2-8.6,9.5c0,5.5,3.5,9.5,8.7,9.5
			c3.6,0,6.5-2,7.4-5.1h8C370.2,63.9,364,68.8,355.9,68.8z M392.1,68c-6.5,0-10.5-3.7-10.5-10.5V42.7h-5.3v-6.2h3.5
			c1.4,0,2.3-0.9,2.3-2.4v-6.4h7.3v8.7h8.7v6.2h-8.7v14.5c0,2.6,1.3,4.3,4.3,4.3h4.2V68H392.1z M415.9,68.8c-8.5,0-12.8-4-13.1-10.3
			h7.2c0.3,2.7,2.5,4.1,6,4.1c3.6,0,5.6-1.6,5.6-3.8c0-6.7-18.1-0.4-18.1-13.6c0-5.3,4.6-9.7,12.4-9.7c6.8,0,11.9,3.5,12.4,9.8h-6.9
			c-0.4-2.3-2.2-3.8-5.6-3.8c-3.2,0-5.2,1.4-5.2,3.4c0,6,18.5-0.3,18.5,13.4C429.3,64.5,424.4,68.8,415.9,68.8z"/>
		<g id="OZ_subbrand_ic_contracts">
			<path id="Combined-Shape" class="st1" d="M56.5,90l-23-13.3V0l23,13.3V90z M23,90L0,76.7V0l23,13.3V90z M90,90L67,76.7V0l23,13.3
				V90z"/>
		</g>
	</g>
</g>
</svg>
