<?xml version="1.0" encoding="utf-8"?>
<!-- Generator: Adobe Illustrator 23.0.6, SVG Export Plug-In . SVG Version: 6.00 Build 0)  -->
<svg version="1.1" id="Layer_1" xmlns="http://www.w3.org/2000/svg" xmlns:xlink="http://www.w3.org/1999/xlink" x="0px" y="0px"
	 viewBox="0 0 262.4 90" style="enable-background:new 0 0 262.4 90;" xml:space="preserve">
<style type="text/css">
	.st0{fill:#4E5EE4;}
	.st1{fill-rule:evenodd;clip-rule:evenodd;fill:#4E5EE4;}
</style>
<title>OZ_subbrand_name_sdk_blue</title>
<desc>Created with Sketch.</desc>
<g id="exports">
	<g id="sdk_blue" transform="translate(0.000000, -7.000000)">
		<path id="SDK" class="st0" d="M155.2,77.8c-10.4,0-17.3-6.2-17.3-15.2h8.4c0.1,4.1,3.5,7.3,9.2,7.3c4.9,0,8-2.1,8-5.5
			c0-10.4-24.2-2-24.2-20.6c0-7.2,5.7-13.2,15.8-13.2c8.7,0,16,4.6,16.3,14.1h-8.7c-0.1-3.8-2.7-6.3-7.6-6.3c-4.8,0-7.2,2.4-7.2,5.3
			c0,9.5,24.6,1.7,24.6,20.1C172.4,71.7,166.1,77.8,155.2,77.8z M180.1,76.9V31.3h15.4c14.5,0,23.3,9.4,23.3,22.7
			c0,14.1-8.7,22.9-23.3,22.9H180.1z M188.7,69.4h6.4c8,0,14.6-4.7,14.6-15.4c0-10.2-6.5-15.1-14.6-15.1h-6.4V69.4z M262.4,76.9
			h-10.1l-11.9-20.3l-5.1,6v14.3h-8.7V31.3h8.7v19.2h0.4l15.6-19.2H262l-15.6,18.4L262.4,76.9z"/>
		<g id="OZ_subbrand_ic_platform">
			<path id="Combined-Shape" class="st1" d="M48.9,69.2l22.4-11.8l26.5,13.9L48.9,97L0,71.3l26.5-13.9L48.9,69.2z M48.9,7l48.9,25.7
				L48.9,58.3L0,32.7L48.9,7z"/>
		</g>
	</g>
</g>
</svg>
