<?xml version="1.0" encoding="utf-8"?>
<!-- Generator: Adobe Illustrator 23.0.6, SVG Export Plug-In . SVG Version: 6.00 Build 0)  -->
<svg version="1.1" id="Layer_1" xmlns="http://www.w3.org/2000/svg" xmlns:xlink="http://www.w3.org/1999/xlink" x="0px" y="0px"
	 viewBox="0 0 466.3 90" style="enable-background:new 0 0 466.3 90;" xml:space="preserve">
<style type="text/css">
	.st0{fill:#4E5EE4;}
	.st1{fill:#FFFFFF;fill-opacity:0;}
	.st2{filter:url(#Adobe_OpacityMaskFilter);}
	.st3{fill-rule:evenodd;clip-rule:evenodd;fill:#FFFFFF;}
	.st4{mask:url(#mask-2_1_);fill:#4E5EE4;}
</style>
<title>OZ_subbrand_name_sk_blue</title>
<desc>Created with Sketch.</desc>
<g id="presentación">
	<g id="OZ_subbrand_name_sk_blue" transform="translate(-9.000000, 0.000000)">
		<path id="StarterKits" class="st0" d="M152,67.1c-9.6,0-16-5.7-16-14h7.7c0.1,3.8,3.2,6.7,8.5,6.7c4.5,0,7.4-1.9,7.4-5.1
			c0-9.6-22.3-1.9-22.3-19c0-6.7,5.3-12.1,14.5-12.1c8,0,14.8,4.2,15,13h-8c-0.1-3.5-2.5-5.8-7-5.8c-4.4,0-6.6,2.2-6.6,4.9
			c0,8.8,22.6,1.6,22.6,18.5C167.8,61.5,162,67.1,152,67.1z M188.3,66.3c-6.5,0-10.5-3.7-10.5-10.5V41h-5.3v-6.2h3.5
			c1.4,0,2.3-0.9,2.3-2.4v-6.4h7.3v8.7h8.7V41h-8.7v14.5c0,2.6,1.3,4.3,4.3,4.3h4.2v6.5H188.3z M213.8,67.1
			c-8.8,0-14.9-6.6-14.9-16.4c0-9.9,6-16.7,14.6-16.7c5.5,0,8.5,3.2,9.6,4.9h0.4v-4.1h7.8v31.6h-7.7v-4h-0.4
			C222.3,63.6,219.5,67.1,213.8,67.1z M215.3,60.1c5.2,0,8.5-4.2,8.5-9.5c0-5.9-3.6-9.5-8.5-9.5c-5,0-8.4,4-8.4,9.5
			C206.8,56.3,210.2,60.1,215.3,60.1z M239.3,66.3V34.8h7.4v5.2h0.5c1-2.5,3.9-5.3,8.3-5.3h2.9v7.4h-3.2c-5,0-8,3.7-8,9.3v14.9
			H239.3z M279,66.3c-6.5,0-10.5-3.7-10.5-10.5V41h-5.3v-6.2h3.5c1.4,0,2.3-0.9,2.3-2.4v-6.4h7.3v8.7h8.7V41h-8.7v14.5
			c0,2.6,1.3,4.3,4.3,4.3h4.2v6.5H279z M305.6,67.1c-9.3,0-15.9-7-15.9-16.4c0-10,6.7-16.7,15.9-16.7c10.1,0,15.7,7.5,15.7,16.4v2.5
			h-24c0.2,4.8,3.5,8,8.6,8c3.8,0,6.8-1.8,7.9-4.4h7.3C319.4,62.9,313.7,67.1,305.6,67.1z M297.3,47.3h16.4
			c-0.4-4.3-3.7-7.1-8.2-7.1C301.2,40.2,297.8,43.3,297.3,47.3z M328.1,66.3V34.8h7.4v5.2h0.5c1-2.5,3.9-5.3,8.3-5.3h2.9v7.4h-3.2
			c-5,0-8,3.7-8,9.3v14.9H328.1z M403,66.3h-9.3l-10.9-18.7l-4.7,5.5v13.1h-8v-42h8V42h0.4l14.3-17.7h9.9l-14.4,16.9L403,66.3z
			 M412.5,30.6c-2.8,0-4.8-1.7-4.8-4.6c0-2.7,2-4.5,4.8-4.5c2.8,0,4.8,1.8,4.8,4.5C417.3,28.8,415.4,30.6,412.5,30.6z M408.6,66.3
			V34.8h7.8v31.6H408.6z M438.1,66.3c-6.5,0-10.5-3.7-10.5-10.5V41h-5.3v-6.2h3.5c1.4,0,2.3-0.9,2.3-2.4v-6.4h7.3v8.7h8.7V41h-8.7
			v14.5c0,2.6,1.3,4.3,4.3,4.3h4.2v6.5H438.1z M462,67.1c-8.5,0-12.8-4-13.1-10.3h7.2c0.3,2.7,2.5,4.1,6,4.1c3.6,0,5.6-1.6,5.6-3.8
			c0-6.7-18.1-0.4-18.1-13.6c0-5.3,4.6-9.7,12.4-9.7c6.8,0,11.9,3.5,12.4,9.8h-6.9c-0.4-2.3-2.2-3.8-5.6-3.8c-3.2,0-5.2,1.4-5.2,3.4
			c0,6,18.5-0.3,18.5,13.4C475.3,62.8,470.4,67.1,462,67.1z"/>
		<g id="Group-57">
			<g id="Mask">
				<rect id="path-1" x="9" class="st1" width="90" height="90"/>
			</g>
			<g id="Combined-Shape-Clipped">
				<defs>
					<filter id="Adobe_OpacityMaskFilter" filterUnits="userSpaceOnUse" x="13.5" y="0" width="81.4" height="89.6">
						<feColorMatrix  type="matrix" values="1 0 0 0 0  0 1 0 0 0  0 0 1 0 0  0 0 0 1 0"/>
					</filter>
				</defs>
				<mask maskUnits="userSpaceOnUse" x="13.5" y="0" width="81.4" height="89.6" id="mask-2_1_">
					<g class="st2">
						<rect x="9" class="st3" width="90" height="90"/>
					</g>
				</mask>
				<path id="Combined-Shape" class="st4" d="M48.9,0v40.3L13.5,60.5V20.2L48.9,0z M59.5,0l35.4,20.2v46.3L54.2,89.6L18.8,69.5
					l40.7-23.2V0z"/>
			</g>
		</g>
	</g>
</g>
</svg>
