<?xml version="1.0" encoding="utf-8"?>
<!-- Generator: Adobe Illustrator 23.0.6, SVG Export Plug-In . SVG Version: 6.00 Build 0)  -->
<svg version="1.1" id="Layer_1" xmlns="http://www.w3.org/2000/svg" xmlns:xlink="http://www.w3.org/1999/xlink" x="0px" y="0px"
	 viewBox="0 0 140.9 22" style="enable-background:new 0 0 140.9 22;" xml:space="preserve" preserveAspectRatio="xMinYMin meet">
<style type="text/css">
	.st0{fill:#282846;}
	.st1{fill:#282846;}
</style>
<title>OZ_subbrand_name_security_dark</title>
<g>
	<path id="Combined-Shape_1_" class="st0" d="M18.9,5.7l0.9,11.9L11,22l-8.8-4.4L3.1,5.7L11,6.6L18.9,5.7z M18.9,2.9L11,3.7L3.1,2.9
		V0L11,0.9L18.9,0V2.9z"/>
	<g>
		<path class="st1" d="M31.1,11.5H33c0,0.9,0.8,1.6,2.1,1.6c1.1,0,1.8-0.5,1.8-1.2c0-2.3-5.4-0.5-5.4-4.6c0-1.6,1.3-3,3.5-3
			c1.9,0,3.6,1,3.7,3.2h-1.9c0-0.8-0.6-1.4-1.7-1.4c-1.1,0-1.6,0.5-1.6,1.2c0,2.1,5.5,0.4,5.5,4.5c0,1.8-1.4,3.2-3.9,3.2
			C32.7,14.9,31.1,13.5,31.1,11.5z"/>
		<path class="st1" d="M40.1,11c0-2.4,1.6-4.1,3.9-4.1c2.5,0,3.8,1.8,3.8,4v0.6H42c0.1,1.2,0.9,2,2.1,2c0.9,0,1.7-0.4,1.9-1.1h1.8
			C47.4,14,46,15,44.1,15C41.7,14.9,40.1,13.2,40.1,11z M45.9,10.1c-0.1-1-0.9-1.7-2-1.7s-1.9,0.8-2,1.7H45.9z"/>
		<path class="st1" d="M49,11c0-2.3,1.6-4,4-4c2,0,3.5,1.2,3.8,3h-1.9c-0.2-0.8-1-1.3-1.8-1.3c-1.3,0-2.1,1-2.1,2.3
			c0,1.3,0.9,2.3,2.1,2.3c0.9,0,1.6-0.5,1.8-1.2h1.9c-0.3,1.8-1.8,3-3.8,3C50.6,14.9,49,13.2,49,11z"/>
		<path class="st1" d="M58.4,12.1v-5h1.9v4.5c0,0.9,0.6,1.6,1.5,1.6s1.6-0.7,1.6-1.7V7h1.9v7.7h-1.8v-0.9h-0.2
			c-0.3,0.6-1.1,1.1-2.1,1.1C59.4,14.9,58.4,13.8,58.4,12.1z"/>
		<path class="st1" d="M67.3,7h1.8v1.3h0.1c0.2-0.6,1-1.3,2-1.3h0.7v1.8h-0.8c-1.2,0-1.9,0.9-1.9,2.3v3.6h-1.9V7z"/>
		<path class="st1" d="M73.3,5c0-0.7,0.5-1.1,1.2-1.1s1.2,0.4,1.2,1.1s-0.5,1.1-1.2,1.1S73.3,5.7,73.3,5z M73.5,7h1.9v7.7h-1.9V7z"
			/>
		<path class="st1" d="M78.2,12.2V8.6h-1.3V7.2h0.9c0.3,0,0.5-0.3,0.5-0.6V5h1.8V7h2.1v1.5h-2.1v3.6c0,0.6,0.3,1.1,1.1,1.1h1v1.6
			h-1.4C79.1,14.8,78.2,13.9,78.2,12.2z"/>
		<path class="st1" d="M84,16.4h0.8c0.7,0,1-0.3,1.2-0.9l0.2-0.5l-3.1-7.9h2l1.9,5.4h0.1L89,7.2h2l-3.4,9c-0.5,1.3-1.3,2-2.8,2h-1
			v-1.7H84z"/>
		<path class="st1" d="M99.1,4.6h2.4l3.7,10.2h-2.1l-0.7-2h-4.3l-0.7,2h-2L99.1,4.6z M101.9,11l-1.5-4.3h-0.1L98.8,11H101.9z"/>
		<path class="st1" d="M106.3,12.1v-5h1.9v4.5c0,0.9,0.6,1.6,1.5,1.6s1.6-0.7,1.6-1.7V7h1.9v7.7h-1.8v-0.9h-0.1
			c-0.3,0.6-1.1,1.1-2.1,1.1C107.4,14.9,106.3,13.8,106.3,12.1z"/>
		<path class="st1" d="M114.7,11c0-2.4,1.5-4.1,3.6-4.1c1.3,0,2.1,0.8,2.3,1.2h0.1V3.8h1.9v11h-1.9v-1h-0.1
			c-0.2,0.3-0.9,1.2-2.3,1.2C116.2,14.9,114.7,13.4,114.7,11z M120.8,11c0-1.4-0.9-2.3-2.1-2.3s-2,1-2,2.3c0,1.4,0.8,2.3,2.1,2.3
			C120,13.2,120.8,12.2,120.8,11z"/>
		<path class="st1" d="M124.4,5c0-0.7,0.5-1.1,1.2-1.1s1.2,0.4,1.2,1.1s-0.5,1.1-1.2,1.1S124.4,5.7,124.4,5z M124.6,7h1.9v7.7h-1.9
			V7z"/>
		<path class="st1" d="M129.2,12.2V8.6h-1.3V7.2h0.9c0.3,0,0.6-0.2,0.6-0.6V5h1.8V7h2.1v1.5h-2.1v3.6c0,0.6,0.3,1.1,1.1,1.1h1v1.6
			h-1.4C130.2,14.8,129.2,13.9,129.2,12.2z"/>
		<path class="st1" d="M134.4,12.5h1.8c0.1,0.7,0.6,1,1.5,1s1.4-0.4,1.4-0.9c0-1.6-4.4-0.1-4.4-3.3c0-1.3,1.1-2.4,3-2.4
			c1.7,0,2.9,0.8,3,2.4H139c-0.1-0.6-0.5-0.9-1.4-0.9c-0.8,0-1.3,0.3-1.3,0.8c0,1.5,4.5-0.1,4.5,3.3c0,1.5-1.2,2.5-3.2,2.5
			C135.5,14.9,134.5,14,134.4,12.5z"/>
	</g>
</g>
</svg>
