<?xml version="1.0" encoding="utf-8"?>
<!-- Generator: Adobe Illustrator 23.0.6, SVG Export Plug-In . SVG Version: 6.00 Build 0)  -->
<svg version="1.1" id="Layer_1" xmlns="http://www.w3.org/2000/svg" xmlns:xlink="http://www.w3.org/1999/xlink" x="0px" y="0px"
	 viewBox="0 0 104.9 22" style="enable-background:new 0 0 104.9 22;" xml:space="preserve"
	 preserveAspectRatio="xMinYMin meet">
<style type="text/css">
	.st0{fill:#282846;}
	.st1{fill:#282846;}
</style>
<title>OZ_subbrand_name_contracts_dark</title>
<g id="exports">
	<g id="contracts_dark">
		<path id="Contracts" class="st0" d="M36.5,16.8c-3.1,0-5.4-2.3-5.4-5.3c0-3,2.2-5.3,5.4-5.3c2.6,0,4.5,1.6,5,3.8h-2.1
			c-0.4-1.2-1.5-2-2.9-2c-1.9,0-3.3,1.5-3.3,3.5c0,2,1.4,3.5,3.3,3.5c1.4,0,2.5-0.8,2.9-1.9h2.1C41.1,15.2,39.2,16.8,36.5,16.8z
			 M47,16.8c-2.4,0-4.1-1.7-4.1-4c0-2.3,1.7-4,4.1-4c2.4,0,4.1,1.8,4.1,4S49.4,16.8,47,16.8z M47,15.1c1.3,0,2.2-1,2.2-2.3
			c0-1.3-0.9-2.3-2.2-2.3c-1.3,0-2.2,1-2.2,2.3C44.8,14.1,45.7,15.1,47,15.1z M52.8,16.6V8.9h1.8v0.9h0.1c0.3-0.6,1.1-1.1,2.2-1.1
			c1.7,0,2.8,1.2,2.8,2.9v5h-1.9v-4.5c0-0.9-0.6-1.6-1.5-1.6c-0.9,0-1.6,0.7-1.6,1.7v4.4H52.8z M64.9,16.6c-1.6,0-2.6-0.9-2.6-2.6
			v-3.6h-1.3V8.9h0.9c0.3,0,0.6-0.2,0.6-0.6V6.8h1.8v2.1h2.1v1.5h-2.1V14c0,0.6,0.3,1.1,1.1,1.1h1v1.6H64.9z M68,16.6V8.9h1.8v1.3
			h0.1c0.2-0.6,1-1.3,2-1.3h0.7v1.8h-0.8c-1.2,0-2,0.9-2,2.3v3.7H68z M77.2,16.8c-2.2,0-3.6-1.6-3.6-4c0-2.4,1.5-4.1,3.6-4.1
			c1.3,0,2.1,0.8,2.3,1.2h0.1v-1h1.9v7.7h-1.9v-1h-0.1C79.3,16,78.6,16.8,77.2,16.8z M77.6,15.1c1.3,0,2.1-1,2.1-2.3
			c0-1.5-0.9-2.3-2.1-2.3c-1.2,0-2.1,1-2.1,2.3C75.5,14.2,76.3,15.1,77.6,15.1z M87,16.8c-2.4,0-4-1.8-4-4s1.6-4,4-4
			c2,0,3.5,1.2,3.8,3h-2c-0.2-0.8-1-1.3-1.8-1.3c-1.3,0-2.1,1-2.1,2.3c0,1.3,0.9,2.3,2.1,2.3c0.9,0,1.6-0.5,1.8-1.2h2
			C90.5,15.6,89,16.8,87,16.8z M95.8,16.6c-1.6,0-2.6-0.9-2.6-2.6v-3.6H92V8.9h0.9c0.3,0,0.6-0.2,0.6-0.6V6.8h1.8v2.1h2.1v1.5h-2.1
			V14c0,0.6,0.3,1.1,1.1,1.1h1v1.6H95.8z M101.7,16.8c-2.1,0-3.1-1-3.2-2.5h1.8c0.1,0.7,0.6,1,1.5,1c0.9,0,1.4-0.4,1.4-0.9
			c0-1.6-4.4-0.1-4.4-3.3c0-1.3,1.1-2.4,3-2.4c1.7,0,2.9,0.9,3,2.4H103c-0.1-0.6-0.5-0.9-1.4-0.9c-0.8,0-1.3,0.3-1.3,0.8
			c0,1.5,4.5-0.1,4.5,3.3C104.9,15.8,103.7,16.8,101.7,16.8z"/>
		<g id="OZ_subbrand_ic_contracts">
			<path id="Combined-Shape" class="st1" d="M13.8,22l-5.6-3.3V0l5.6,3.3V22z M5.6,22L0,18.7V0l5.6,3.3V22z M22,22l-5.6-3.3V0
				L22,3.3V22z"/>
		</g>
	</g>
</g>
</svg>
