<?xml version="1.0" encoding="UTF-8"?>
<svg width="126px" height="26px" viewBox="0 0 126 26" version="1.1" xmlns="http://www.w3.org/2000/svg" xmlns:xlink="http://www.w3.org/1999/xlink">
    <title>oz_defender_blue</title>
    <g id="OZ-desktop" stroke="none" stroke-width="1" fill="none" fill-rule="evenodd">
        <g id="oz_defender_blue" fill="#4E5EE4">
            <g id="ic">
                <path d="M18.7500093,11 L23,18.499989 L18.7499642,26 L10.2499907,26 L6,18.500011 L14.4999735,18.4999533 L18.7500093,11 Z M12,0 L8.00003322,7.5 L12,15 L3.99996678,15 L0,7.5 L3.99996678,0 L12,0 Z M23.7499642,0 L28,7.50001095 L23.7500093,15 L19.4999735,7.50004672 L11,7.49998905 L15.2499907,0 L23.7499642,0 Z M16,10 L14.4305728,13 L13,10 L16,10 Z" id="Combined-Shape"></path>
            </g>
            <path d="M44.484,20.25 C48.721,20.25 51.267,17.685 51.267,13.562 C51.267,9.686 48.721,6.95 44.484,6.95 L40,6.95 L40,20.25 L44.484,20.25 Z M44.389,18.046 L42.527,18.046 L42.527,9.154 L44.389,9.154 C46.745,9.154 48.645,10.579 48.645,13.562 C48.645,16.678 46.726,18.046 44.389,18.046 Z M57.898,20.497 C60.482,20.497 62.268,19.167 62.762,17.134 L60.463,17.134 C60.121,17.951 59.19,18.521 57.974,18.521 C56.378,18.521 55.333,17.495 55.257,15.975 L62.857,15.975 L62.857,15.196 C62.857,12.384 61.109,10.009 57.898,10.009 C54.972,10.009 52.863,12.156 52.863,15.31 C52.863,18.293 54.953,20.497 57.898,20.497 Z M60.501,14.227 L55.295,14.227 C55.447,12.973 56.511,11.985 57.898,11.985 C59.342,11.985 60.387,12.878 60.501,14.227 Z M68.348,20.25 L68.348,12.232 L70.97,12.232 L70.97,10.256 L68.329,10.256 L68.329,9.534 C68.329,8.698 68.785,8.052 69.849,8.052 L70.894,8.052 L70.894,6 L69.602,6 C67.436,6 65.935,7.311 65.935,9.458 L65.935,10.256 L64.168,10.256 L64.168,12.232 L65.878,12.232 L65.878,20.25 L68.348,20.25 Z M77.107,20.497 C79.691,20.497 81.477,19.167 81.971,17.134 L79.672,17.134 C79.33,17.951 78.399,18.521 77.183,18.521 C75.587,18.521 74.542,17.495 74.466,15.975 L82.066,15.975 L82.066,15.196 C82.066,12.384 80.318,10.009 77.107,10.009 C74.181,10.009 72.072,12.156 72.072,15.31 C72.072,18.293 74.162,20.497 77.107,20.497 Z M79.71,14.227 L74.504,14.227 C74.656,12.973 75.72,11.985 77.107,11.985 C78.551,11.985 79.596,12.878 79.71,14.227 Z M86.721,20.25 L86.721,14.531 C86.721,13.277 87.576,12.327 88.773,12.327 C89.913,12.327 90.692,13.144 90.692,14.36 L90.692,20.25 L93.162,20.25 L93.162,13.714 C93.162,11.586 91.794,10.009 89.552,10.009 C88.127,10.009 87.139,10.731 86.74,11.472 L86.607,11.472 L86.607,10.256 L84.251,10.256 L84.251,20.25 L86.721,20.25 Z M99.774,20.497 C101.598,20.497 102.491,19.395 102.776,18.977 L102.909,18.977 L102.909,20.25 L105.341,20.25 L105.341,6 L102.871,6 L102.871,11.548 L102.738,11.548 C102.396,11.035 101.427,10.009 99.698,10.009 C96.962,10.009 95.062,12.175 95.062,15.31 C95.062,18.407 96.981,20.497 99.774,20.497 Z M100.249,18.274 C98.653,18.274 97.57,17.077 97.57,15.272 C97.57,13.505 98.653,12.251 100.23,12.251 C101.788,12.251 102.928,13.391 102.928,15.272 C102.928,16.944 101.902,18.274 100.249,18.274 Z M112.276,20.497 C114.86,20.497 116.646,19.167 117.14,17.134 L114.841,17.134 C114.499,17.951 113.568,18.521 112.352,18.521 C110.756,18.521 109.711,17.495 109.635,15.975 L117.235,15.975 L117.235,15.196 C117.235,12.384 115.487,10.009 112.276,10.009 C109.35,10.009 107.241,12.156 107.241,15.31 C107.241,18.293 109.331,20.497 112.276,20.497 Z M114.879,14.227 L109.673,14.227 C109.825,12.973 110.889,11.985 112.276,11.985 C113.72,11.985 114.765,12.878 114.879,14.227 Z M121.89,20.25 L121.89,15.519 C121.89,13.733 122.84,12.574 124.417,12.574 L125.443,12.574 L125.443,10.218 L124.531,10.218 C123.144,10.218 122.232,11.111 121.909,11.89 L121.757,11.89 L121.757,10.256 L119.42,10.256 L119.42,20.25 L121.89,20.25 Z" id="Defender" fill-rule="nonzero"></path>
        </g>
    </g>
</svg>