<?xml version="1.0" encoding="utf-8"?>
<!-- Generator: Adobe Illustrator 23.0.6, SVG Export Plug-In . SVG Version: 6.00 Build 0)  -->
<svg version="1.1" id="Layer_1" xmlns="http://www.w3.org/2000/svg" xmlns:xlink="http://www.w3.org/1999/xlink" x="0px" y="0px"
	 viewBox="0 0 61.5 22" style="enable-background:new 0 0 61.5 22;" xml:space="preserve" preserveAspectRatio="xMinYMin meet">
<style type="text/css">
	.st0{fill:#282846;}
</style>
<title>OZ_subbrand_name_sdk_dark</title>
<g id="Page-1">
	<g id="OZ_subbrand_name_sdk_dark">
		<path id="SDK" class="st0" d="M35.3,17.3c-2.5,0-4.2-1.5-4.2-3.7h2.1c0,1,0.8,1.8,2.2,1.8c1.2,0,2-0.5,2-1.4c0-2.5-5.9-0.5-5.9-5
			c0-1.8,1.4-3.2,3.9-3.2c2.1,0,3.9,1.1,4,3.4h-2.1c0-0.9-0.7-1.5-1.9-1.5c-1.2,0-1.8,0.6-1.8,1.3c0,2.3,6,0.4,6,4.9
			C39.5,15.8,38,17.3,35.3,17.3z M41.4,17.1V5.9h3.8c3.6,0,5.7,2.3,5.7,5.5c0,3.5-2.1,5.6-5.7,5.6h-3.8V17.1z M43.5,15.2h1.6
			c2,0,3.6-1.1,3.6-3.8c0-2.5-1.6-3.7-3.6-3.7h-1.6V15.2z M61.5,17.1H59l-2.9-5l-1.3,1.5v3.5h-2.1V5.9h2.1v4.7h0.1l3.8-4.7h2.7
			l-3.8,4.5L61.5,17.1z"/>
		<g id="OZ_subbrand_ic_platform">
			<path id="Combined-Shape" class="st0" d="M11.9,15.2l5.5-2.9l6.5,3.4l-12,6.3L0,15.7l6.5-3.4L11.9,15.2z M11.9,0l11.9,6.3
				l-11.9,6.3L0,6.3L11.9,0z"/>
		</g>
	</g>
</g>
</svg>
