<?xml version="1.0" encoding="utf-8"?>
<!-- Generator: Adobe Illustrator 23.0.6, SVG Export Plug-In . SVG Version: 6.00 Build 0)  -->
<svg version="1.1" id="Layer_1" xmlns="http://www.w3.org/2000/svg" xmlns:xlink="http://www.w3.org/1999/xlink" x="0px" y="0px"
	 viewBox="0 0 114 22" style="enable-background:new 0 0 114 22;" xml:space="preserve" preserveAspectRatio="xMinYMin meet">
<style type="text/css">
	.st0{fill:#282846;}
	.st1{fill:#FFFFFF;fill-opacity:0;}
	.st2{fill:none;}
</style>
<g id="Page-1">
	<g id="home" transform="translate(-52.000000, -195.000000)">
		<g id="OZ_subbrand_name_sk_dark" transform="translate(51.000000, 195.000000)">
			<path id="StarterKits" class="st0" d="M35.9,16.4C33.6,16.4,32,15,32,13h1.9c0,0.9,0.8,1.6,2.1,1.6c1.1,0,1.8-0.5,1.8-1.2
				c0-2.3-5.5-0.5-5.5-4.6c0-1.6,1.3-3,3.5-3c2,0,3.6,1,3.7,3.2h-2c0-0.9-0.6-1.4-1.7-1.4c-1.1,0-1.6,0.5-1.6,1.2
				c0,2.1,5.5,0.4,5.5,4.5C39.8,15,38.4,16.4,35.9,16.4z M44.8,16.2c-1.6,0-2.6-0.9-2.6-2.6V10h-1.3V8.5h0.9c0.3,0,0.6-0.2,0.6-0.6
				V6.4h1.8v2.1h2.1V10h-2.1v3.5c0,0.6,0.3,1.1,1.1,1.1h1v1.6H44.8z M51,16.4c-2.2,0-3.6-1.6-3.6-4c0-2.4,1.5-4.1,3.6-4.1
				c1.3,0,2.1,0.8,2.3,1.2h0.1v-1h1.9v7.7h-1.9v-1h-0.1C53.1,15.6,52.4,16.4,51,16.4z M51.4,14.7c1.3,0,2.1-1,2.1-2.3
				c0-1.5-0.9-2.3-2.1-2.3c-1.2,0-2.1,1-2.1,2.3C49.3,13.8,50.2,14.7,51.4,14.7z M57.3,16.2V8.5h1.8v1.3h0.1c0.2-0.6,1-1.3,2-1.3
				h0.7v1.8h-0.8c-1.2,0-2,0.9-2,2.3v3.7H57.3z M67,16.2c-1.6,0-2.6-0.9-2.6-2.6V10h-1.3V8.5H64c0.3,0,0.6-0.2,0.6-0.6V6.4h1.8v2.1
				h2.1V10h-2.1v3.5c0,0.6,0.3,1.1,1.1,1.1h1v1.6H67z M73.5,16.4c-2.3,0-3.9-1.7-3.9-4c0-2.4,1.6-4.1,3.9-4.1c2.5,0,3.8,1.8,3.8,4
				v0.6h-5.9c0.1,1.2,0.9,2,2.1,2c0.9,0,1.7-0.4,1.9-1.1h1.8C76.8,15.4,75.5,16.4,73.5,16.4z M71.5,11.6h4c-0.1-1-0.9-1.7-2-1.7
				C72.4,9.8,71.6,10.6,71.5,11.6z M79,16.2V8.5h1.8v1.3h0.1c0.2-0.6,1-1.3,2-1.3h0.7v1.8h-0.8c-1.2,0-2,0.9-2,2.3v3.7H79z
				 M97.3,16.2H95l-2.7-4.6L91.2,13v3.2h-2V5.9h2v4.3h0.1l3.5-4.3h2.4l-3.5,4.1L97.3,16.2z M99.6,7.5c-0.7,0-1.2-0.4-1.2-1.1
				c0-0.7,0.5-1.1,1.2-1.1c0.7,0,1.2,0.4,1.2,1.1C100.8,7,100.3,7.5,99.6,7.5z M98.7,16.2V8.5h1.9v7.7H98.7z M105.9,16.2
				c-1.6,0-2.6-0.9-2.6-2.6V10H102V8.5h0.9c0.3,0,0.6-0.2,0.6-0.6V6.4h1.8v2.1h2.1V10h-2.1v3.5c0,0.6,0.3,1.1,1.1,1.1h1v1.6H105.9z
				 M111.7,16.4c-2.1,0-3.1-1-3.2-2.5h1.8c0.1,0.7,0.6,1,1.5,1c0.9,0,1.4-0.4,1.4-0.9c0-1.6-4.4-0.1-4.4-3.3c0-1.3,1.1-2.4,3-2.4
				c1.7,0,2.9,0.9,3,2.4h-1.7c-0.1-0.6-0.5-0.9-1.4-0.9c-0.8,0-1.3,0.3-1.3,0.8c0,1.5,4.5-0.1,4.5,3.3
				C115,15.3,113.8,16.4,111.7,16.4z"/>
			<g id="Group-57">
				<g id="Mask">
					<rect id="path-1" x="1" class="st1" width="22" height="22"/>
				</g>
				<g id="Combined-Shape-Clipped">
					<g>
						<rect id="path-2" x="1" class="st2" width="22" height="22"/>
						<path id="Combined-Shape" class="st0" d="M10.8,0v9.9l-8.7,4.9V4.9L10.8,0z M13.3,0L22,4.9v11.3l-10,5.7L3.4,17l10-5.7V0z"/>
					</g>
				</g>
			</g>
		</g>
	</g>
</g>
</svg>
