<?xml version="1.0" encoding="UTF-8"?>
<svg width="1160px" height="180px" viewBox="0 0 1160 180" version="1.1" xmlns="http://www.w3.org/2000/svg" xmlns:xlink="http://www.w3.org/1999/xlink">
    <title>OZ_subbrand_name_security_blue</title>
    <g id="exports" stroke="none" stroke-width="1" fill="none" fill-rule="evenodd">
        <g id="OZ_subbrand_name_security" fill="#4E5EE4">
            <path d="M285.88,137.56 C306.04,137.56 317.56,126.4 317.56,111.52 C317.56,77.56 272.32,91.96 272.32,74.44 C272.32,69.16 276.64,64.72 285.52,64.72 C294.52,64.72 299.44,69.4 299.56,76.36 L315.52,76.36 C315.04,58.84 301.48,50.44 285.52,50.44 C267.04,50.44 256.48,61.36 256.48,74.68 C256.48,109 301.12,93.52 301.12,112.72 C301.12,119.08 295.36,122.92 286.36,122.92 C275.8,122.92 269.56,117.04 269.44,109.48 L253.96,109.48 C253.96,126.16 266.68,137.56 285.88,137.56 Z M358.96,137.56 C375.28,137.56 386.56,129.16 389.68,116.32 L375.16,116.32 C373,121.48 367.12,125.08 359.44,125.08 C349.36,125.08 342.76,118.6 342.28,109 L390.28,109 L390.28,104.08 C390.28,86.32 379.24,71.32 358.96,71.32 C340.48,71.32 327.16,84.88 327.16,104.8 C327.16,123.64 340.36,137.56 358.96,137.56 Z M375.4,97.96 L342.52,97.96 C343.48,90.04 350.2,83.8 358.96,83.8 C368.08,83.8 374.68,89.44 375.4,97.96 Z M433.12,137.56 C449.32,137.56 461.8,127.84 464.2,113.2 L448.24,113.2 C446.44,119.32 440.56,123.4 433.36,123.4 C423.04,123.4 415.96,115.36 415.96,104.44 C415.96,93.88 422.68,85.48 433.24,85.48 C440.56,85.48 446.44,89.92 448.36,96.16 L464.32,96.16 C461.92,81.28 449.32,71.32 433.12,71.32 C413.32,71.32 400.12,85.84 400.12,104.44 C400.12,123.04 413.32,137.56 433.12,137.56 Z M500.32,137.56 C509.2,137.56 515.44,133 517.96,128.32 L518.92,128.32 L518.92,136 L533.8,136 L533.8,72.88 L518.2,72.88 L518.2,109.12 C518.2,117.04 512.8,123.16 505.24,123.16 C498.04,123.16 493,117.88 493,110.2 L493,72.88 L477.4,72.88 L477.4,114.16 C477.4,127.6 486.16,137.56 500.32,137.56 Z M565.96,136 L565.96,106.12 C565.96,94.84 571.96,87.52 581.92,87.52 L588.4,87.52 L588.4,72.64 L582.64,72.64 C573.88,72.64 568.12,78.28 566.08,83.2 L565.12,83.2 L565.12,72.88 L550.36,72.88 L550.36,136 L565.96,136 Z M609.64,64.48 C615.28,64.48 619.24,61 619.24,55.36 C619.24,49.96 615.28,46.36 609.64,46.36 C604,46.36 600.04,49.96 600.04,55.36 C600.04,61 604,64.48 609.64,64.48 Z M617.44,136 L617.44,72.88 L601.84,72.88 L601.84,136 L617.44,136 Z M672.4,136 L672.4,123.04 L664,123.04 C658,123.04 655.36,119.68 655.36,114.4 L655.36,85.36 L672.76,85.36 L672.76,72.88 L655.36,72.88 L655.36,55.48 L640.72,55.48 L640.72,68.2 C640.72,71.2 638.92,73 636.16,73 L629.08,73 L629.08,85.36 L639.76,85.36 L639.76,115 C639.76,128.56 647.68,136 660.76,136 L672.4,136 Z M695.2,163.6 C707.44,163.6 713.92,157.48 717.88,146.8 L745.72,72.88 L729.04,72.88 L713.8,117.28 L712.84,117.28 L697.12,72.88 L680.68,72.88 L705.76,137.92 L704.08,142.36 C702.28,147.04 699.28,149.68 693.88,149.68 L687.4,149.68 L687.4,163.6 L695.2,163.6 Z M798.28,136 L804.04,119.44 L838.96,119.44 L844.84,136 L861.76,136 L831.76,52 L811.72,52 L781.84,136 L798.28,136 Z M834.4,105.16 L808.72,105.16 L821.08,69.76 L822.04,69.76 L834.4,105.16 Z M893.56,137.56 C902.44,137.56 908.68,133 911.2,128.32 L912.16,128.32 L912.16,136 L927.04,136 L927.04,72.88 L911.44,72.88 L911.44,109.12 C911.44,117.04 906.04,123.16 898.48,123.16 C891.28,123.16 886.24,117.88 886.24,110.2 L886.24,72.88 L870.64,72.88 L870.64,114.16 C870.64,127.6 879.4,137.56 893.56,137.56 Z M969.4,137.56 C980.92,137.56 986.56,130.6 988.36,127.96 L989.2,127.96 L989.2,136 L1004.56,136 L1004.56,46 L988.96,46 L988.96,81.04 L988.12,81.04 C985.96,77.8 979.84,71.32 968.92,71.32 C951.64,71.32 939.64,85 939.64,104.8 C939.64,124.36 951.76,137.56 969.4,137.56 Z M972.4,123.52 C962.32,123.52 955.48,115.96 955.48,104.56 C955.48,93.4 962.32,85.48 972.28,85.48 C982.12,85.48 989.32,92.68 989.32,104.56 C989.32,115.12 982.84,123.52 972.4,123.52 Z M1028.32,64.48 C1033.96,64.48 1037.92,61 1037.92,55.36 C1037.92,49.96 1033.96,46.36 1028.32,46.36 C1022.68,46.36 1018.72,49.96 1018.72,55.36 C1018.72,61 1022.68,64.48 1028.32,64.48 Z M1036.12,136 L1036.12,72.88 L1020.52,72.88 L1020.52,136 L1036.12,136 Z M1091.08,136 L1091.08,123.04 L1082.68,123.04 C1076.68,123.04 1074.04,119.68 1074.04,114.4 L1074.04,85.36 L1091.44,85.36 L1091.44,72.88 L1074.04,72.88 L1074.04,55.48 L1059.4,55.48 L1059.4,68.2 C1059.4,71.2 1057.6,73 1054.84,73 L1047.76,73 L1047.76,85.36 L1058.44,85.36 L1058.44,115 C1058.44,128.56 1066.36,136 1079.44,136 L1091.08,136 Z M1127.2,137.56 C1144.12,137.56 1153.84,128.92 1153.84,116.92 C1153.84,89.56 1116.76,102.16 1116.76,90.16 C1116.76,86.08 1120.84,83.32 1127.2,83.32 C1134.04,83.32 1137.64,86.32 1138.36,90.88 L1152.16,90.88 C1151.2,78.28 1141,71.32 1127.32,71.32 C1111.72,71.32 1102.48,79.96 1102.48,90.64 C1102.48,117.04 1138.72,104.32 1138.72,117.76 C1138.72,122.2 1134.64,125.32 1127.44,125.32 C1120.36,125.32 1116.04,122.44 1115.44,117.04 L1101.04,117.04 C1101.64,129.52 1110.16,137.56 1127.2,137.56 Z" id="SecurityAudits" fill-rule="nonzero"></path>
            <g id="ic/-audits-copy-5">
                <path d="M154.8,46.8 L162,144 L90,180 L18,144 L25.2,46.8 L90,53.98272 L154.8,46.8 Z M154.8,8.34887715e-14 L154.8,23.4 L90,30.58272 L25.2,23.4 L25.2,8.34887715e-14 L90,7.18272 L154.8,8.34887715e-14 Z" id="Combined-Shape"></path>
            </g>
        </g>
    </g>
</svg>